/* XPM */
static char *e81e46f9969a46cbb667be11ecf78a9f7NoF1EWQAfqDNFLC[] = {
/* columns rows colors chars-per-pixel */
"50 50 176 2 ",
"   c #663F22",
".  c #965C32",
"X  c #9B5E36",
"o  c #955C39",
"O  c #9A5E38",
"+  c #9D613B",
"@  c #A56236",
"#  c #A36139",
"$  c #A8643B",
"%  c #B16D3B",
"&  c #AA6E47",
"*  c #B46E40",
"=  c #B86F45",
"-  c #B57347",
";  c #BA7547",
":  c #B5754C",
">  c #BB764C",
",  c #B5784C",
"<  c #BD7A4D",
"1  c #B67651",
"2  c #B97651",
"3  c #BC7C51",
"4  c #B37A59",
"5  c #BC7F59",
"6  c #B97761",
"7  c #CA7B46",
"8  c #C3774C",
"9  c #C47B4D",
"0  c #CB7C4D",
"q  c #D27D45",
"w  c #D27D4B",
"e  c #DA7E4B",
"r  c #C47D52",
"t  c #CB7E53",
"y  c #C47C5A",
"u  c #CD7E58",
"i  c #D47D52",
"p  c #DA7E51",
"a  c #D07F58",
"s  c #BD805F",
"d  c #C6804D",
"f  c #CD814E",
"g  c #D38047",
"h  c #D3824D",
"j  c #DC844D",
"k  c #DD894E",
"l  c #C58153",
"z  c #CC8252",
"x  c #C2815C",
"c  c #CE8159",
"v  c #CF8A5B",
"b  c #D38352",
"n  c #DC8551",
"m  c #D78955",
"M  c #D68851",
"N  c #D98851",
"B  c #D98A51",
"V  c #D88852",
"C  c #DB8852",
"Z  c #DC8951",
"A  c #DF8850",
"S  c #DF8A50",
"D  c #DF8A51",
"F  c #DE8B51",
"G  c #DC8852",
"H  c #DE8852",
"J  c #DA8954",
"K  c #DA8A54",
"L  c #DA8B56",
"P  c #DC8954",
"I  c #DD8954",
"U  c #DE8954",
"Y  c #DC8952",
"T  c #D28358",
"R  c #D7865A",
"E  c #D3825A",
"W  c #DC8658",
"Q  c #D48858",
"!  c #DA8F5D",
"~  c #DB8B59",
"^  c #E0834B",
"/  c #E1834B",
"(  c #E0824C",
")  c #E3834E",
"_  c #E3834F",
"`  c #E1854C",
"'  c #E3844D",
"]  c #E1844E",
"[  c #E1854F",
"{  c #E2844E",
"}  c #E3844E",
"|  c #E2844F",
" . c #E3844F",
".. c #E3854E",
"X. c #E4844D",
"o. c #E5844D",
"O. c #E6844D",
"+. c #E7844D",
"@. c #E5854E",
"#. c #E4844F",
"$. c #E4854E",
"%. c #E6854E",
"&. c #E3854D",
"*. c #ED824C",
"=. c #E8864D",
"-. c #EB874D",
";. c #EA864D",
":. c #EA864C",
">. c #E2884F",
",. c #E5894D",
"<. c #E58A4E",
"1. c #EB8B4E",
"2. c #F4864D",
"3. c #F08E4E",
"4. c #ED934F",
"5. c #F2934F",
"6. c #E38550",
"7. c #E08650",
"8. c #E48550",
"9. c #E68551",
"0. c #E78650",
"q. c #E48551",
"w. c #EB8651",
"e. c #E08951",
"r. c #E18951",
"t. c #E18850",
"y. c #E28950",
"u. c #E38851",
"i. c #E28851",
"p. c #E08A50",
"a. c #E18A51",
"s. c #E08A51",
"d. c #E28A51",
"f. c #E28B51",
"g. c #E38A51",
"h. c #E08852",
"j. c #E08B53",
"k. c #E58A53",
"l. c #E78B53",
"z. c #E78B53",
"x. c #E28C50",
"c. c #E18D53",
"v. c #E28C52",
"b. c #E38D53",
"n. c #E68C50",
"m. c #E78E52",
"M. c #E18954",
"N. c #E28D57",
"B. c #E38F57",
"V. c #E58E54",
"C. c #E78E55",
"Z. c #E48D56",
"A. c #E68F57",
"S. c #E48A51",
"D. c #E88D53",
"F. c #EA8F55",
"G. c #EB8D52",
"H. c #E38B59",
"J. c #ED8B5A",
"K. c #F08E52",
"L. c #F58F5E",
"P. c #E79056",
"I. c #E69254",
"U. c #ED9056",
"Y. c #ED9254",
"T. c #E99158",
"R. c #F39453",
"E. c #FB9554",
"W. c #F59854",
"Q. c #FD9B53",
"!. c #F79959",
"~. c #FF9D5B",
"^. c #FAA05D",
"/. c #D88762",
"(. c #E38D60",
"). c #FFA661",
/* pixels */
"n.j h h h g j g h g g g j j j j g g h g g j ,.g = = 8 8 8 ; ; 0 8 8 7 0 8 < 8 < > > > : 8 > > 2 > f ",
"! v c c l l d l l z v f z z Q z Q f f s 5 l 3 , < 8 b b i b z t t a i a b E E b W E Q E b b b R t r ",
"A.n b b f h z l z M M z f M F F Z I.B z t t s < g e -.@.@.@.+.+.) +.+.) ) ) @.) ] ) ] ) ] ] ] -.7 3 ",
"A.V b b z z z l z f b f z B M M M k Q z r f d ; q q q.j ] j ] j ] j ] ] [ j j [ j j j ] ] ] ) -.q y ",
"A.V b b z f z r z z M z f M M M M F h l t z y 9 e e -.] 6.6.8.] ) ) 8.+.6.] ) @.@.] ] ] ] ] [ -.q s ",
"A.V i h b z z l z b z f f M M M M F f t t t r 8 q e w.] 6.6.8.) ) ] ] p ] 6.@.@.@.) ] [ ] ] [ @.q 3 ",
"A.n i b z z z l z h b h z Z M M B n h r t t r > q q j e e e e ( j ( ( ] ] j j [ j [ [ [ ] j e *.e 3 ",
"B.b b b z z z l z z i z z Z M M B j t t t t r - q q @.j j h h j j V B K K Z n N.n.A.G.n.l.l.l.F.h l ",
"B.n b b z b z l f h b z b n V M B h z t t t r ; e j F.l.l.Z.q.7.7.U V B K W W Z N.x.N.x.l.l.Z.Y.B r ",
"H.b b b h b z l M z z z V B j M B b 0 l t t r ; j g p.p.p.p.p.p.p.p.l.p.[ l.l.p.p.[ Z k 7.7.7.w.h l ",
"Z.R b i h z v l b h z b j B M M B z 0 r t t r ; j j 1.x.l.p.l.p.p.p.p.Z p.Z x.p.p.p.p.l.p.x.p.n.g s ",
"Z.b b b f M f l z b z t n B M j B z 0 r t t r < g j <.p.7.p.l.q.,.1.z.1.l.>.n.p.l.p.p.Z n Z k l.f l ",
"A.b b b h b l l b b z t V M V V V b 9 r t t t < h h k h h b h n h V k n j V M k V n b h b j M U d l ",
"A.b b i b f z z z b z 0 n h B B j M 0 r t f 0 , f f h M M M M M M M M b b b b b b z z b z Q z b r d ",
"Z.n i b h h l l h b z z M M M M M n t r t t l - g g ,.k k k j k k k k k k k k k >.k Z Z Z >.k k 7 l ",
"A.R h i z b l l M b 0 z b b k M V n t 3 t t f - g g >.k k k k k k k k k k k k k k >.Z p.k k p.Z f d ",
"A.n b b f M z l h b 0 l f b V B h Z t r t t f - h f I.Z Z Z p.p.U p.p.p.p.n Z Z >.k k k k k Z n.f d ",
"A.b b b h M l l z z z z z M V B B n r r 0 t l - f 0 F L K K K W n K W K K U U U F U U U K K U n.7 r ",
"A.b h b z l z l h b 0 l M M j M B b r r t t d - 7 7 j k U Z K Z Z Z k B B B M M b M M b M b M M < s ",
"l.R b M f f l l h b z t V k M M Z b 8 r z t r , 8 8 h j Z Z l.G.p.p.Z 7.n n n j j Z j k [ n j j 7 s ",
"Z.b b b 0 f r z z b t z Z Z M M B h 9 r t t r - e e G.q.q.w.z.q.n j 7.n n p.>.l.l.z.w.q.[ [ [ G.q s ",
"l.n b b f f 9 l h b z b >.V M M Z b r r t t r - ] e G.l.l.p.Z j n Z l.l.l.,.n j j n b j 7.j 7.w.7 < ",
"l.V b b f d r z h b t z Z B M M Z z r r t t r , w w w.j j n n j ,.G.l.,.,.Z j V n j n j p.[ z.1.7 s ",
"J.V i b 9 9 9 r h z b h h b k B [ j 9 r 0 f 0 , e j +.] ] ] ] e X.:.*.*.1.3.w.*.@.-.) @.@.@.3.+.g d ",
"h 8 3 8 > < r r r 9 9 9 l < 0 d l < : : 1 1 < , t 0 j f h h f t t 0 0 0 0 i i w h 7 9 0 8 7 0 > % & ",
"h r 3 8 < 8 8 r r 8 9 9 0 < 0 0 0 3 & , : , < , f 0 h f t h w w i p 0 i 0 w w w 0 0 7 9 7 8 8 > & & ",
"H.H.Z.Z.W W H.H.U B.N.N.~ N.W W R R m m Q ! F.Q 4 4 5 s 5 5 y /.p a /.p 2 2 y y y 4 1 6 y s x x & , ",
"E.E.K.1.Y.4.<.,.1.1.1.1.1.5.1.5.5.1.3.Y.1.1.2.j , , < < 3 r b [ p e p e 0 0 8 0 b 8 < u a a i t ; q ",
"R.3.G.,.1.1.1.1.1.4.1.1.<.,.G.1.1.1.G.1.G.1.Y.e : : l 3 r < z 7.i p p p 0 9 t z t 0 3 y a t u a , h ",
"E.R.G.1.1.,.1.1.,.,.,.1.1.1.1.1.1.1.1.z.G.,.K.h : , r 3 s < b n i p p i 0 9 0 0 0 9 r y t t t a : f ",
"2.1.,.,.1.1.1.1.n.1.1.<.<.G.l.,.1.1.G.-.,.@.@.7 : : 3 l r < i p i p p i 0 8 r t r t u u t u t E 2 f ",
"W.Y.4.4.I.Y.Y.Y.Y.R.R.Y.I.I.I.I.I.Y.G.G.G.G.K.h : , l z 3 3 b p i i i i 0 9 0 t 0 r z E y u r E , < ",
"~.W.4.Y.W.Y.W.W.W.W.W.W.W.5.5.5.5.5.5.5.R.5.Q.,., : l d 3 3 i p i i i i 0 8 t t 0 r c E r t t a 2 t ",
"Q.Q.5.4.4.4.4.4.4.4.4.4.4.4.5.5.4.4.4.4.4.4.5.h - , 3 r 3 < i i i p i i 0 8 0 t 0 t b a t y u u 2 z ",
"Q.5.4.4.4.4.4.4.4.4.4.4.4.4.4.4.4.4.4.4.5.4.5.j 1 : r 3 3 3 i p p p i i 0 0 0 t 8 r t E t y y a 2 h ",
"Q.5.4.4.I.4.4.4.4.4.4.4.4.4.4.4.5.4.Y.5.5.5.W.h : : 3 < < 2 t p p i i i 0 8 t 0 t t t a y t t a 2 z ",
"Q.Q.4.4.5.5.5.5.5.5.5.R.5.R.4.5.5.5.4.5.4.4.Q.k : : 3 3 3 < i i i i i i i 8 t t r t z u a u u u 2 h ",
"W.Y.G.G.G.n.n.l.l.l.,.,.<.,.,.l.z.z.q.z.z.1.,.0 < < r 3 3 3 0 i e i p p 0 8 0 t 0 t c t i b t a 1 w ",
"W.G.[ >.l.l.>.>.,.p.k n >.n p.l.l.z.G.z.,.7.I.q > < r 3 3 < t p p i p p i 8 0 t 9 t c u i a y a 2 i ",
"R.z.l.[ p.l.@.l.z.1.1.1.l.l.,.,.@.1.K.3.G.,.<.g > , r 3 3 < 9 i i i p p 0 8 t t 0 t l t t a t a 2 n ",
"E.R.1.@.p.>.7.p.7.p.,.K.1.>.p.p.>.<.G.K.1.G.4.g , , d ; 3 > 0 i p i p p 0 8 t t 0 0 t y t u t a > e ",
"E.R.G.1.z.G.G.1.z.G.G.G.G.G.1.z.G.1.G.1.,.1.5.k , , d s 3 r 8 i p p p p t 9 0 0 r 0 t y u t t a 2 e ",
"K.@.k ,.,.,.,.,.:.@.@.@.[ ,.,.&.[ &.,.>.,.G.E.j , , d , y s 8 i p i p 6.0 9 t t 9 t t y t u u a > e ",
"R.l.k k k k k k x.x.F k k F k k F k I.I.I.Y.R.k , ; 7 s s 7 r p p i 8.p t 8 0 t 9 t t u u t t u 2 w ",
"!.R.U.U.L.F.U.F.R.Y.U.U.U.G.U.U.R.U.U.Y.R.Y.W.F , , d l l d 8 p p i p p 0 8 t 0 t 0 t a t t u u > w ",
"!.W.W.Y.K.F.Y.F.U.U.U.U.Y.R.U.R.F.R.Y.W.Y.Y.W.k , ; l l l r 8 p p i p p 0 9 i t t t t a t a t u 2 w ",
"!.R.F.z.G.K.G.K.F.G.K.G.G.K.G.G.K.F.G.G.G.G.Y.j , , l z z < 8 n p p p p 9 8 t 0 0 t t a t y u t 2 q ",
"~.R.G.G.G.K.G.G.K.F.G.K.G.Y.G.G.G.G.K.K.G.R.Y.g - , l z z > ; n e p p e 9 9 t 0 f 0 t u t u t u 2 q ",
"G.).^.^.~.~.~.~.^.~.~.~.~.~.~.~.~.~.~.~.~.~.~.Y.l l v L ! z h L.L.J.J.J.p b H.W U B.(.(.(.(.(.(.u Z.",
"  % % % % % % % % % % % % % % % $ % % % % % % $ . . + . + + . @ # $ # # # O O O # # # # + + + + o @ "
};
