/* XPM */
static char *result[] = {
/* columns rows colors chars-per-pixel */
"50 50 88 1 ",
"  c #663F22",
". c #965C32",
"X c #9B5E36",
"o c #955C39",
"O c #9A5E38",
"+ c #9D613B",
"@ c #A56236",
"# c #A36139",
"$ c #A8643B",
"% c #B16D3B",
"& c #AA6E47",
"* c #B46E40",
"= c #B86F45",
"- c #B57347",
"; c #BA7547",
": c #B5754C",
"> c #BB764C",
", c #B5784C",
"< c #BD7A4D",
"1 c #B67651",
"2 c #B97651",
"3 c #BC7C51",
"4 c #B37A59",
"5 c #BC7F59",
"6 c #B97761",
"7 c #CA7B46",
"8 c #C3774C",
"9 c #C47B4D",
"0 c #CB7C4D",
"q c #D27D45",
"w c #D27D4B",
"e c #DA7E4B",
"r c #C47D52",
"t c #CB7E53",
"y c #C47C5A",
"u c #CD7E58",
"i c #D47D52",
"p c #DA7E51",
"a c #D07F58",
"s c #BD805F",
"d c #C6804D",
"f c #CD814E",
"g c #D38047",
"h c #D3824D",
"j c #DC844D",
"k c #DD894E",
"l c #C58153",
"z c #CC8252",
"x c #C2815C",
"c c #CE8159",
"v c #CF8A5B",
"b c #D38352",
"n c #DC8551",
"m c #D68851",
"M c #DC8952",
"N c #D3825A",
"B c #DC8658",
"V c #D48858",
"C c #DB8C59",
"Z c #E3844E",
"A c #EA864D",
"S c #E58A4E",
"D c #EB8B4E",
"F c #F4864D",
"G c #F08E4E",
"H c #ED934F",
"J c #F2934F",
"K c #E48551",
"L c #EB8651",
"P c #E48A52",
"I c #EB8D52",
"U c #E38B59",
"Y c #ED8B5A",
"T c #F08E52",
"R c #F58F5E",
"E c #E69154",
"W c #ED9254",
"Q c #E99158",
"! c #F39453",
"~ c #FB9554",
"^ c #F59854",
"/ c #FD9B53",
"( c #F79959",
") c #FF9D5B",
"_ c #FAA05D",
"` c #D88762",
"' c #E38D60",
"] c #FFA661",
/* pixels */
"PkhhgjggggjgkjjjgggjhjSg-=888;;088089883<<>:<>><>0",
"CVcclldllzzzblzVVzds5l3-88bbhizttaiabbiabNNNbbNBt3",
"UBbbzhzlzmmzzmMkMEmztt3<gwLZZKKAZAAZKZZZZZZZZZZAqr",
"EmbbzzzldmzfzmmmMMmztll<qqKZZjZjjKejnZjZnZjZKZZAw3",
"UbbbbzzlfbbzzmmhmMftrzr8qeLZKKKeZZZKKZKZZZZjKZZZw3",
"QnbbzfzrzzzffmmmmMbttzr8eeLZZKKAZZpAjKZZZZZkZjZAw3",
"EmbizzzlfbbzzMmmkZbtttr>qqjeeeeZjZjZZkZZjZZZZZeAwr",
"UmbhbzzlzbbzhMmmMhdlttr;qqZjjhwnkbjBMmMUUPPIPUPIbl",
"UmbbzhzlzhbzbMjMMbdtttr-jjEPPPPMMMMMmMMMPPPPIUIWm3",
"Ubbbhmzlmzzznmmmmhztttr;gePkPPPKSPMPPPZPPMMkkKnZhl",
"UbbiffvlzhzzjmmmMfzrttt<jkDPPPPMPkMZPMPMMPPPPPSEfl",
"PnbbmfzlbbbtmkmmMz9r0tr;gjZSZPPSDPDPPPPPPPMMjkMSfl",
"UmbihbzlbbztjmmMmb9r0tt<hhkhbbhmMMkkjMmkmhbhbhMM0l",
"Ybbbbfzlzbz0mmkmmj0rttz:ffhmhmbMmfbbbbbbzbzVbccmll",
"UBhihhllhbzthmmMbntrztd-ggSkkkkkkkkkkkkkkZPkkkkk7z",
"EbbbzbzlbbfzbbMmMnt3ttz-ggSkkkkkkkkkkkkkkkMkkkkk7l",
"PBbhmfflfb0zfmmMmntrttf;fhPMPMPMPPMUZZPMkMZSMMZEhl",
"UbbbfmzlbbllzmMmkm8rttd-d0MBmCCmVmmmCCMMMMMCMMCD73",
"Qbbbzzzlhbzrfmmjkbrrt0l-77kkMMMMkkMhmhMbbbhmbmbb;s",
"YmmzffrlfbzzkMmmMbrrtzr-88hkMkIIPPMPkkMkkkkMknZj7s",
"PBbhffrzhbtzkMmmMfrrtt9,eeIKKLIKnnKnkZSKKIKKZKZIqs",
"UMbbfdrzzbzhMkmmMb3r0tr-jZLPPPnnnKPPPPnknnnjnkPP7<",
"Ynbbdf9lbbzzMMmmMhrlttr,wwKKjnjnZIPSPZjbjnjjZZII7s",
"Imzh999thtbhhbkZZhr90z0,jeAjZZZeAAAAGDFAZAKZZZAAgf",
"fr<<<<rr99999<9dd<:,,1<,00jffhhti0i0000wh090788>%&",
"h9<<<88rrrdrr<f9r1:-11<,f0jzb0htap00wii0w779078<&&",
"UUUYUCUUMPUUUUBBBVVmVCQV44545syBpa`p22yyy116y6xx&:",
"~~TDDDSSSDDHDJGGGT!DWDFj,,<3<9NZepee0000i3<yNbit-g",
"~GDSDDDSDHSSDPDDDIDIID!q,:s<s;fZippp00ttt0ryatta1g",
"~!DDDDDDSSDDHDDDDDPDDPIj:,939szkiipi0990r9yytaua,f",
"GDSDDDDDDDSDZSZSDDDAAZZ7::ll33ipipwi080trrztyttN1f",
"!IEHWEWWW^HWWEWEQQIIID!g:,llr<inipiit9tt0tzNtytN,<",
")^WH^^W^^^^^J^JJJJ!JJJ/k-:rz31bpiiii08tt0yVaytyi2t",
"//JHHHHHHHHHHHHJHHHHHH^j::393<ipppii000t80zaytta3z",
"/JHHWDHHHHHHHHHHHHHHHH^g1:r331ipppii08000ttbyuya2h",
"/JHHHHHHHHHHHHHHJHHHJHJj:,r<3<tpiiii08ttytzaytta20",
"//JJHJJJJJJJJJ!HJGJJHJ/Z::l3<1iieiii08ttrtzbatta2b",
"^!QPPIIPIPPSSSPSPPUIIPS7><r3330ipippi80t0tctibya1w",
"WIPZPPPPPZPnZPPPPILIPkSh,<r33<tipippi80t0ycyaata2h",
"!IZPSSPDPDDDPSSSSD!DISPg>>333<9piipp08tt80ltitua2n",
"~!DSPZPZPZSGDSKPZPDGIDHq,,l3338ippppt8t0t0yuyata2e",
"~!HSPIPDIIIIIIPSIDWDSDJk,-l3rr8ipppp090tt0tyttta>e",
"TZSSSSSSZZSSZZSSSZSPSDJk,<l1398piipKwr0trwtyttta2e",
"!PkkkkkkkEkMkkkkkMEQQW~k,:l3l9rppipK88tt8ttuuuta>w",
"(!WWYWWQWWWWW!IWWWW!W!^M,<rlld<ppipp08t0t0tcttua2w",
"(!!WWTWYWWYWWWWWWWWWWW^P,,ldl98ppipp09ittttNuttu>w",
"(!YIITITITITITTYTTTIIIWh,-llz<8peppp98z000tuutut>w",
")!WIITIIYIII!DIIIIIIT!!g-,lzz<>npppp99t00zttutyu2q",
"I]__))))_)))))))))())))IllvCClhTRYYYpbUBUUU'''''yI",
" %%%%%%%%%%%%%%%%%%%%%%$.X+.+++@@$###OOO###+++++o$"
};
