/* XPM */
static char *result[] = {
/* columns rows colors chars-per-pixel */
"50 50 210 2 ",
"   c #663F22",
".  c #724E0B",
"X  c #76520B",
"o  c #79560B",
"O  c #7C580B",
"+  c #6C490D",
"@  c #835D0B",
"#  c #85610A",
"$  c #8B6507",
"%  c #936B08",
"&  c #9B740A",
"*  c #9E7103",
"=  c #A57600",
"-  c #AC7D01",
";  c #A67D08",
":  c #9B5E36",
">  c #955C39",
",  c #9A5E38",
"<  c #965C32",
"1  c #9D613B",
"2  c #A56236",
"3  c #A36139",
"4  c #A8643B",
"5  c #B16D3B",
"6  c #CC7D38",
"7  c #AA6E47",
"8  c #B86F45",
"9  c #B46E40",
"0  c #BA7547",
"q  c #B5764B",
"w  c #BB754C",
"e  c #B6784B",
"r  c #BE7A4C",
"t  c #B97651",
"y  c #BD7E53",
"u  c #BD7F58",
"i  c #B67550",
"p  c #CB7D46",
"a  c #C3774C",
"s  c #C37B4D",
"d  c #CC7C4E",
"f  c #C37D44",
"g  c #D27D45",
"h  c #D37D4A",
"j  c #DA7E4A",
"k  c #C47E53",
"l  c #CB7E54",
"z  c #C67B59",
"x  c #CD7E58",
"c  c #D37E53",
"v  c #DA7E51",
"b  c #D07F58",
"n  c #AF8609",
"m  c #B38402",
"M  c #B78A05",
"N  c #BB8B0B",
"B  c #BA8707",
"V  c #BE9105",
"C  c #BD9209",
"Z  c #C38F0E",
"A  c #C19405",
"S  c #C69A05",
"D  c #CA9E04",
"F  c #C59A09",
"G  c #C99E09",
"H  c #C4930A",
"J  c #C08D11",
"K  c #CE9616",
"L  c #D49E1B",
"P  c #CEA206",
"I  c #CEA40D",
"U  c #D1A507",
"Y  c #D5A907",
"T  c #DBAD05",
"R  c #D2A608",
"E  c #D6A908",
"W  c #DAAD09",
"Q  c #DEB10A",
"!  c #CFA71A",
"~  c #CCA414",
"^  c #D7AE14",
"/  c #D3AD1C",
"(  c #D8AB12",
")  c #E1AD0F",
"_  c #E4B404",
"`  c #E2B50B",
"'  c #E6B90D",
"]  c #EABD0D",
"[  c #E5B914",
"{  c #EABD11",
"}  c #E7B716",
"|  c #CA8725",
" . c #D99A26",
".. c #CB8B3B",
"X. c #CB8C36",
"o. c #D68937",
"O. c #DD9237",
"+. c #D7973E",
"@. c #E29B2C",
"#. c #E5973D",
"$. c #E49B38",
"%. c #DDA522",
"&. c #D2AB29",
"*. c #D5B229",
"=. c #DCA13D",
"-. c #D7B635",
";. c #E2A62F",
":. c #E4AB29",
">. c #E8B623",
",. c #E5B725",
"<. c #E2AC39",
"1. c #E6BD34",
"2. c #E8BC3A",
"3. c #EEC00E",
"4. c #F0C10C",
"5. c #ECC11B",
"6. c #F0C110",
"7. c #EBC325",
"8. c #EAC42C",
"9. c #E9C433",
"0. c #E8C63C",
"q. c #EBC836",
"w. c #BD805F",
"e. c #CB8446",
"r. c #CE8942",
"t. c #C6804D",
"y. c #CD824D",
"u. c #CD8A4A",
"i. c #D38146",
"p. c #D4824C",
"a. c #DC844D",
"s. c #D38A4C",
"d. c #DD8A4E",
"f. c #D68C46",
"g. c #CF9644",
"h. c #D69F43",
"j. c #DD934A",
"k. c #D79247",
"l. c #C58153",
"z. c #CC8252",
"x. c #C2815C",
"c. c #CE8159",
"v. c #CF8A5B",
"b. c #CC8C54",
"n. c #D38352",
"m. c #DB8452",
"M. c #D68851",
"N. c #DD8A51",
"B. c #D28159",
"V. c #DC8C5A",
"C. c #DD8758",
"Z. c #D99156",
"A. c #D89359",
"S. c #CC995B",
"D. c #E3844E",
"F. c #EA864D",
"G. c #E5894D",
"H. c #EA8C4E",
"J. c #E58F44",
"K. c #F38C4F",
"L. c #E39F44",
"P. c #E0954A",
"I. c #EB924C",
"U. c #E89745",
"Y. c #F2934E",
"T. c #E38550",
"R. c #EB8651",
"E. c #E38B52",
"W. c #EC8D52",
"Q. c #E38B5B",
"!. c #ED8B5A",
"~. c #F18F52",
"^. c #F58F5E",
"/. c #E49154",
"(. c #ED9255",
"). c #F49454",
"_. c #FB9554",
"`. c #FD9C54",
"'. c #F79959",
"]. c #FF9D5B",
"[. c #F59854",
"{. c #D9A247",
"}. c #D9BB40",
"|. c #DFB85C",
" X c #E3A748",
".X c #E3B844",
"XX c #E0A550",
"oX c #FAA05D",
"OX c #E7BD57",
"+X c #D88762",
"@X c #E38D60",
"#X c #DFA863",
"$X c #DEB760",
"%X c #FFA661",
"&X c #E4B768",
"*X c #E2AA65",
"=X c #E7C743",
"-X c #E8C743",
";X c #E7C74A",
":X c #E9CA4B",
">X c #EACA45",
",X c #E7CC5D",
"<X c #E9CB53",
"1X c #E6CD6C",
"2X c #E4C662",
"3X c #E3C273",
"4X c #E5D174",
"5X c #E4D17A",
"6X c #E4CC80",
"7X c #E5D282",
/* pixels */
"E.a.s.p.p.i.i.i.p.i.p.p.a.a.a.a.i.p.p.i.i.i.H.g 0 9 a a a 0 0 d a a d d a w s w y w w q a t w a w z.",
"V.v.c.c.l.l.t.c.l.c.z.y.z.z.b.n.n.z.z.x.u l.u q f a n.n.h B.z.l x c c l B.n.n.B.m.B.B.B.c n.M.B.d u ",
"/.m.n.n.z.p.z.k y.s.z.z.z.M.N.N.N.Q.M.z.l l w.0 h h R.D.D.T.F.D.D.F.F.D.D.D.D.D.D.T.D.D.D.a.D.F.p k ",
"/.C.n.n.z.z.z.l.z.z.M.d y.M.M.M.M.N.n.z.k z.t.r h h T.D.D.a.a.D.D.v a.D.D.a.D.a.a.a.a.D.D.D.T.F.h u ",
"Q.M.n.n.z.y.l l.y.n.z.z.n.M.M.M.s.E.y.l k z.k a h j R.D.T.T.T.v D.D.T.D.T.D.D.D.T.D.a.D.D.a.D.F.h y ",
"Q.m.p.n.z.n.z.k z.z.M.y.l s.M.M.M.N.y.l l l k a j j R.T.D.T.T.F.D.D.v D.D.T.T.D.D.D.D.D.D.D.T.F.h y ",
"/.m.n.c z.z.z.l.z.n.n.z.y.N.N.M.M.N.p.l.d l k 0 g g i.a.a.j j D.a.D.D.D.D.a.a.D.a.D.D.D.a.D.D.F.h y ",
"Q.M.n.p.l y.z.l.z.p.n.z.d N.M.M.N.a.l l l l k 0 g g T.j a.j p.a.d.n.a.M.M.V.V.E.E.Q.(.E.E.E.T./.p.k ",
"/.M.n.n.y.n.z.l.z.n.z.z.n.M.M.M.a.y.y.k d l k q i.a.(.E.E.Q.G.T.N.M.N.M.M.N.N.N.N./.N.E.E.Q.E.W.M.k ",
"Q.n.n.n.n.z.z.l.p.n.z.z.d.k.f.>.>.f.s.u.y.l k q a.j T.T.N.T.T.E.E.T.E.E.T.E.T.N.E.T.N.d.D.T.T.W.p.l.",
"Q.m.n.c n.p.b.l.z.j p.s.:.5.5.} 5.} 5.5.>.+.r...f.a.E.G.N.G.N.G.G.N.N.T.T.E.N.E.N.G.E.E.E.E.G.E.i.w.",
"Q.n.p.n.z.p.z.l.s.f.-.7.7.7.7.7.7.7.7.7.5.7.7.7.>.J.<.Q.T.E.E.E.E.G.W.G.E.E.E.G.E.E.T.M.d.d.N.E.y.l.",
"Q.n.m.c p.z.z.l.=.7.,.7.7.7.7.7.8.7.7.7.7.,.8.7.7.7.=X#XM.p.n.M.M.m.T.N.m.M.a.M.s.p.n.p.p.M.M.N.d l.",
"Q.M.n.n.p.n.t.h.8.8.8.8.8.8.7.8.8.8.7.8.7.7.8.8.7.7.2X6X*XA.Z.Z.Z.M.n.M.n.M.z.M.c.n.B.n.z.B.c n.s l.",
"/.M.n.p.z.p.h.9.8.9.8.8.8.9.8.9.8.9.8.9.9.9.8.9.9.7.:X4X5X3X3X3X&X.XP.P.j.d.d.d.d.G.N.d.d.N.d.d.e.z.",
"Q.a.n.c n.{.9.9.9.9.9.9.9.9.9.8.8.8.8.9.9.9.9.9.9.9.9.:X1X1X4X2X-X9.2.2.<.P.j.d.d.d.N.d.d.N.d.d.p l.",
"Q.m.n.p.{.0.0.0.>X0.>X0.0.0.0.>X:X<X;X0.q.q.q.0.9.0.q.9.0.0.0.0.9.9.q.q.0.2.2. XL.L.d.d.T.N.d.E.y.t.",
"Q.M.n.$.8.8.8.8.7.8.7.8.8.7.,X4X5X5X4X,X-X-X=X=X=X=X>X-X0.0.0.=X>X>X-X-X-X-X>X>X=X=X.XXXXXE.V.I.p y ",
"Q.a.M.4.6.6.3.6.6.6.4.4.4.4.<X5X7X7X7X<X7.7.7.8.7.7.7.7.7.7.8.7.7.7.7.7.7.7.7.7.7.7.7.7.7.:.;.n.r r ",
"(.n.s.6.6.6.3.3.4.4.4.4.4.4.6.9.>X>Xq.5.4.4.4.4.3.4.4.4.4.4.4.4.4.4.4.4.4.4.4.4.4.4.4.4.{ 4.4.D.p w.",
"Q.M.n.{ 3.3.3.3.4.3.3.3.6.3.3.3.3.3.3.3.3.3.3.3.{ 4.] ] 3.6.] 3.{ 4.] 4.3.3.3.4.6.4.3.3.3.3.{ W.h w.",
"Q.M.m.] 3.3.' 3.3.3.] ] ] ] ] ] ] ] ] ] ] ] ] ] ] ] ] ] ] 4.4.] 4.{ ] ] ] ] ] ] ] ] ] ] ] ] ' E.d r ",
"!.n.n.] ' ' ] ' 3.' ] ' ' ] ] ' ] ] ] ] ] ] ] ] ] ] ] ] ] } Q Q ) ` ' ] ] ] ] ] ] ] ] ' ] 5.U.W.p w.",
"W.a.d :.%.%.} ' ' { ' ' ' { ' ' ' ' ' ' ' ' ' ' ] ] ] ] ` Z - K o. .] ] ' ' } ` ] } _ ] -XOXH.F.g t.",
"p.k r r r s ..) ' ' ' ' ' ] ] ] ' ` ' ` ' ' ' ` ` ` ] ` m m | d d h  .] ` ` ` ] ' _ [ ;X|.p s a 7 7 ",
"y.s s a r r t.{.[ _ ` ` ` G C G ` ' ` ` ` ` ` ` ` ` ` D = J o.c c c i.W ` ` ` ` ` T 8.|.y.a p 0 7 7 ",
"Q.Q.Q.Q.C.C.V.&X,.T ` ' N # O O ; W ` ` ` ` ` ` ` ` ` A = N +.+XC.b M.R ` ` ` ` ` ` ` S.u w.x.w.7 e ",
"_._.K.H.W.W.J.;.Q _ ` T % X o o o n ' Q Q Q Q ` ` ` Q A = n K a.v v 6 D ` ` ` W Q Q T .Xk.B.c c.0 g ",
"_.H.H.G.H.U.@.T Q Q ` D * @ o o o ; ` Q Q W W W Q ) ` E m = B | p 6 N T Q Q W Q Q W Q Q Q r.c.x t i.",
"_.).W.H.@.W W T W W ` D m * $ @ $ A Q W W W W Q T W E Q U m - - - m U W W W W W T Q W W Q e.x x q y.",
"K.H.G.J.W W T W W W W E A - - - V Y W W W W W W W W W W W E F A F Y Q W W Y W W W W W Y W e.x B.t t.",
").W.W.I.%.^ ^ Y Y E E T Y A A A R W Y Y Y Y Y Y W Y E E E E W W W W Y Y Y Y W Y U W Y E L y.k c.r r ",
"oX[.I.(.U./ *.E E E Y Y Y W W W W U W Y W S & & V Y U W Y Y Y Y Y Y Y Y Y Y P & % V Y Y ..l.x c.t z.",
"`.`.Y.Y.#.U E E U U U U R R R R U U U U Y M X . n W U P U U U Y U U R R Y Y C o + n Y Y X.l.x x t l ",
"`.[.I.I.#.U U U U U U U U U P R U U U P U S n - S U U P U U P P U R R R Y P V n n C P P ..k x x t n.",
"`.Y.I.I.#.P P U U U D U P I P P P P P P P P D P U P U P P P P P P P P P P P P P P P P P X.l x x t p.",
"`.`.Y.Y.U.I D P P P D I *.-.~ D P P P P P P P P P P P P P S P P P P P P P P P P P D D G e.x x c.i n.",
"[.).Q.W.H.#.D D D D D P -.}.~ / I P S S D D D G P P P S S P S P S P P P P V S P D ! &.r.n.c l c.i p.",
").E.T.T.T.O.S S S S S D ~ ~ G &.~ S S P S S D D S S S P S P S S P P V P P P S S H g.b.x c c l x t p.",
").W.E.D.E.O.S S S S S S S S S G S S S S S S S S S S S S S S S S V S P V V S S S Z y.k x l l x x i m.",
"_.).W.G.a.O.S S S S A S F S A F S F A S S H S A C S F S F F S H o.h i.a.p f e.e.p d k z x l x c t j ",
"_.).W.G.W.W.E.W.E.W.W.W.W.E.H.W.H.W.W.W.H.H.Y.f.e q l.t y s a v j v v v d s l d s d k z x l x c.t j ",
"~.D.G.D.D.G.G.G.G.D.G.G.D.G.D.G.G.G.G.G.G.H.[.a.e e t.y y s a c v c T.v d s d l k d x z x l l c.t j ",
").E.d.d.d.d.d.N.G.N.T.N.d.N.d.d.N.N././.(.(.[.d.e e t.w.l.r a v v c v v l a l d l d l x l l l x t h ",
"'.).).(.(.W.(.!.(.(.(.(.(.(.(.W.(.(.(.(.(.(._.N.e e l.l.z.w.f v v j v v d a l l s y.l B.l x l x w h ",
"'.[.(.(.).!./.(.(.!.(.(.(.(.(.(.(.).(.).).(.[.d.e e l.l.l.r s v v c v v d s l d l d l c.l c x x t h ",
"'.(.(.W.~.W.~.W.W.W.~.W.W.W.W.~.~.W.W.W.W.W.(.i.q e l.z.z.r a v v v v v d a d l d d l l k x l x w h ",
"oX).W.W.W.W.W.W.W.~.W.W.~.(.W.W.H.(.W.~.W.~.(.s.0 e l.l.z.w w m.c v v v s s l d d z.l x x l x l w h ",
"W.%XoXoXoX`.oX].oX].].].].].].].].].].].].].].(.l.l.v.Z.Z.z.a.^.!.!.!.!.m.n.Q.C.Q.Q.Q.@X@X@X@X@Xx E.",
"  5 5 5 5 5 5 5 5 5 5 5 5 5 5 5 4 5 5 5 5 5 5 4 < < 1 < , > , 4 2 4 3 2 , , 1 , 3 3 3 1 1 1 1 1 > 2 "
};
