/* XPM */
static char *result[] = {
/* columns rows colors chars-per-pixel */
"50 50 228 2 ",
"   c #020201",
".  c #0A0606",
"X  c #131313",
"o  c #1A1B1B",
"O  c #160906",
"+  c #23170E",
"@  c #271B12",
"#  c #36261A",
"$  c #272A11",
"%  c #1E2124",
"&  c #2B2521",
"*  c #272829",
"=  c #382C26",
"-  c #3D322B",
";  c #37302C",
":  c #2E3235",
">  c #323435",
",  c #3A3C3D",
"<  c #363738",
"1  c #2C3429",
"2  c #442B1B",
"3  c #482D1A",
"4  c #4C311E",
"5  c #5B391E",
"6  c #452D20",
"7  c #473528",
"8  c #523523",
"9  c #593A27",
"0  c #433B35",
"q  c #4B3D36",
"w  c #5A3F39",
"e  c #643D25",
"r  c #602226",
"t  c #344B1E",
"y  c #46423D",
"u  c #55443A",
"i  c #50512C",
"p  c #6A432A",
"a  c #66422C",
"s  c #754A2D",
"d  c #7B4B2D",
"f  c #784F32",
"g  c #7D5133",
"h  c #684E3F",
"j  c #3E4143",
"k  c #434444",
"l  c #424649",
"z  c #44494B",
"x  c #4B4644",
"c  c #574D46",
"v  c #5D514B",
"b  c #474E52",
"n  c #4D5254",
"m  c #4F5558",
"M  c #535455",
"N  c #515659",
"B  c #555A5D",
"V  c #5A5B5C",
"C  c #585757",
"Z  c #4A5948",
"A  c #624E42",
"S  c #645C59",
"D  c #69615C",
"F  c #746B55",
"G  c #595E61",
"H  c #555C66",
"J  c #5B6165",
"K  c #5E656A",
"L  c #636364",
"P  c #61676A",
"I  c #646A6D",
"U  c #6C6B6B",
"Y  c #696865",
"T  c #726C66",
"R  c #666D71",
"E  c #6A6F72",
"W  c #6C7275",
"Q  c #6E7579",
"!  c #757676",
"~  c #72797D",
"^  c #787A7B",
"/  c #82131A",
"(  c #814E2E",
")  c #8B5534",
"_  c #885636",
"`  c #955C3A",
"'  c #985C36",
"]  c #8E562D",
"[  c #9D613B",
"{  c #94613E",
"}  c #A3613A",
"|  c #A9633B",
" . c #A9673B",
".. c #B26C3B",
"X. c #B86E3F",
"o. c #BE703F",
"O. c #995F41",
"+. c #886A4D",
"@. c #AB6B44",
"#. c #A56743",
"$. c #B26D43",
"%. c #B96F46",
"&. c #BD7445",
"*. c #B5754B",
"=. c #BB754D",
"-. c #B4784C",
";. c #BE794D",
":. c #B97651",
">. c #BE7E53",
",. c #B87B57",
"<. c #AB744A",
"1. c #8D716D",
"2. c #A2756A",
"3. c #CC7C46",
"4. c #C2774B",
"5. c #C47B4D",
"6. c #CB7C4D",
"7. c #C37544",
"8. c #D27D4A",
"9. c #D97E4A",
"0. c #D17D45",
"q. c #C47E53",
"w. c #CB7E54",
"e. c #CD7E58",
"r. c #C57B5A",
"t. c #D07F55",
"y. c #D87E50",
"u. c #D07F58",
"i. c #C06F43",
"p. c #9E975C",
"a. c #958B70",
"s. c #B1857B",
"d. c #CD824D",
"f. c #C6804D",
"g. c #D4824C",
"h. c #DC844D",
"j. c #DE8A4F",
"k. c #D58348",
"l. c #C58153",
"z. c #CD8252",
"x. c #CE8159",
"c. c #CC885A",
"v. c #D38352",
"b. c #DB8551",
"n. c #D68852",
"m. c #DC8A52",
"M. c #D38259",
"N. c #DC8C5A",
"B. c #DA8758",
"V. c #E3844E",
"C. c #EA864D",
"Z. c #E58A4E",
"A. c #EA8B4E",
"S. c #F08E4E",
"D. c #F4864D",
"F. c #ED934F",
"G. c #F1934F",
"H. c #E68651",
"J. c #E48B52",
"K. c #EB8D52",
"L. c #E38B59",
"P. c #EC8956",
"I. c #F28F54",
"U. c #E79155",
"Y. c #ED9254",
"T. c #E99158",
"R. c #F39453",
"E. c #FD9C54",
"W. c #F79959",
"Q. c #FF9D5B",
"!. c #F89754",
"~. c #FAA05D",
"^. c #E38D60",
"/. c #FFA661",
"(. c #DFD57F",
"). c #767E82",
"_. c #787D81",
"`. c #7B8285",
"'. c #7D858A",
"]. c #7E8A93",
"[. c #82898D",
"{. c #8B8B8C",
"}. c #848484",
"|. c #848D92",
" X c #8B8F93",
".X c #889297",
"XX c #8D969B",
"oX c #8F989D",
"OX c #869195",
"+X c #949494",
"@X c #91999E",
"#X c #9B9B9C",
"$X c #979797",
"%X c #9A9A8B",
"&X c #A79190",
"*X c #949DA2",
"=X c #8D98A1",
"-X c #97A0A6",
";X c #98A2A7",
":X c #9AA4A9",
">X c #9EA8AE",
",X c #A3A3A3",
"<X c #ACACAC",
"1X c #A6A8A9",
"2X c #B5B5B5",
"3X c #BBBCBC",
"4X c #B7B7B8",
"5X c #A6AEB2",
"6X c #C2BDBD",
"7X c #FBB9A9",
"8X c #DCA798",
"9X c #FFC5B6",
"0X c #F8EE8E",
"qX c #C3C3C4",
"wX c #CBCCCC",
"eX c #C9C8C7",
"rX c #CDCED1",
"tX c #CFD0D2",
"yX c #D3D3D4",
"uX c #DBDBDC",
"iX c #D6D7D9",
"pX c #E1DFDF",
"aX c #DFE0E2",
"sX c #E3E3E3",
"dX c #ECECEC",
"fX c #E7E8E8",
"gX c #F4F4F4",
"hX c #FEFEFE",
/* pixels */
"J.h.g.g.k.k.k.k.k.k.k.k.h.h.h.k.h.k.k.k.k.k.A.0.&.%.4.4.7.&.&.5.4.4.6.6.4.;.q.;.;.:.;.*.;.;.=.=.=.6.",
"N.c.x.c.l.q.5.w.l.z.z.z.z.l.c.z.v.d.l.l.>.l.>.*.;.;.b.v.t.t.v.e.t.t.t.t.v.u.y.u.u.v.M.M.v.t.v.B.w.>.",
"T.b.v.v.d.d.z.l.z.n.z.z.z.n.m.j.j.U.n.x.q.w.l.&.0.8.P.V.V.V.V.C.C.V.C.V.V.V.V.V.V.V.V.V.V.V.V.C.3.>.",
"T.n.v.v.v.z.z.l.z.z.g.z.d.n.n.` 4 m.v.x.q.x.q.;.8.0.C.h.V.V.b.h.V.y.b.9.V.h.V.h.h.h.V.V.V.V.V.C.8.q.",
"L.b.8.v.z.d.z.q.z.v.z.d.d.n.n.3 # J.z.w.q.z.q.;.9.9.D.y.H.H.3.} | V.V.H.H.V.V.V.H.V.h.h.V.V.h.C.8.>.",
"T.b.v.v.z.z.z.q.z.d.n.d.d.n.f.y 0 d.g.5.w.z.q.4.9.9.P.i.) 8 = .   i.V.V.h.V.V.V.V.h.H.h.V.b.V.C.8.>.",
"L.n.y.v.z.d.z.l.z.v.v.z.d.m. .G ~ p d.z.w.w.q.=.0.0.s > z U v 2 | 9.V.V.V.h.V.V.h.H.V.H.y.y.V.C.8.q.",
"L.n.v.v.z.z.z.l.z.g.v.z.d.m.s W :Xj @ + @ p *.&.o.8 H ).2.8X9 6.n.g.n.B.m.n.m.L.J.J.J.K.K.K.J.K.v.q.",
"L.n.v.v.v.d.z.l.z.z.v.z.g.m.f `.>XW & @ X z ; _ 2 Q ).s.7X&X} 9.m.B.m.n.b.` s @.g.g.g.g.h.J.K.Y.h.l.",
"U.v.v.v.d.v.z.l.n.g.z.z.h.n.f `.H l j B Q Q [.o R '.s.7X9X1.7.C.g. .s ( 2 C x & 0 - = ; = p 6.Z.g.l.",
"J.B.v.t.d.v.z.l.z.v.z.w.h.n.g G I B m |.;X*X*X).|.1.7X7XuX+.e e & k J , ^ hXdXM '.*XOX@X).% 9 Z.f.l.",
"J.v.v.g.n.d.z.l.v.v.4.6.h.n.f.y ~ n *X*X@X'.E |.).2.w s.8X= , ! *X>XW +XhXhXhX2X~ *XoX*X|.* s Z.d.l.",
"L.n.&.@.v.g.c.l.d.$.2 # ' n.g.3 z '.*XXX*XE l '.|.D : w A ! :X*XXXR }.gXhXhXhXuXn |.oXoX-X> _ m.5.l.",
"L.#.q S 9 5.z.z.d.@ X J M p p   * @XoX*X|.* o Q *X=Xm l $X_.n V ^ #XhXhXhXhXhXuXW oXoX;XoX# #.v.l.l.",
"@.M dXhX1X8 ;._ 6 k ~ -X;XI * - & ).*X@Xx y  X@X*X_.j *X_.! qXgXhXhXhXhXhXhXhXqXK :X;XoXn _ j.Z.3.l.",
"` {.hXhXhX^ @ , '.-X-XXX@X;XOXa.p.H oXR p.a.].=X*XB I XXE gXhXeX+XqXhXhXhXhXgXM % > , & d k.m.j.3.l.",
"B.9 ! {.wXgXJ `.:X@X*X:X*X*X>XZ t , K i 0XS B XX:XH `.].{.gX{.> * #XgXhXhXhX^ X 4 [  .7.m.j.j.J.k.l.",
"#._ 6 X , fXdXY ).*X).B '.).W : $ F % t 0Xc ].;X'.< ).-XW C N N eXhXhXsXhXdX0 [ J.m.m.m.m.m.m.J.3.;.",
"U wXsXdX3XuXhXtXz & 9 9 # X k : 1 T , i p.l 5X).U I n -XoXJ G U hXhX6X7 %XhX#X_ n.n.n.n.n.v.v.v.;.l.",
"fXhXgXfXhXhXhXfX2Xx @.w.- '.Q M X   J %XL z l o eX1X< K '.$XeX#XhXhXk d 1.hX,Xd h.h.h.m.m.h.h.h.;.l.",
"{.eX4XrXuXhXyX{.gXgXA ) B |.J <Xy o 2XhX2Xj   > gXL J J b 1XpXY 4X XJ & {.hXC ..H.P.H.H.H.V.H.K.6.l.",
"# qXfX}.q V +XiXhXhXA @.# + . 3XwXwXhX3X~ . . 1.uXz [.`. Xn B W U E >X`.C S 9 b.h.b.b.g.m.h...} ..*.",
"_ M q s 4.4 4XhXgX^ p z.g.d.p u i x {.m   . r 6XB I ).1XaX2XI .X*X*XXX:XP # 9.b.h.b.h.h.&.8 U +X, @ ",
"K.[ 4.d.q.} ; L y e v.g.g.n.j.g.h.[ U a.  / 1.U : n z $XiXiX4XP XX@XXX@X*Xk ..C.V.V.H.0.u wXhX2X8 g ",
"g.4.;.;.;.;.@._ *.;.5.5.5.;.f.6.5.=.v ! . &X}.+ . 1 ,X1XrXwXuX*XE *XXXoX*X[.# 3.g.6.6.e {.gXuX= #.<.",
"d.q.>.4.;.;.4.q.f.5.5.5.f.;.6.6.z.$.0 ,X3X5Xa <.) e v yXtXwXwXrXW |.XX=XoX*Xk ) 6.6.&.& C $XU _ <.@.",
"L.L.L.L.L.N.L.L.L.L.L.L.N.L.B.B.M.M.g S U 9 K.B.,.,.+.T uXwXwXiX#X~ :XXXXX*X_.# r.-.a H oXG # r.@.-.",
"E.!.D.S.A.A.J.Z.Z.A.A.A.A.G.S.S.G.G.S.3.X.Z.D.9.-.-.*.@  XiXwXwXqX~ `.G [.=X*X0 s 8 , =X1XK _ u.*.3.",
"!.G.A.Z.A.A.A.Z.F.A.A.A.A.Z.K.A.A.A.K.A.A.A.S.9.f # = & <XtXwXyXyXV M [.*XXX*XC N Q *X*X*X, @.t.:.g.",
"!.R.A.A.C.A.A.A.A.Z.Z.A.A.A.A.A.K.A.C.K.P.V.&.# : ).).! uXwXtXwXE R =X*XXXoX*XI ).>XoXoX|.7 r.t.-.g.",
"D.A.Z.Z.A.A.A.A.Z.Z.Z.Z.Z.Z.Z.Z.A.K.K.C.H.%.& _.*X>XE +XiXtXwXG W *XoXXXXXXX*XQ R *XXX:XN ` e.x.:.f.",
"R.Y.U.F.Y.Y.Y.Y.R.R.R.R.U.U.U.U.U.U.K.K.6.7 [.*X=X*XP *XiXiXW E *XoXoXoXXXoX*X~ I *X*X.X= r.w.M.-.;.",
"E.!.Y.Y.R.R.R.R.R.W.W.G.W.G.G.E.R.G.G.F.2 `.;XXXXX-XK $XaX$XK -XXXXXXXXXXXXX*XQ P :X*X, O.r.w.u.:.w.",
"E.E.G.F.F.Y.F.F.G.G.F.F.F.G.G.F.G.F.F.j.X `.-XXXXX-XW }.qXj .X*XXXXXoXoX@XXX:XG Q >Xb 8 w.w.w.e.:.z.",
"E.G.F.F.F.F.F.F.F.F.F.F.F.F.F.F.F.F.F.Z.2 < -XoXXXoX[.G qX> Q -XXXXXoX'.|.:X|., '.l 8 w.w.r.w.e.:.v.",
"E.G.F.F.F.F.F.F.F.F.F.F.F.F.F.F.G.F.F.F.F.5 z -X*XXX-XJ ,X{.M *XXXXX-X`.G XX< X = s e.v.w.w.e.u.:.d.",
"E.E.F.G.Y.G.G.G.G.G.G.G.G.G.G.G.G.G.k.' o.h.] , XX@X@X.XB 3X{.`.-XXXoX;XK o e #.4.w.z.x.e.e.w.e.:.v.",
"!.G.K.J.A.U.J.J.J.Z.K.J.Z.Z.Z.Z.J.' D T y c F 0 n [.*XOXB l ^ G -XoXXX*X|.= 5.w.5.w.x.w.e.v.w.u.:.8.",
"R.J.J.J.Z.J.J.J.J.Z.m.h.Z.m.U.j...L eX2X6XgXhXhXrXE j C ! 2X#XX m ;X@X@X>Xj @.w.5.w.x.w.t.t.w.e.:.v.",
"R.K.Z.V.J.Z.V.K.K.K.A.A.J.Z.Z.Z...S 6XdX3X,XaXhXhXfX#X<XsXyX,X< 1 I '..XW B 8 ;.w.6.w.w.w.e.e.e.:.b.",
"!.!.F.Z.Z.J.V.H.V.m.Z.A.A.J.Z.H.g.v hX3X<XsXgXhXhXgX<X2X,X$X4XsXdXeX#XE L yX2X7 =.6.q.r.t.w.t.t.:.9.",
"I.R.K.Z.J.K.J.A.K.K.K.K.K.K.J.Z.Z.f #X1XhXhXhXhXhX,X<X,X<XhXhXhXhXhXgXsXfXhXhXC ` 6.w.r.e.w.e.e.=.9.",
"D.A.j.Z.Z.Z.Z.Z.V.V.Z.V.V.Z.Z.V.Z.h.p }.hXgXqXqX2X#XqX,XwX<XdXhXhXhXhXhXhXhX2X8 q.6.e.r.w.w.w.e.:.9.",
"R.J.j.j.h.h.m.m.j.J.Z.m.j.j.j.j.m.j.j.9 c c s 4 4 - +XhX#XyXhXhXhXhXhXhXdX+X= $.w.6.w.w.w.e.e.t.:.8.",
"W.R.R.Y.I.Y.T.Y.T.Y.Y.T.Y.Y.Y.Y.Y.R.Y.R.3.k.R.j.-.[ S eXeXhXhXhXhXsXqX`.q 9 4.w.q.d.e.x.e.w.w.v.:.8.",
"W.W.Y.Y.Y.I.T.K.I.I.T.R.Y.Y.I.Y.Y.Y.Y.Y.Y.Y.!.j.-.-.{ - 1XgXuX^ x 7 8 ) %.5.t.6.w.6.w.e.w.w.e.e.=.8.",
"W.Y.K.K.K.K.K.I.K.I.K.K.K.S.K.K.K.I.K.K.U.K.Y.h.&.-.l.<.- T ; e ' i.y.y.5.4.w.6.6.6.w.e.w.w.w.w.=.8.",
"~.R.K.K.S.K.K.K.K.K.K.I.K.Y.K.K.K.K.I.S.K.R.Y.k.*.-.l.z.z.;.=.b.y.y.y.y.5.5.t.6.6.w.w.w.e.e.w.e.=.0.",
"K./.E.E.Q./.Q.Q.Q.Q.Q.Q.Q.Q.Q.Q.Q.Q.Q.Q.E.Q.Q.Y.l.l.c.n.N.d.k.R.P.P.P.P.y.y.^.B.B.L.L.^.^.^.^.^.e.J.",
"a X............................. .......X...X. .' ' ' { [ { [  .| #.} } #.` } ' } } } #.[ [ } ` ` | "
};
