/* XPM */
static char *result[] = {
/* columns rows colors chars-per-pixel */
"50 50 211 2 ",
"   c #0B0A08",
".  c #19120E",
"X  c #191A1A",
"o  c #120B07",
"O  c #221A15",
"+  c #271B15",
"@  c #2B1A10",
"#  c #28221D",
"$  c #342215",
"%  c #3A2315",
"&  c #34241C",
"*  c #3A281C",
"=  c #2D2623",
"-  c #2B2D2D",
";  c #252727",
":  c #352B24",
">  c #342E2B",
",  c #3B2E25",
"<  c #3B312B",
"1  c #3D3027",
"2  c #2D2F31",
"3  c #2F3132",
"4  c #343435",
"5  c #3B3D3E",
"6  c #3A3736",
"7  c #492C1C",
"8  c #452B1B",
"9  c #4C311F",
"0  c #54331F",
"q  c #462F23",
"w  c #43342B",
"e  c #493426",
"r  c #5A3723",
"t  c #553825",
"y  c #5C3A24",
"u  c #563A29",
"i  c #443B35",
"p  c #633D24",
"a  c #673F28",
"s  c #4B423B",
"d  c #56463B",
"f  c #6C4127",
"g  c #66422C",
"h  c #6D452C",
"j  c #664126",
"k  c #7E4D2E",
"l  c #73472A",
"z  c #754B31",
"x  c #794C31",
"c  c #7F5031",
"v  c #644937",
"b  c #3E4244",
"n  c #434749",
"m  c #464A4C",
"M  c #494B4C",
"N  c #474645",
"B  c #584F4A",
"V  c #4A4E51",
"C  c #4D5154",
"Z  c #535454",
"A  c #525659",
"S  c #565A5D",
"D  c #5D5A59",
"F  c #5A5049",
"G  c #605955",
"H  c #615750",
"J  c #635043",
"K  c #65605D",
"L  c #595F62",
"P  c #575D60",
"I  c #5C6265",
"U  c #5F6669",
"Y  c #626364",
"T  c #61666A",
"R  c #63696C",
"E  c #6B6B6B",
"W  c #666D71",
"Q  c #686F72",
"!  c #6A7175",
"~  c #6E7579",
"^  c #70777B",
"/  c #737A7E",
"(  c #7B7B7B",
")  c #787776",
"_  c #844E2D",
"`  c #87512E",
"'  c #835535",
"]  c #8C5633",
"[  c #8A5839",
"{  c #955B34",
"}  c #9A5E36",
"|  c #955C39",
" . c #965937",
".. c #A25E3D",
"X. c #9D623C",
"o. c #A3633B",
"O. c #A9643B",
"+. c #A7663A",
"@. c #B26C3C",
"#. c #9B6540",
"$. c #AB6C44",
"%. c #A56842",
"&. c #B36E42",
"*. c #BA6F43",
"=. c #BD7345",
"-. c #B5754B",
";. c #BA764C",
":. c #B6784B",
">. c #BD794D",
",. c #B77143",
"<. c #B67652",
"1. c #B97651",
"2. c #BD7D53",
"3. c #BD7F58",
"4. c #B97761",
"5. c #C3764A",
"6. c #C47B4D",
"7. c #CB7B4D",
"8. c #CA7848",
"9. c #D37E46",
"0. c #D27E4B",
"q. c #DA7E4A",
"w. c #C47D52",
"e. c #CB7E54",
"r. c #C57B5A",
"t. c #CD7E58",
"y. c #D27E53",
"u. c #DA7E51",
"i. c #D07F58",
"p. c #C26E47",
"a. c #BD805F",
"s. c #CC814E",
"d. c #C6804D",
"f. c #D38146",
"g. c #D4824C",
"h. c #DC844D",
"j. c #DC8A4D",
"k. c #D88047",
"l. c #C58153",
"z. c #CC8252",
"x. c #C2815C",
"c. c #CE8159",
"v. c #CF8A5B",
"b. c #D38352",
"n. c #DC8551",
"m. c #D68851",
"M. c #DD8A52",
"N. c #D38259",
"B. c #DC8C5A",
"V. c #DD8758",
"C. c #E3844E",
"Z. c #EA864C",
"A. c #E5894E",
"S. c #EB8B4E",
"D. c #ED934F",
"F. c #F1934F",
"G. c #E48551",
"H. c #E48B52",
"J. c #EC8D52",
"K. c #E38B5A",
"L. c #EC8956",
"P. c #F28F56",
"I. c #ED9254",
"U. c #F39454",
"Y. c #FB9554",
"T. c #F59854",
"R. c #FD9C54",
"E. c #F79959",
"W. c #FF9D5B",
"Q. c #F38C4F",
"!. c #FAA05D",
"~. c #D88762",
"^. c #E38D60",
"/. c #FFA661",
"(. c #767E82",
"). c #787F83",
"_. c #7A8286",
"`. c #7D858A",
"'. c #7B8589",
"]. c #838383",
"[. c #82898E",
"{. c #8B8B8B",
"}. c #888685",
"|. c #8F908F",
" X c #858D92",
".X c #879094",
"XX c #899196",
"oX c #8E979C",
"OX c #8F989D",
"+X c #939393",
"@X c #90999F",
"#X c #9C9C9C",
"$X c #989797",
"%X c #928A85",
"&X c #949DA2",
"*X c #96A0A5",
"=X c #98A2A7",
"-X c #9AA4A9",
";X c #9EA8AE",
":X c #A3A3A3",
">X c #ACACAC",
",X c #B4B4B4",
"<X c #BCBCBC",
"1X c #CCCCCB",
"2X c #C3C2C1",
"3X c #DBDBDB",
"4X c #D4D4D3",
"5X c #E4E3E3",
"6X c #EBEBEB",
"7X c #F4F4F3",
"8X c #FEFEFE",
/* pixels */
"H.h.h.g.f.k.f.h.g.f.f.k.h.k.j.k.k.9.f.g.k.h.A.f.&.,.5.5.5.=.=.7.5.5.8.7.6.>.5.6.1.>.;.-.5.>.;.w.;.7.",
"B.v.x.c.l.l.d.l.l.z.v.s.z.z.z.v.m.v.s.a.a.l.2.-.>.5.b.b.y.z.z.t.t.i.i.y.b.i.i.b.b.N.N.N.b.y.b.N.e.2.",
"I.M.b.b.s.s.z.l.z.m.b.s.z.m.H.j.m.I.m.z.w.z.a.>.k.0.G.A.C.C.A.Z.C.Z.C.C.C.C.C.C.C.C.A.C.C.C.C.Z.8.l.",
"K.m.b.b.z.z.s.l.s.z.b.s.z.m.m.m.m.M.b.z.7.s.6.>.9.9.G.C.C.n.G.q.C.q.C.C.h.h.C.h.h.h.h.C.Z.u.G.Q.9.2.",
"K.n.g.b.b.z.z.l.z.z.m.s.s.m.g.g.m.M.z.z.w.z.r.5.q.q.Z.C.C.G.C.C.q.Z.u.G.C.C.C.A.C.C.C.h.C.C.u.Z.0.2.",
"I.n.b.b.s.z.s.l.z.g.z.:.  . * X.&.H.g.l.e.-.' | q.q.Z.C.G.G.G.C.] O , < 8 G.C.A.C.C.C.h.C.h.Z.Z.0.2.",
"K.m.b.y.z.s.z.l.z.b.b.s.x # Q S > f 6.6.h O   o 7 ` 9.q.q.q._ e n ! XXL k h.h.C.h.M.C.C.q.&.@.q.0.w.",
"K.m.b.o.$.z.z.l.z.g.z.s.s.g [.;XoXR 1 t @ * 2 4 ; 3 r C.8.0 n [.-X=X:XC $.m.M.H.H.J.H.=.8 4 5 t +.a.",
"K.g.z Z G g >.z.z.g.b.z.z.g _.*XOX-X X5 g z X R _.Q I a t R -X&XOXoX*Xb $.B.M.V.B.M.z s <X7X7X,Xr l.",
"K.6.s 7X8X<Xd $.z.' y h g.j / *XOXOX&X-XA A XXoX&X@X*XU ! -XoXoXoXoX*Xd { 8 * ] A.@.D 6X8X7X3X'.l l.",
"K.x s -X3X8X4X: y   ; ; k k U =XoXOXoX@X@X@X&X@XOXOXOX&X&XoXoXoXoX*X.X# > m 2 & t : >X7X6X@Xa.; X.a.",
"{ |.7X3X>X|.XXQ W _..X X5 $ 2 *X@XoXoXoX@X@XoXoXOXOXOXoXoXoXoXoXOX;Xm X [.*XoX[.'./ I I ;X7X8X3XF c ",
"c $X4X7X5XM _.*X*X*X*X&XOXU X A -X&XOXoXOXoXoXoXoXOXOXoXoXoX&X*X@XI b `.*XOX@X&X*X*X*X! Y 7X7X8X3Xs ",
"J >X,X>X$XE oXoXoXoXoXoXOX-X`.m P (. XOXoXoXOXoXoXoXoXoXoX*X X! m I oX&XoXOXOXoXoXoX&X_.Z 5X#X{.5X%X",
"}.8X8X8X#X! &XoXoX@XOXoXoXOX*X@XU 3 ~ -XoXoXoXoXoXOXoX@X*X`.b 2 ^ *X@XoXoXOX&X*X=X*X;X! +X8X7X,XE : ",
"u _.].4X#X/ *X&XOX_..X=XOXoXoXOX&X'.m W &X&XoXOXoX@X-X`.C m I XX*XOXoX@X*X&X`.! I C C 4 Y 2X8X8XE ' ",
"b.X.t u d 3 b b - & w U &X*XoXoX@X&XXXA P &X&XOXOXOX'.n Q OX&X&XoXoX-XoXR 5 * 9 0 +.@.&.f 9 K ,Xs -.",
"J.b.b.b.:.X.X.X.o.>.z.g 4 _.=X@XOXOX&X&XL P ~  X&XQ b '.&X&XOXoXOX*X! > t | 6.V.M.M.M.M.B.M.X.0 +.>.",
"K.m.b.g.s.z.z.l.b.b.s.l.+.* T =X&XoXoXOX&XA C &X&X XA OXOXOXoX&XoXN & o.m.m.m.b.g.b.m.m.b.g.m.b.=.a.",
"K.n.b.m.s.s.l.l.s.b.z.e.h.:.e M OX&XoXoX&X(.T &XoXOX`.oXOXOX&X X2 { h.M.h.j.M.h.M.M.h.M.M.h.C.C.8.a.",
"J.n.b.b.s.7.6.z.g.b.e.s.M.M.g.j 3 XX&XOXOXXX`.OXoXOX@XOXOX&X X; { m.G.G.M.j.A.G.H.G.G.G.C.G.A.G.f.a.",
"K.m.b.b.s.s.w.l.s.b.z.b.j.m.m.m.o.4 XX&XOXOX&XoXoXoXOXoX&XOX6 ] G.H.H.G.A.H.G.m.M.G.n.h.M.h.H.G.8.a.",
"L.n.b.b.s.d.6.z.b.g.z.z.M.M.m.m.M.%.6 OX&XoXoXoXOXoXOXoX&XS a n.A.G.H.A.G.M.n.h.h.h.h.h.C.C.G.J.f.a.",
"L.m.z.g.6.6.w.w.g.e.b.g.g.b.A.M.C.g.k S oXOXoXOXoXoXOX&X^ O p.q.Z.Z.Z.Z.Z.Q.Z.C.C.A.G.C.C.A.S.Z.f.8.",
"s.6.>.>.>.5.w.w.w.6.6.6.6.>.6.d.6.>.z - XX&XoXOXOXoXoX&X(.. *.e.y.y.7.y.8.y.y.0.g.s.6.7.8.6.8.>.+.@.",
"g.w.>.6.>.>.>.w.6.6.6.[ y y y X.6.6.e E &XXX&X&XOX&X&X&X@X6 &.0.y.u.y.8.8.8.0.y.s.8.8.6.8.5.8.>.$.$.",
"K.K.K.K.V.V.K.K.M.&.v ( :X:X$XD & [ s @X&XOX`.~ R Q (.XX-XU a ~.u.i.i.u.r.1.r.r.r.<.<.4.3.a.r.a.$.:.",
"Y.Y.F.S.D.S.A.h.X.M <X7X8X8X8X3XV b n oX&X(.W (.[.).^  X&XXX+ q.u.u.u.u.8.7.7.7.0.>.>.e.i.t.y.i.:.f.",
"Y.D.S.S.S.S.S.+.  : < w D $X3X<X) `.(.A Q `.&X-X&X=X&XOXOX-Xb ..y.u.u.u.7.6.e.z.e.s.w.3.b.t.e.t.:.s.",
"Y.I.S.D.S.S.S.C.9.f.k.k.9.l w D Y '.*X.XQ L L I W (.XX&XoX&X^ u y.u.u.u.7.6.7.7.w.6.r.r.e.c.e.i.:.s.",
"Q.S.A.A.S.S.S.S.S.S.A.A.A.S.f.p 5 *XOXoX&XOX X'.(.U L XXOXOXoX4 q 8.u.y.7.6.e.e.w.7.t.t.e.r.e.b.<.d.",
"U.I.H.D.I.I.U.I.I.T.D.I.I.D.d.* m S @X&XXXOX&X&X&X&X.XXXOXoX&XR Y q ..y.7.6.7.e.6.w.b.i.e.t.r.z.=.a.",
"R.T.U.I.T.U.U.T.T.T.T.T.T.f.$ Q ;XW S OX&XOXOXoXOXOXOXoXOXoXOX X&X).+ ..y.6.7.e.6.e.b.c.e.r.e.i.1.z.",
"R.T.F.F.D.D.D.D.D.D.F.F.D.0 Y -X@X*XR C [.*X&XOXoXoXOXOXoXoXoX@XOX-X^ : 5.6.e.7.6.e.c.b.r.e.e.t.1.e.",
"R.F.D.D.D.D.D.I.D.D.D.D.X.N -X@XOXoX&X(.V W  X&X&X&XOX.XoXOXOXOXOXOX=XL p 6.7.e.6.r.t.i.e.r.e.t.1.g.",
"R.F.D.D.D.D.D.D.D.D.D.d., .X*XoX@X&X&X*XXXU C L W W I Q OX&X&X@XOXOX&XXX# %.6.e.e.7.e.b.e.t.e.i.1.b.",
"R.R.D.F.F.F.F.F.F.F.F.l 2 @XoX@X[.T '.&X-X;X@X_.! ^ [.&X*XXX^ ).OXOX&X@X- | e.7.7.e.z.i.t.t.e.c.<.g.",
"T.F.J.H.J.H.J.G.S.A.A.f   W -X@XXX! 4 2 V I E / ).^ T C 4 1 O I &XoX&X`.O %.e.e.6.t.l.t.i.y.e.i.<.g.",
"U.H.H.H.H.H.H.H.A.A.j.=.{ 4 *X@XoX;X~ $ o.f $ $ & @ q [ [ :.| C &XoX-XI = r $.e.7.e.c.t.y.y.r.N.1.g.",
"U.J.A.C.H.A.A.G.H.S.S.D.k X ! *XoXoX*X6 f.S.S.g.;.:.w.2.2.:.g R &X&X_.].4XE w %.w.7.l.e.e.e.t.t.1.b.",
"Y.U.J.A.A.H.j.H.H.j.g.l Z 1XY (.-X@XXXn _ S.D.f.:.:.w.2.2.-.w oX&XoXT 3X8X8X<Xr 7.7.r.e.e.t.e.i.<.q.",
"U.U.J.S.J.J.G.S.J.G.q :X6X8X1XA / ^ Y +Xq q.F.k.:.:.l.:.>.' b `.^ A :X8X8X3XD | w.7.e.r.e.e.t.i.;.q.",
"Q.A.A.C.C.A.C.A.A.h.: 5X7X8X8X1XZ R 2X8XXX] Y.j.:.:.l.2.2.i {.}.}.2X8X8X>Xw [ e.w.e.e.r.e.e.t.t.<.q.",
"U.H.j.j.j.j.M.M.M.H.] v B #X8X8X5X3X8X8X5Xw S.j.:.:.l.>.[ {.8X7X7X8X7X( t >.0.e.7.e.e.e.t.t.e.i.;.q.",
"E.U.U.I.U.J.J.I.I.I.U.J.h._ F ,X8X8X8X8X8Xi S.j.:.:.w.l.| ( 8X8X8X1XB ] 5.6.e.7.e.s.t.i.e.e.e.i.1.0.",
"E.U.U.I.J.P.I.I.I.I.I.I.J.I.=.y H {.<X3X#Xh U.j.:.:.l.l.l.t D ) G g p.u.7.6.e.e.w.7.e.c.e.t.t.t.;.0.",
"E.U.J.J.J.J.J.J.L.J.J.I.J.J.J.P.8.% O 1 + p.I.j.-.-.l.z.z.>.|  ...u.u.u.6.5.e.7.7.7.t.e.e.e.e.t.;.0.",
"!.U.J.J.J.J.P.J.J.P.J.P.J.J.D.J.D.S.J.J.F.I.I.f.:.-.l.z.z.>.;.V.u.u.u.u.6.6.y.7.s.e.e.t.e.e.t.e.;.q.",
"L./.W.R./.W.W.W.W.W.W.W.W.W.W.W.W.W.R.W.W.W.W.I.l.l.v.m.B.d.f.P.L.L.Q.L.V.b.K.V.V.K.K.^.^.^.^.^.t.G.",
"j @.@.@.@.@.@.@.@.@.@.@.@.@.@.@.@.@.@.@.@.@.@.+.{ { X.X.X.X.} o...%.......} } } o.o.o.o.X.X.#.| { O."
};
