/* XPM */
static char *result[] = {
/* columns rows colors chars-per-pixel */
"50 50 225 2 ",
"   c black",
".  c #070B09",
"X  c #1B1D1B",
"o  c #161717",
"O  c #10150B",
"+  c #241C1A",
"@  c #360E0F",
"#  c #1B2119",
"$  c #102A06",
"%  c #371D27",
"&  c #291D21",
"*  c #1F2323",
"=  c #282A28",
"-  c #362829",
";  c #29342B",
":  c #392E39",
">  c #2E3532",
",  c #373839",
"<  c #2F2332",
"1  c #2E281E",
"2  c #47262A",
"3  c #542C29",
"4  c #472835",
"5  c #582B35",
"6  c #483638",
"7  c #5A3539",
"8  c #57352D",
"9  c #642F38",
"0  c #663639",
"q  c #763C3A",
"w  c #663F22",
"e  c #61161C",
"r  c #3A423B",
"t  c #3E6025",
"y  c #354B1B",
"u  c #454338",
"i  c #555634",
"p  c #6D4137",
"a  c #794339",
"s  c #3F3C46",
"d  c #553943",
"f  c #4C3A43",
"g  c #683944",
"h  c #783D42",
"j  c #3D4644",
"k  c #454949",
"l  c #54464A",
"z  c #574C55",
"x  c #4D5455",
"c  c #535B5B",
"v  c #585959",
"b  c #4A5151",
"n  c #674846",
"m  c #794644",
"M  c #66544B",
"N  c #645559",
"B  c #685157",
"V  c #5F655E",
"C  c #756A5C",
"Z  c #595C61",
"A  c #6B5464",
"S  c #5C6464",
"D  c #5B6765",
"F  c #636C6D",
"G  c #6B6C6C",
"H  c #646565",
"J  c #746C69",
"K  c #686D71",
"L  c #6B7475",
"P  c #6D7579",
"I  c #6A7776",
"U  c #737B7D",
"Y  c #7B7B7C",
"T  c #757375",
"R  c #6B726F",
"E  c #891E25",
"W  c #E02C39",
"Q  c #85483B",
"!  c #975B37",
"~  c #934E3F",
"^  c #9D613B",
"/  c #A36139",
"(  c #A76339",
")  c #B16D3B",
"_  c #874A44",
"`  c #934D45",
"'  c #9A5946",
"]  c #845849",
"[  c #A75C48",
"{  c #A84C51",
"}  c #AB6345",
"|  c #AB6D46",
" . c #A86347",
".. c #BA6D46",
"X. c #B76A48",
"o. c #B5754C",
"O. c #BB754C",
"+. c #B6784B",
"@. c #BD794D",
"#. c #BD7547",
"$. c #B97650",
"%. c #BD7D52",
"&. c #B87955",
"*. c #AB6850",
"=. c #8A6F6E",
"-. c #AB786A",
";. c #936A5E",
":. c #C16D4B",
">. c #C3754B",
",. c #C47B4E",
"<. c #CB7C4D",
"1. c #CB764A",
"2. c #D37D4B",
"3. c #D17C47",
"4. c #C47D52",
"5. c #CB7E54",
"6. c #C57B5A",
"7. c #CD7E58",
"8. c #D17F54",
"9. c #D97E51",
"0. c #D07F58",
"q. c #7C837D",
"w. c #718945",
"e. c #8B8B5D",
"r. c #BD805F",
"t. c #81837F",
"y. c #A58272",
"u. c #B5AF70",
"i. c #CC814E",
"p. c #C6804D",
"a. c #D4824C",
"s. c #DC844D",
"d. c #DE894E",
"f. c #D48146",
"g. c #C58153",
"h. c #CC8252",
"j. c #CE8159",
"k. c #C7855C",
"l. c #D38352",
"z. c #DB8552",
"x. c #D68852",
"c. c #DC8952",
"v. c #D28158",
"b. c #DC8A59",
"n. c #E3854E",
"m. c #E58A4E",
"M. c #EA8B4E",
"N. c #EA864D",
"B. c #F18E4E",
"V. c #ED934F",
"C. c #F1934F",
"Z. c #E38651",
"A. c #E48B52",
"S. c #EC8D52",
"D. c #E38B59",
"F. c #ED8A58",
"G. c #F28F56",
"H. c #ED9254",
"J. c #F39454",
"K. c #FD9B53",
"L. c #FF9D5B",
"P. c #F89756",
"I. c #E38D60",
"U. c #FFA661",
"Y. c #DDAC69",
"T. c #787C81",
"R. c #837C83",
"E. c #768182",
"W. c #7B8384",
"Q. c #7C858A",
"!. c #7D898C",
"~. c #838C8D",
"^. c #8B8C8C",
"/. c #868586",
"(. c #8B918D",
"). c #838E93",
"_. c #889396",
"`. c #8C969B",
"'. c #8F999D",
"]. c #869294",
"[. c #949494",
"{. c #90999E",
"}. c #9B9C9B",
"|. c #999496",
" X c #9E8889",
".X c #9FA29F",
"XX c #939DA2",
"oX c #96A1A5",
"OX c #9AA2A5",
"+X c #9AA4AA",
"@X c #9AA6AB",
"#X c #A3A4A3",
"$X c #AAACAB",
"%X c #A6A7A9",
"&X c #B3B3B3",
"*X c #BBBCBB",
"=X c #B5BCB5",
"-X c #AFAFB0",
";X c #A58A8B",
":X c #CA978A",
">X c #D7A494",
",X c #E9AA9B",
"<X c #ECB0A1",
"1X c #F8B7A8",
"2X c #FFBFB0",
"3X c #BDC2BD",
"4X c #FFC7B7",
"5X c #BEBFC1",
"6X c #CBCCCE",
"7X c #C3C5C4",
"8X c #CED2CE",
"9X c #CFCFD2",
"0X c #CFD0D2",
"qX c #D3D4D5",
"wX c #D5D6D8",
"eX c #DBDCDB",
"rX c #D7DAD8",
"tX c #DFE3DF",
"yX c #E5E6E5",
"uX c #EAEBEA",
"iX c #EDF2ED",
"pX c #F4F5F4",
"aX c #FEFFFE",
"sX c #F6FAF6",
"dX c #F0EFF0",
/* pixels */
"A.s.f.s.f.f.f.a.f.f.f.a.n.s.d.s.f.a.f.f.a.s.m.f.....>.>.>.#.#.,.>.>.<.<.,.@.>.@.O.O.+.o.O.>.O.O.O.p.",
"b.v.k.k.g.g.p.g.g.k.h.i.a.g.h.h.x.h.h.r.%.4.%.o.@.@.z.l.h.l.8.5.7.l.8.8.v.l.l.9.b.v.l.v.9.9.l.b.5.%.",
"H.b.x.l.i.i.h.g.h.x.l.h.h.x.c.c.c.D.x.h.4.l.r.#.f.3.N.Z.n.n.N.n.n.n.n.5 + % :.N.n.n.n.n.N.N.9.B.3.r.",
"D.x.l.l.l.l.h.g.p.x.l.i.Q 8 8 _ O.c.x.h.4.p.p.,.f...~ 3 X.s.n.9...Q g * # o :.9.s.s.n.n.N.9.N.9.3.4.",
"D.z.l.l.h.h.h.g.i.x.h.h.q # n k k p _ 4.4.g.r.| a # . O ' :.8.q , S x y.m [ n.Z.n.n.n.s.1.X...) >.%.",
"H.z.l.} m 0 ` g.h.h.x.p.<.q y.>XG I c 7 } h.*.7 r * r = @ 3 3 F U J :X>Xg Z.n.n.n.n.n.X.7 A |.T g o.",
"D.x.' l wX8Xb ' i.a.l.g.h.X.M 4X,X=.Q.q.- 3 : R R U b o O 6 !.!.J ,X4X-.~ n.n.s.9.n.1.6 =XaXaXaX$X] ",
"D.x.a V aXaXeXn ,.,.9 3 ` O.6 1X4X<X=.(.F > (.oXXX{.!.T.k L _.C -.1X4X;.o.O.w 9 [ ..0 3XaXpXrX8XY _ ",
"D.' B T |.*XaX[.2 i X ; ,  .m >X2X1X,XC D , b XX'.`.XXXXc , F M u 1X4XM q d j ; : = (.aXaX$XV , 2 | ",
"| T pXaX6XG 6XyXc !.].[._.f 8 ;.4X:Xi , b .   K oX{.OXF . * K ).r :X>X+ r ].oXXX].R iXaXaXyXiXrX#Xg ",
"a -XaXwX*XyXyXaX/.!.XXXXXX_.x , <X:X= q.E.J y : XX`.`.; i !._.Q., ] M F oXoXXXQ.x %XaXaXaXuXqXaXaX&X",
"l (.*X}.eXaXpXsX[.F XX`.[.{.+XI M ;.v '._.u.u.X E.E.c i u.~.XXk u D !.@X{.{.F F #X*XeXaXaXdX[.rXsX-X",
".XtX/.G -X$X.X&X6XG !.XXXX`.{.@X!.S k F D u.w.O j k O t e.U ].L D ~._.~.`.!.T sXsX3X^./.[..XeX[./.l ",
"v 8X=.}  .4 rXsXaXJ - , U @X!.E.!.c I T k e.y   v Y . $ i c ].OXW.F k b @X`.q.yXaXiXv [ Q 2 G sXyXC ",
"' 0 $.l.i.' [.tX3Xn ..q : q.U = c ~.XXoXD u u , q.(.v r = W.+XXX@XI , E.K b = 6 J l ` n.d.d.` /.q.0 ",
"D.z.9.8.a.i._ n m *.h.5.} 7 ; o c @X{.@XF (.yXeX> O T pX%XU E.H Q.c ; > 3 [ ..} ) >.d.c.d.d.d. .Q $.",
"D.l.l.l.x.x.h.p.a.l.g.i.h.i._ + > (.E.U = q.yXpXv + /.dX.XX v H > = 5 [ a.d.c.c.d.n.d.d.d.d.d.A.a.g.",
"S.b.a.h.i.a.h.g.l.l.<.5.a.l.z.O.9 r D v z O G rXrX}.tX^.+ < /.; 3 ' l.b.c.c.c.c.c.c.c.c.c.b.c.A.3.g.",
"D.z.l.a.h.h.g.h.i.l.i.g.h.c.c.x.>.+ # Y 6X=   = # . X . o .Xv   _ c.z.a.x.x.x.x.l.x.x.l.l.x.l.l.#.@.",
"H.l.l.l.i.i.g.p.a.l.g.g.s.c.h. .5 _ m O t.eX, @ E E e - *XT o Q 7 Q <.D.c.z.n.d.d.z.n.c.n.s.d.n.,.r.",
"D.l.l.l.i.i.4.k.l.l.4.l.c.c.x.`  .:.% k T (.(.{ W W { G c W.k 2 $.h [ Z.s.c.Z.m.A.N.N.Z.Z.Z.Z.A.f.r.",
"D.z.l.a.i.p.,.h.i.l.g.a.d.d.x.x.5.4 - L `.v Y .X;X X(.H S @Xb + ` n.Z.Z.s.2.a.a.z.z.z.z.z.s.Z.N.1.r.",
"S.l.l.l.p.<.4.h.a.l.l.h.c.c.x.x.[ _ m P P %XqXOXOX(.(.7XY {.v ` [ A.[ ~ 7 2 d d _ >.z.9.n.n.A.S.3.r.",
"H.z.l.a.,.,.,.4.a.5.l.a.a.l.n.c.9.8.2 P P 6XqX0X5X5XqXwX/.~.T q X.5 k L E.v #XyX&Xn [ N.n.N.N.N.f.p.",
"h.,.,.O.@.@.4.4.4.,.@.p.4.@.<.p.4.&.f P `.wX6X6X0X0X6X0X$XT.!.o f !.XXoX{.Z [.pXdX=Xs _ ,.1.,.O.) ( ",
"2.4.$.>.@.,.4.,.p.,.,.,.,.@.<.4.,.` < L -X0X6X6X6X6X6X0X7XT.P * `.+X`.`.XXI R.A m a q h #.>.1.O.| | ",
"D.D.D.D.b.b.b.D.b.D.A.A.D.D.b.z.7.0 z T.7X9X6X6X6X6X6X6XqX~.T.j c XXXXOXU : _ $.6.$.&.&.%.r.6.k.| +.",
"K.P.B.B.M.M.M.n.m.M.S.M.M.C.B.1.3 c ).T.9X9X6X6X6X6X6X6XwX#XP XXx c {.S 4 [ 5.<.5.>.O.7.0.h.8.7.+.f.",
"P.M.M.m.M.M.M.M.M.M.M.M.F.N.<.% D @XT.^.wX6X6X6X6X6X6X6XwX$XK XXXXZ > 9 X.<.4.h.4.<.4.6.5.7.5.7.+.x.",
"P.J.V.M.N.M.M.M.m.m.M.M.N.1.4 K +XXXT._.wX6X6X6X6X6X6X6XwXXXT.XXXXOXx 5 1.<.<.<.4.<.4.6.5.5.7.7.+.p.",
"B.N.n.m.m.V.M.M.M.M.m.m.1.4 L +X`.XXQ.Y 9X6X6X6X6X6X6X6XwX/.R.XX`.{.OXk h 4.4.5.4.4.j.7.5.7.7.v.o.p.",
"J.B.V.H.H.H.H.H.H.J.H.H.9 S +X'.`.'.`.H 5XwX6X6X6X6X6XqX5XP `.{.`.`.XX].< ' <.5.<.5.h.v.7.7.4.j.@.@.",
"L.J.H.H.J.J.J.P.P.P.C.^ k oX'.'.`.`.XXQ.T.9XeXwXwXwXeXwX~.Q.XX{.{.`.`.OXK 5 4.5.<.5.v.v.5.6.5.0.$.g.",
"K.K.C.C.H.V.V.V.V.V.V.3 D oX`.'.XXXXXXXXF z Y Y G G Y G b !.`.XXXX{.`.XX).+ } 4.,.5.h.v.4.7.5.7.O.5.",
"K.C.V.V.V.V.V.V.V.V.V.3 r oX`.{.].L k - 4 Q ! Q p q a a q 4 6 k K `.{.+XL . [ <.>.4.l.v.5.6.5.7.$.i.",
"K.C.V.V.V.V.V.V.V.V.V.#.2 F @X{.~.W.F 0 m.C.C.f.o.o.%.%.$.o._ x W._.XX{., a O.5.5.4.h.8.5.5.7.0.$.l.",
"K.K.V.V.C.C.V.C.C.C.C.C.n.g E.OX{.XX@Xz 1.C.K.d.o.o.4.%.%.$.9 ).@X{.+XD 9 ,.<.5.<.4.h.8.7.7.5.v.o.l.",
"P.C.S.A.S.S.S.A.A.A.m.A.m.2.g T.XXXXoXc % 1.m.<.#.O.4.%.%.m : P _.oXP 7 :.>.<.8.,.7.j.7.7.8.5.0.$.2.",
"H.S.n.A.A.A.A.A.A.m.c.d.n.Z...% S F Z W.}.h A.3.+.@.4.%._ /.=X|.H K 4 X.5.>.5.<.5.5.g.7.8.8.5.7.$.l.",
"J.S.A.n.n.A.n.m.A.N.M.M.} 9 v |.-X.X$XsXiX7 a.f.@.+.%.%.n yXaXpX*X$X&XB h >.5.5.1.<.5.5.5.7.7.7.o.s.",
"P.J.M.m.m.n.n.m.A.:.0 m Z 3XsXaXaXaXaXdXZ Q V.3.+.+.%.%.' R.aXaXaXaXaXpX^.g >.5.4.<.4.7.7.8.7.8.$.9.",
"G.J.H.m.A.A.H.A.2.4 *X0X6XaXaXaXaXaXtXB ~ n.K.f.+.+.g.%.&.0 }.aXaXaXaXaXaX}.0 [ 4.<.5.6.4.7.7.7.O.a.",
"B.N.d.m.m.m.n.n.3.N wX^.9XpXsXaXaX8Xf } m.M.J.s.+.+.g.@.4.@.9 /.pXaXaXaXaX7X^.Y a i.4.6.5.7.5.8.O.s.",
"J.M.d.d.d.d.d.c.Z.` l eXaX&XeXaXsXz | H.H.H.P.d.+.+.g.@.p.r.O.` A yXaXpX6XpXeX^.9 5.7.7.5.5.7.7.$.2.",
"P.P.H.H.H.J.S.H.H.F.` |.6X(.sXaX7X0 H.H.H.H.J.A.+.+.4.g.p.p.,.9.` &XaXaX&XyX6X% ' p.7.j.5.5.5.8.O.2.",
"P.P.H.H.F.J.S.H.H.H.D.q 2 7 |.[.4 ..J.H.J.H.P.c.+.+.4.g.p.r.@.9.:.=.aXaX[.H 7 ' <.<.7.j.7.5.7.7.$.2.",
"P.H.S.F.S.S.B.S.S.B.S.S.F.N.X.} 1.F.B.S.S.S.H.f.+.+.g.h.h.@.#.b.9.h J G 2 _ <.<.i.<.5.5.7.5.7.5.O.3.",
"U.J.S.H.S.H.F.S.S.F.B.S.S.S.S.S.S.S.S.S.S.J.H.f.+.+.g.h.h.#.O.x.9.9.9.9.,.,.5.<.<.h.5.7.5.7.5.5.O.3.",
"A.U.L.L.L.L.L.L.L.L.L.L.L.L.L.L.L.L.L.L.K.L.L.H.r.p.x.x.b.g.f.P.F.F.F.F.z.z.I.b.D.D.D.D.I.I.I.I.6.A.",
"w ) ) ) ) ) ) ) ) ) ) ) ) ) ) ) ) ) ) ) ) ) ..( ! ! ! ! ^ ^ ^ ( ( ( ( / ! ! ^ ! / / /  .^ ^ ^ ^ ! ( "
};
