/* XPM */
static char *result[] = {
/* columns rows colors chars-per-pixel */
"50 50 223 2 ",
"   c #040201",
".  c #181919",
"X  c #19110B",
"o  c #241E1A",
"O  c #301E12",
"+  c #27110D",
"@  c #1F2311",
"#  c #39261A",
"$  c #2C231D",
"%  c #1E2223",
"&  c #272625",
"*  c #3A322B",
"=  c #3C3632",
"-  c #373A3A",
";  c #2F3331",
":  c #56331E",
">  c #472E1E",
",  c #493425",
"<  c #553925",
"1  c #5D3B25",
"2  c #553C2C",
"3  c #583A28",
"4  c #4B3C32",
"5  c #443D37",
"6  c #643E25",
"7  c #611116",
"8  c #334028",
"9  c #49423D",
"0  c #584436",
"q  c #565535",
"w  c #59492D",
"e  c #6A442C",
"r  c #72462A",
"t  c #784A2C",
"y  c #674936",
"u  c #7B4D31",
"i  c #724D36",
"p  c #7A5237",
"a  c #3A3E42",
"s  c #633F41",
"d  c #3C4143",
"f  c #434545",
"g  c #4C4945",
"h  c #474A4B",
"j  c #564C45",
"k  c #494D51",
"l  c #4D5254",
"z  c #555A5C",
"x  c #575758",
"c  c #5B554A",
"v  c #67554B",
"b  c #6E564C",
"n  c #6C645F",
"m  c #756952",
"M  c #595E61",
"N  c #5D6265",
"B  c #5F6669",
"V  c #5F6872",
"C  c #626364",
"Z  c #62676A",
"A  c #656A6D",
"S  c #6A6C6D",
"D  c #6B6764",
"F  c #786C65",
"G  c #79716C",
"H  c #656D71",
"J  c #696E72",
"K  c #6C7275",
"L  c #6D7579",
"P  c #6F787E",
"I  c #727373",
"U  c #73777A",
"Y  c #72797D",
"T  c #7B7B7C",
"R  c #835233",
"E  c #8A5534",
"W  c #8A593A",
"Q  c #935B39",
"!  c #9B5E3B",
"~  c #965A34",
"^  c #834C2C",
"/  c #9D623C",
"(  c #96613B",
")  c #A36239",
"_  c #AB693C",
"`  c #A86339",
"'  c #B26C3C",
"]  c #BC6E3F",
"[  c #BB743F",
"{  c #9B6541",
"}  c #836550",
"|  c #AA6D46",
" . c #A56A44",
".. c #B36E42",
"X. c #B86E46",
"o. c #AC7248",
"O. c #BD7445",
"+. c #B5764B",
"@. c #BB754C",
"#. c #B5794D",
"$. c #BD7A4D",
"%. c #B47145",
"&. c #B97651",
"*. c #BD7D53",
"=. c #B87A55",
"-. c #AD7451",
";. c #8B7773",
":. c #A26A53",
">. c #C3774B",
",. c #C47A4D",
"<. c #CC7B4E",
"1. c #C97846",
"2. c #D27D45",
"3. c #D27D4A",
"4. c #DA7E4A",
"5. c #DB7D46",
"6. c #C47D52",
"7. c #CB7E53",
"8. c #C57B5A",
"9. c #CD7E58",
"0. c #D47D52",
"q. c #DA7E51",
"w. c #D07F58",
"e. c #7F8350",
"r. c #909152",
"t. c #BD805F",
"y. c #84807E",
"u. c #BE8679",
"i. c #CD814D",
"p. c #C6804D",
"a. c #D4824C",
"s. c #DC834D",
"d. c #DD8A4E",
"f. c #D48146",
"g. c #C58153",
"h. c #CC8252",
"j. c #CE8159",
"k. c #C7855C",
"l. c #D38352",
"z. c #DB8352",
"x. c #D68851",
"c. c #DD8952",
"v. c #D38259",
"b. c #DB8D5A",
"n. c #E3844E",
"m. c #E5894D",
"M. c #EA894D",
"N. c #EC924E",
"B. c #F1934F",
"V. c #E38550",
"C. c #E48B52",
"Z. c #EC8D52",
"A. c #E88A58",
"S. c #F28F56",
"D. c #ED9155",
"F. c #E79056",
"G. c #F39354",
"H. c #FD9C54",
"J. c #FF9D5B",
"K. c #F89756",
"L. c #F38C4F",
"P. c #FAA05D",
"I. c #E38D60",
"U. c #FFA661",
"Y. c #CBC275",
"T. c #767E82",
"R. c #C37C80",
"E. c #7B8185",
"W. c #7D868B",
"Q. c #7E888D",
"!. c #838485",
"~. c #82898D",
"^. c #8C8C8C",
"/. c #838689",
"(. c #988B8A",
"). c #838D92",
"_. c #899296",
"`. c #8D969B",
"'. c #8F989D",
"]. c #869096",
"[. c #919A9E",
"{. c #9A9B9B",
"}. c #959595",
"|. c #A1938E",
" X c #A7A09B",
".X c #939DA2",
"XX c #8B9AA1",
"oX c #97A1A6",
"OX c #9AA4AA",
"+X c #9EA8AE",
"@X c #98A2A7",
"#X c #A4A4A4",
"$X c #AAAAAB",
"%X c #A9A7A6",
"&X c #A1ABB1",
"*X c #A7B1B7",
"=X c #B4B4B4",
"-X c #BCBBBB",
";X c #BAB8B5",
":X c #B0ACAB",
">X c #D6A598",
",X c #E5AB9D",
"<X c #C0BFBF",
"1X c #F6B5A6",
"2X c #C59285",
"3X c #FFC7B7",
"4X c #E3D581",
"5X c #C5C4C4",
"6X c #CBCBCC",
"7X c #C7C7C8",
"8X c #CECFD0",
"9X c #CFD1D3",
"0X c #D2D2D3",
"qX c #D6D7D9",
"wX c #DCDCDB",
"eX c #D7D8DA",
"rX c #E2DCD9",
"tX c #E1E0DF",
"yX c #DEDEE0",
"uX c #E3E3E3",
"iX c #ECECEC",
"pX c #F3F3F3",
"aX c #FEFEFE",
/* pixels */
"C.s.f.s.f.f.s.f.f.f.f.s.f.d.d.s.f.f.x.f.a.s.m.f.X.%.>.>.>.O.O.,.1.>.<.<.>.$.>.$.$.$.@.#.@.@.@.&.@.<.",
"b.v.k.k.g.g.p.g.g.k.h.h.a.k.h.l.l.h.i.t.*.g.*.+.$.>.z.l.7.l.l.7.w.w.0.7.v.l.v.v.l.v.v.v.z.l.l.b.7.*.",
"F.b.l.l.a.i.h.6.i.x.h.h.i.x.c.c.d.F.x.h.6.h.*.$.2.f.M.V.n.n.V.n.n.n.n.n.n.n.n.n.n.n.n.n.n.n.M.M.2.6.",
"F.x.l.l.h.h.h.g.h.h.x.i.i.x.x.x.x.b.l.h.<.h.g.$.2.3.V.V.n.s.n.n.n.s.n.n.s.s.n.s.s.s.n.n.n.n.4.n.2.*.",
"F.z.l.l.h.i.h.g.h.l.x.i.i.x.x.x.x.c.a.7.7.h.8.$.3.4.M.n.V.V.V.n.~ : n.n.V.n.V.V.n.n.n.s.n.n.n.M.3.*.",
"F.z.l.l.h.l.h.6.h.h.i.h.h.x.x.x.%.R E @.7.7.6.>.4.4.M.n.V.V.V.n.E X 4.q.n.V.n.V.n.n.n.s.V.s.n.n.<.*.",
"b.x.l.3.h.i.h.g.h.a.l.h.h.d.x.x.E X @ 4 < R +.>.2.2.s.5.4.4.4.n.1 h ` n.n.s.s.n.s.d.n.n.s.n.s.M.f.g.",
"F.z.l.l.h.h.h.g.h.a.l.<.l.x.x.x.O.E $ F M g 4 u 2.2.n.4.>.' _ E j E.e x.b.x.z.C.C.A.F.Z.Z.C.C.A.l.6.",
"b.x.l.l.l.0.h.g.h.l.l.p.a.x.x.d.x.<.! b >X;.M f t 4.s.E , # : * '.oX< x.x.c.c.c.C.C.C.C.C.Z.C.D.x.g.",
"C.x.l.l.X.{ / ( {  .t e E 1.i.p.x.l.0.y 1X,X(.T.l r e k = & o d Q.oX0 c.C.C.C.V.d.c.c.d.V.c.n.m.a.g.",
"A.z.0./ 2 5 g 5 j 9 & T n < e i ( _ @.e 1X3X1Xu.).d M '.L U f h l ~.0 m.c.m.c.d.C.c.c.C.C.C.C.F.f.t.",
"C.l.3., & /.[.`..XL T pXiXI k N x 5 2 # 2X3X,Xu.;.Q.]..X@X@XY l N V e C.C.C.C.C.m.C.d.z.d.d.d.m.p.g.",
"F.v.3.e - .X.X.X`.U wXaXaXiX^.T..X'.U a b >Xj b ;.XXP L '..X@XL N k _ d.d.1._ a.l.a.l.a.a.l.l.d.i.g.",
"F.l.l.t a @X'..XW.C pXaXaXaXiX^.L T.T.).L c & M T .Xd - ].[.[.`.Z X / x.E * + u h.l.h.v.6.R Q v.6.p.",
"F.l.l.X.* `.&XOXoXY aXaXaXaXaXiX-X%XT Z L ).d V .X'.z & a .X'.+Xd   O 6 x E.a X ) d.d.1.2 ^.G p 1.p.",
"F.v.a.l.E f U ~.E.l 6XaXaXaXaXaXpXiXpX0XE.Q.E.h '.'.'.U q J OX`.9 m d J '..XW.A q 1 ( < -XaXpX;.R p.",
"A.z.l.a.p.( 0 0 4 . l tXaXaXaXuX!.A :XaXeXS .Xk _..X).S Y.m ].H q e.E.+XoX+X&X.X_.Z # ^.aXiXrXS / p.",
"F.l.l.l.i.i.|  .! r > !.aXaXaXpX#Xd l {.=XK +Xl A +X].h 4Xr.; z q 8 Q.oX+X]..X&X&XH T.iX{.f g r O.*.",
"A.x.l.h.i.i.g.h.7.<.6 ^.aX;X:XaXpX%Xd f A `.'.k z Q.*XV r.r.  S q . z k x j c C M !.iXpXI C F } i { ",
"F.l.l.x.i.i.g.h.a.l.< eXaXm < 7XaXpXS `.L @XN l %Xz E.V c r.8 - @ & l l & E / # z 6XaXpXeXuXtXrX%X, ",
"A.z.l.l.i.i.,.g.i.0.< 5XaXj # I uX6X^.iXL J l h uXT . ; L ;X-X% X J J _.l ~ X.;.6X5XrXaXaXaXiXaXqX. ",
"x.h.>.<.i.p.,.h.a.l./ x 7Xj D K ~.T T %XZ M T.k =X7X    K 0XpX}.Z 8Xz l j r R iXaX=X=X<X{.=XwX9XC < ",
"R i b i Q p.,.h.h.a.7.p = A @X`.Y W.L z {.=X~.P C 7Xs   & I 7X<X;.%X$ r R ..t =XaXpX5X5 R y ^.}.> o.",
"1 * ;X;XF p 6.6.a.0.l._ & '..X.X[.`.K {.0XyXS J a T (.7   % }.q Q Q ~ 5.n.Z.1.2 ^.5X^.6 4.' Q y ) k.",
") p T aXuXc  .6.6.$.$., E.@X`.'..XK [.yX0X6X!.S % & N R.+ % ^.u 7.<.<.0.<.3.3...u y e ..,.1.,._ | | ",
"i.,.< =X6XS < 6.6.6.E d @X.X'.'.~.U 0X9X6XqX$Xj O r 1 }.(.T !.Q 0.0.<.<.<.<.3.0.3.| @.6.1.1.,.@.o. .",
"F.A.>.9 U U * @.z.A.> T..X`..X@XJ $XqX6X9X0XF / W =.-.v }.}.j | A.w.v.q.&.8.&.8.8.=.=.=.t.t.8.t.| @.",
"K.K.L.: H OXK 1 ' X.= .X.XE.T.).T.8X6X8X9XT ^ s.#.#.=.o.e b Q q.q.q.q.4.<.<.<.<.0.@.$.7.w.w.w.w.+.2.",
"G.L.M.` M OX.XZ 0 4 M @XXX/.A M /.tX9X6X0Xh 6 R W { p.t.6.#.h.z.0.q.4.q.<.,.7.7.7.<.6.8.j.7.9.w.#.a.",
"K.G.Z.f.= .X.X@X'.Z U .X`.'._.H S =XeX9X0X}.g z = < ( $.6.*.l.q.0.q.q.0.<.,.<.i.6.,.6.8.7.7.7.9.#.i.",
"L.M.m.Z.r T.OX.X&XH T..X`..X.XXXT.Z %XeX0X8XA '.].N * W *.*.0.q.0.0.0.0.<.,.6.7.,.7.j.9.7.9.7.v.&.p.",
"G.N.m.D.i.5 @X.XXXM ^.[.`.`.`..X.XT.Z =XeXeXJ `.&XOXE.9 W #.z.q.0.q.0.0.<.,.<.7.i.,.j.j.7.8.7.v.@.$.",
"J.G.N.B.B.t Z @X@Xz ~.[.`.'.'.`..X.XK Y 7XqXZ W..X.X&X_.5 { 0.q.0.0.0.0.<.<.<.7.>.7.v.l.6.7.7.9.&.h.",
"H.H.B.B.B.d., L +XN Y oX'.[.'.`.`..X@XM E.9Xz _.'._..X*Xd e 0.q.0.4.0.0.7.,.,.9.>.7.j.v.7.8.7.9.&.7.",
"H.B.N.N.N.N._ 4 Y A k oXoX)._.'.'.`.@Xl C =Xz .X`..X@XT.& p 0.q.0.q.0.0.<.>.7.<.7.7.7.9.7.8.9.9.&.a.",
"H.B.N.N.N.N.N.[ < c o A ].Z ].'.'.'.].h $XT P .X'..X!.5 r +.7.q.q.q.0.0.<.>.<.7.,.7.h.l.7.9.7.9.&.a.",
"H.H.N.B.B.B.B.B.N._ r , f K .X`.XX.XY ^..XN @X.X'.T.* r #.{ | <.q.0.q.0.0.>.<.9.6.7.7.l.9.7.7.v.+.l.",
"K.G.Z.C.C.Z.Z.C.m.m.m.] & [.[.`.oX).Z }.h L '._.T.f 2 b 0 9 v Q >.0.0.q.0.>.<.7.,.7.j.j.w.w.8.w.&.h.",
"G.C.m.c.C.C.C.C.m.m.c.! l +X[.[.].- - oX;.K l N ^.7XwXqX=X%X-X/.^ 0.q.q.<.>.8.9.7.7.j.7.0.w.7.w.&.3.",
"G.D.C.m.m.C.n.M.C.m.1.w N E.).E.N & j -X8X-X!.#XiXaXaX8X=XwXyX}.6 0.q.q.0.>.<.<.,.<.6.7.j.7.7.w.&.z.",
"K.G.Z.m.C.m.c.m.V.O.y =X#XA E.%X;X<X<X-X=X;X$X5XaXaXaXuX6X:XaX{.E q.q.q.<.,.h.<.<.<.7.8.7.w.9.w.&.4.",
"K.L.N.m.C.C.Z.Z.Z.) I aXpX7X7XiXaXaXaXuX6X{.=X=XiXpXaXaXaX5X=XF X.q.q.q.3.>.7.7.6.<.7.8.7.7.7.w.@.s.",
"L.n.n.m.m.m.m.m.n.] v 7XaXaXaXaXaXaXaXiX5X-X=X$X/.;X=X0XiX<X5 ! q.0.V.q.7.>.7.<.6.7.7.8.7.9.7.9.&.4.",
"G.C.d.d.d.d.d.d.d.C.Q v =XwXaXaXaXaXaXuX$X0X9XI 2 0 y b F v R 4.q.0.q.z.7.>.h.<.6.<.7.7.7.7.7.w.@.3.",
"K.G.D.D.D.Z.D.A.S.D.D...3 F  X7XwXuXpXaXpX%X<X< +.| p.o.W | $.q.q.0.q.q.<.>.7.7.6.<.7.9.9.9.7.v.&.3.",
"J.G.G.D.D.S.D.D.D.D.D.S.D.] r 2 j D %XuXiXD r x.#.#.g.g.g.,.>.z.q.0.q.q.<.>.7.<.7.<.j.j.7.7.7.9.@.3.",
"G.G.D.A.Z.Z.Z.Z.Z.Z.Z.Z.Z.Z.L.C._ ~ > n G 1 D.f.+.%.g.k.h.$.>.z.q.4.q.q.,.,.h.<.<.i.7.9.7.9.9.7.@.3.",
"P.G.N.D.Z.S.Z.Z.S.Z.Z.Z.S.N.Z.N.Z.M.N.Z.G.N.D.d.%.+.g.h.h.@.@.z.q.q.q.q.,.,.7.<.<.7.7.7.9.7.9.9.&.2.",
"A.U.H.H.J.J.J.J.P.P.H.J.J.J.H.J.J.J.J.J.J.J.J.D.g.g.x.b.b.p.f.S.S.A.S.A.q.w.A.z.z.A.I.I.I.I.I.I.9.C.",
"e ' ' ' ' ' ' ' ' [ ' ' ' ' _ ' _ ' ' ' ' ' ' _ ~ ~ ( ( / ( / ` ) ` ) ) ) ! / ! ) ) ) { / ! ) ! Q ` "
};
