/* XPM */
static char *result[] = {
/* columns rows colors chars-per-pixel */
"50 50 202 2 ",
"   c #030202",
".  c #080705",
"X  c #0A0907",
"o  c #0D0B09",
"O  c #120E0C",
"+  c #15120E",
"@  c #1A130E",
"#  c #151411",
"$  c #1A1612",
"%  c #1D1A14",
"&  c #171813",
"*  c #211C16",
"=  c #231E19",
"-  c #25221C",
";  c #2B241D",
":  c #2E281F",
">  c #3F2B1E",
",  c #272521",
"<  c #2D2620",
"1  c #2E2922",
"2  c #332B23",
"3  c #392E26",
"4  c #332F29",
"5  c #373026",
"6  c #3A3026",
"7  c #363029",
"8  c #3B342B",
"9  c #3F382D",
"0  c #3E3731",
"q  c #4D3926",
"w  c #40362B",
"e  c #43392E",
"r  c #4A3C2D",
"t  c #473325",
"y  c #543D2B",
"u  c #5B3F2D",
"i  c #443D32",
"p  c #493F32",
"a  c #423D39",
"s  c #663F22",
"d  c #5D422E",
"f  c #4C4235",
"g  c #4C4439",
"h  c #534434",
"j  c #52473A",
"k  c #544A3C",
"l  c #5A4D3D",
"z  c #5A4634",
"x  c #5D503F",
"c  c #6C4C34",
"v  c #664A35",
"b  c #734D35",
"n  c #67533F",
"m  c #72543B",
"M  c #7C563B",
"N  c #534B40",
"B  c #5B4E41",
"V  c #5C5242",
"C  c #5B5449",
"Z  c #575043",
"A  c #4C4941",
"S  c #625543",
"D  c #655845",
"F  c #695946",
"G  c #61574A",
"H  c #655B4B",
"J  c #6B5E4B",
"K  c #6A5640",
"L  c #795C43",
"P  c #6C604D",
"I  c #72624D",
"U  c #79674F",
"Y  c #6E6251",
"T  c #6F6758",
"R  c #746652",
"E  c #7A6750",
"W  c #766955",
"Q  c #7B6E5B",
"!  c #7C6B53",
"~  c #7E715C",
"^  c #7D7361",
"/  c #855A3D",
"(  c #8B5937",
")  c #9B5E36",
"_  c #945D39",
"`  c #9A5E38",
"'  c #965C32",
"]  c #9D623C",
"[  c #A56236",
"{  c #A36139",
"}  c #A8643B",
"|  c #B16D3B",
" . c #875E41",
".. c #876244",
"X. c #8A6549",
"o. c #9C6643",
"O. c #986B4A",
"+. c #84745D",
"@. c #8B765C",
"#. c #8C795E",
"$. c #907155",
"%. c #A56B44",
"&. c #AA6E45",
"*. c #A46A4B",
"=. c #B86F45",
"-. c #B36F45",
";. c #AB744B",
":. c #A87248",
">. c #BA7547",
",. c #B6764B",
"<. c #BB764C",
"1. c #B6784B",
"2. c #BD7A4D",
"3. c #A87757",
"4. c #B67652",
"5. c #B97651",
"6. c #BD7D53",
"7. c #BD7F58",
"8. c #847761",
"9. c #857962",
"0. c #8C7D64",
"q. c #887C69",
"w. c #967F64",
"e. c #B97761",
"r. c #CB7D47",
"t. c #C3774C",
"y. c #C37A4D",
"u. c #CB7B4E",
"i. c #C27545",
"p. c #D27D45",
"a. c #D37D4A",
"s. c #D97E49",
"d. c #C57D52",
"f. c #CB7E54",
"g. c #C67B59",
"h. c #CD7E58",
"j. c #D47E52",
"k. c #DA7E51",
"l. c #D07F58",
"z. c #BB825D",
"x. c #9B8265",
"c. c #938369",
"v. c #9E8B6F",
"b. c #988568",
"n. c #9E8E71",
"m. c #988970",
"M. c #9E927A",
"N. c #9F9173",
"B. c #A38A6A",
"V. c #AB8F71",
"C. c #A3957A",
"Z. c #A39376",
"A. c #B19471",
"S. c #B5A17F",
"D. c #C6804B",
"F. c #CD824E",
"G. c #D48146",
"H. c #D4824C",
"J. c #DC844D",
"K. c #DE894E",
"L. c #C58153",
"P. c #CC8252",
"I. c #C4825C",
"U. c #CE8159",
"Y. c #CF8A5B",
"T. c #D38352",
"R. c #DB8451",
"E. c #D68851",
"W. c #DC8952",
"Q. c #D28158",
"!. c #DC8D5A",
"~. c #DD8758",
"^. c #E3844E",
"/. c #EA864D",
"(. c #E58A4E",
"). c #EB8B4F",
"_. c #F28D4F",
"`. c #EC924E",
"'. c #F1934F",
"]. c #E38550",
"[. c #EB8651",
"{. c #E48B52",
"}. c #EB8D52",
"|. c #E38B5B",
" X c #ED8B5A",
".X c #F18E51",
"XX c #F58F5E",
"oX c #ED9254",
"OX c #E59155",
"+X c #F39454",
"@X c #FB9554",
"#X c #FD9C54",
"$X c #F79959",
"%X c #FF9D5B",
"&X c #F59854",
"*X c #FAA05D",
"=X c #C39B72",
"-X c #E38D60",
";X c #FFA661",
":X c #B3A284",
">X c #B7A985",
",X c #CCBC9B",
/* pixels */
"{.K.H.H.G.G.G.G.H.G.G.G.J.J.J.G.G.p.G.H.G.G.{.G.-.-.i.t.i.>.>.u.t.t.u.t.y.2.t.y.<.2.,.,.2.<.2.<.<.F.",
"!.Y.Y.U.L.L.L.U.L.L.Y.F.F.P.Y.E.E.Y.F.z.7.L.d.1.i.y.Q.T.T.l.T.f.f.l.j.j.Q.Q.Q.Q.R.Q.Q.Q.Q.j.Q.R.f.6.",
"|.R.T.T.F.F.P.d.P.T.T.P.P.E.W.W.{.|.E.P.u.f.6.2.G.a.[.^.^.^.^./.^././.^./.^.^.^.^.].(.^.^.^.^./.p.d.",
"OXR.T.T.H.P.P.L.P.F.E.F.F.E.E.E.E.W.E.P.f.P.d.2.a.a.[.K.^.].J.J.^.J.J.^.J.J.^.J.J.J.^.^.].^.^./.a.6.",
"|.R.H.T.P.P.P.d.P.P.T.P.F.E.E.E.E.W.T.d.f.P.d.2.s.s.[.^.].].].k.^.^.^.k.].^.^.].^.^.^.J.^.^.^.^.u.6.",
"OXR.T.T.P.P.P.L.F.P.H.P.F.E.E.E.E.W.F.d.f.f.d.2.s.s.[.^.].].^./.^.^.^.].k.].].(.^.].^.K.J.^.]./.a.6.",
"OXE.T.j.P.P.P.L.F.T.T.F.P.W.E.E.W.^.P.P.f.f.d.<.p.p.J.s.s.s.s.^.^.^.^.^.^.^.R.^.J.].^.^.^.J.^./.a.L.",
"|.E.T.H.f.F.P.L.P.T.T.f.F.W.E.E.W.H.F.f.u.f.d.>.p.p.{.J.J.H.a.J.T.J.T.W.E.W.R.{.{.{.|.}.[.{.W.}.T.d.",
"|.R.T.T.F.T.P.L.F.H.T.P.P.W.E.W.W.F.f.f.f.f.d.>.s.s.}.{.{.{.{.{.W.R.W.W.E.E.W.W.{.{.W.{.}.{.}.}.K.y.",
"|.T.T.T.T.F.P.L.E.P.P.P.J.W.E.E.R.T.H.L.f.f.d.2.J.G.(.W.{.W.{.].(.{.{.{.{.{.{.].W.W.{.W.].R.].(.H.z.",
"|.Q.T.T.F.F.P.L.T.T.P.f.W.E.E.E.W.F.y.L.f.d.L.m l ..{.{.{.{.W.{.{.K.W.K.{.W.{.W.{.W.{.(.|.{.{.OXF.D.",
"|.E.H.j.E.E.P.L.P.H.f.P.J.E.K.E.W.O.v > u u.y.m 2 u {.{.{.W.[.{.(.{.).}.{.{.{.{.(.{.K.E.K.K.W.(.F.L.",
"OXT.T.T.H.T.P.L.H.T.f.u.R.E.E.E.W...f k V $.X.h c >.K.H.H.T.T.T.T.K.K.K.R.K.H.K.E.T.T.H.T.R.T.W.F.L.",
"|.R.T.j.P.H.P.L.T.T.P.u.J.E.K.E.;.n H ~ Q C R x L o._ ( _ :.z.;.| G.E.P.T.T.T.T.P.T.T.Q.P.T.Q.E.d.L.",
"OXT.T.T.T.P.L.L.F.T.P.,.2.E.E.2.S C ~ +.P 0 R P k w ; @ ; k 8.H q z.D.z.H.K.K.K.K.K.K.K.W.K.K.(.r.D.",
"|.J.T.H.T.H.P.L.D.f.y.v z P.T.k S k J m.Q ; 1 8 5 5 2 - - 7 C P k n +.D :.H.E.K.K.(.W.K.K.K.K.K.r.L.",
"OXR.T.E.F.E.F.2.f h : 2 9 d K.h k 9 0 N a * * 3 w p p 2 ; * , 8 j P T W x f b K.K.K.(.K.W.K.W.{.H.D.",
"|.T.T.P.T.H.z.h w 6 - $ v 1.d : 2 = % % $ * = w a p t 3 3 3 2 8 g C A H P k 6 q W.W.W.W.W.W.W.OXr.6.",
"OXT.H._ 3.A.A.x e D j - q / g 5 < % # # $ - < 3 w 8 3 : : 4 i p g g j c.n.R h ] E.T.E.E.T.T.T.T.2.2.",
" XR./ k #.N.c.W f P H 9 : f x 9 2 < = = = < < = ; < < < ; 4 i f f f k c.#.x y ] _ :.o.<.].J.K.J.r.z.",
"OXW.r S P C D W V f g 8 : 8 6 : : < < < ; $ ; - ; < 3 3 2 7 e p f 8 g V H x 6 = - f h %.^.^.K.}.a.z.",
"|.T.H.z 7 f P +.R x f 9 ; & + % ; , = = = O % < < < 2 < ; 2 e p a 0 Z C C.N.J x 2 & %.J.K.J.[.{.u.2.",
" XT.r H x l +.S.P i j k 6 - + ; = = ; * # o # = , - = : ; 1 2 8 8 f N f W C.>XZ.x : 5 o.].^.}.}.r.6.",
"}.J.J Z.c.D P c.P f i f f e : 8 3 ; = * # $ . @ = - % % % ; : - 7 k k 0 C :X,Xq.7 >.a.G.^.^././.a.D.",
"H.d.3.I Z g J 0.I f e e f V h f 6 = $ % % 2 X O $ & $ O * = % $ 2 j p g 0 C Q g < c M %.y.u.u.<.-.:.",
"F.y.6. .d h H +.D h n j f l z w : % & $ = 1 & + # # $ O $ @ & # ; w 8 g G V g i 8 v m o.u.2.O.<.&.:.",
"|.|.|.{.!.*.G W x S I z 5 5 6 : * % $ @ $ $ % $ + + # o O O + % = 2 e 8 8.c.S S f 4.4.e.7.3.W g.&.<.",
"@X@X_._.}.1.8.:X! F e ; ; 5 : $ # # @ + + + @ + o X o X o O & * ; 4 7 = 4 i B J h %.<.5.f.l.j.f.=.a.",
"@X_.).(.}.%.G c.S I n r 3 : ; * - & o o O o o X . . . . X o o + * ; ; 2 8 j l z f.t k f v f.g.l.4.H.",
"@X+X).).).( 7 g : x U +.L e : & + .   . X . . X . .           X $ = 3 W c.@.l 3 u ; k J X.f.f.h.4.F.",
"_.).).(.`.i.] %.>.n ! B.V.+.F 6 o         .   . .               + e h 0.S.b.l 2 3 : ..3.7.f.f.Q.,.D.",
"+X}.`.OXOXoXoXoXF.@.J U x.B.#.U h ; + .                         2 +.J H Q E h b m v f.Q.g.f.h.Q.5.2.",
"*X&X`.oX&XoX&XK.V 9.V f P c.+.x.x.+.z 2 X                   o 8 W 0.R i i z  .f.t.f.Q.T.g.g.f.P.5.P.",
"#X#X'.'.`.`.`.K.j D x x +.N.+.I #.x.w.I 2 O . $ = + X + @ ; i 9.Z.B V j l X.d.f.y.f.U.T.g.f.h.l.5.P.",
"#X'.`.`.`.`.oX`.(.OXc f Q N.v.P P n.b.S I 8.H M.,Xm.V Z.v.B.S a C g S h k X.u.f.t.u.P.l.f.g.f.h.5.T.",
"#X'.`.`.`.`.`.`.`.`.G.D.:.k n f Z 8.~ J #.W R 9.M.~ e q.0.@.J Y q.^ V *.-.<.f.u.f.f.P.Q.g.f.h.h.5.u.",
"#X#X'.`.'.'.'.'.'.+X'.+XOX| :.| h j j j D x D k Y R g H H h f j R 7.*.j.j.t.u.f.d.f.P.P.f.h.f.U.,.T.",
"&X'.{.}.{.}.}.{.(.(.(.(.K.(.OXW.o.M v j : 9 D P J V g 9 M m b b o.j.j.k.j.t.u.f.f.f.U.h.T.l.f.l.5.H.",
"+X{.{.{.{.{.{.{.{.{.K.R.{.{.(.W.{.}.y.X.q : P ~ F h q t 6.6.u.k.j.j.k.k.u.t.f.u.t.f.U.f.l.l.h.h.5.j.",
"+X}.(.^.{.(.[.(.{.).}.).(.(.(.(.}.).).'.J.: j j  .,.d.2.6.2.u.j.k.j.k.k.j.t.f.f.u.u.f.f.f.f.f.l.5.R.",
"@X+X).(.{.].W.].(.].(.).).{.(.].(.(.}.}.).}.).G.1.1.L.6.6.5.u.j.k.k.k.k.a.y.f.f.f.u.L.g.f.f.l.l.5.s.",
"@X+X).).{.).}.).}.}.}.}.}.}.).{.}.).[.).(.).'.K.1.1.d.6.6.d.t.j.k.k.k.k.f.y.u.u.y.u.g.g.f.f.f.Q.5.s.",
".X(.K.^.(.(.(.(.^.^.(.^.(.(.(.^.(.K.^.{.(.).@XK.1.1.L.4.L.2.t.k.k.j.].k.u.t.u.P.d.u.f.g.f.h.f.U.5.s.",
"+X(.K.K.K.K.W.W.K.{.W.(.K.W.K.K.W.K.OXoXOXoX&XK.1.1.d.6.L.D.t.k.k.j.k.k.u.d.f.f.f.u.f.h.f.f.f.h.5.s.",
"$X+XoXoXoXoXoXoXoX XoXoXoXoXoXoXoXoXoX&XoXoX&XW.1.1.y.L.P.y.2.k.k.j.k.k.u.t.f.u.f.u.f.U.h.l.f.h.<.a.",
"$X+X+XoX X+X}.oXoXoXoXoX}.oXoXoXoXoX+XoX+XoX&XK.1.1.L.L.L.d.y.k.k.j.k.k.u.y.u.f.d.f.f.U.f.f.f.l.5.a.",
"$XoX}.}.}.}. X}..X}.}.}.}..X.X X.X}..X}.}.}.oXK.,.,.L.P.L.2.<.R.s.k.k.k.y.t.f.u.u.F.f.h.f.h.h.h.<.a.",
";X+X}.}.}..X}..X}.}..X}.}.`.}.).).}.}.}.}.+X`.H.-.1.L.P.P.<.i.R.k.k.k.k.u.y.f.u.F.u.f.f.h.f.h.f.<.a.",
"}.;X*X#X%X%X%X%X*X%X%X%X%X*X#X%X%X%X%X%X%X%X%XoXL.L.Y.!.!.P.H.XX X X X Xk.Q.|.~.W.|.-X-X-X-X-X-Xh.{.",
"d | | | | | | | | | | | | | | | } | | | | | | } ' ' ] ' ] ] ' [ [ } [ [ { ` ] ` [ { { { ] o.] ` _ [ "
};
