/* XPM */
static char *result[] = {
/* columns rows colors chars-per-pixel */
"50 50 203 2 ",
"   c #1E1A15",
".  c #1D1712",
"X  c #201C17",
"o  c #25211A",
"O  c #2A241D",
"+  c #2E281F",
"@  c #2E2720",
"#  c #2E2921",
"$  c #332C24",
"%  c #373027",
"&  c #393027",
"*  c #373129",
"=  c #3C352B",
"-  c #3E382D",
";  c #3C3730",
":  c #432D1F",
">  c #453123",
",  c #40372C",
"<  c #423A2E",
"1  c #4D3A29",
"2  c #483222",
"3  c #453D31",
"4  c #493F32",
"5  c #663F22",
"6  c #57412F",
"7  c #464035",
"8  c #4C4235",
"9  c #4E4539",
"0  c #4F493D",
"q  c #514233",
"w  c #5D4532",
"e  c #514739",
"r  c #544A3C",
"t  c #5A4D3D",
"y  c #584A37",
"u  c #5B503F",
"i  c #654A36",
"p  c #6C513B",
"a  c #61513F",
"s  c #735038",
"d  c #7A553B",
"f  c #7A563B",
"g  c #564E42",
"h  c #594F41",
"j  c #5D5242",
"k  c #5E5749",
"l  c #575045",
"z  c #625544",
"x  c #655947",
"c  c #6C5B46",
"v  c #655A4A",
"b  c #6A5D4B",
"n  c #685745",
"m  c #735B45",
"M  c #7A5C43",
"N  c #715F4B",
"B  c #6C614E",
"V  c #73644F",
"C  c #79664E",
"Z  c #6D6251",
"A  c #726652",
"S  c #756955",
"D  c #7A6B55",
"F  c #766C5A",
"G  c #7B6E59",
"H  c #7E725C",
"J  c #83543B",
"K  c #855E3E",
"L  c #8B5C3C",
"P  c #845537",
"I  c #965C32",
"U  c #9B5E36",
"Y  c #955C39",
"T  c #9A5E38",
"R  c #9D613B",
"E  c #96603D",
"W  c #A56236",
"Q  c #A36139",
"!  c #A8643B",
"~  c #AC693E",
"^  c #B16D3B",
"/  c #835D41",
"(  c #836144",
")  c #84644A",
"_  c #8C6545",
"`  c #956244",
"'  c #9B6645",
"]  c #9C6C4D",
"[  c #956A4B",
"{  c #966950",
"}  c #847056",
"|  c #887056",
" . c #83745C",
".. c #89755B",
"X. c #92785B",
"o. c #A46A43",
"O. c #AA6D46",
"+. c #A06742",
"@. c #B36E42",
"#. c #B86F45",
"$. c #A57149",
"%. c #AD7449",
"&. c #A97147",
"*. c #B37246",
"=. c #BA7546",
"-. c #B5754B",
";. c #BB764C",
":. c #B5784B",
">. c #BD7A4C",
",. c #A46D58",
"<. c #A67658",
"1. c #B67651",
"2. c #B97651",
"3. c #B27A52",
"4. c #BD7D53",
"5. c #BD7F58",
"6. c #B47D5D",
"7. c #827761",
"8. c #857A66",
"9. c #8C7C63",
"0. c #897D69",
"q. c #927D63",
"w. c #997E60",
"e. c #CB7D47",
"r. c #C3774B",
"t. c #C37A4D",
"y. c #CB7B4E",
"u. c #C47647",
"i. c #D27D45",
"p. c #D37D4A",
"a. c #D97E49",
"s. c #C47D53",
"d. c #CB7E54",
"f. c #C67B59",
"g. c #CD7E58",
"h. c #C47750",
"j. c #D37E53",
"k. c #DA7E51",
"l. c #D07F58",
"z. c #BC8054",
"x. c #B7815D",
"c. c #8D826B",
"v. c #938165",
"b. c #93856B",
"n. c #9A8569",
"m. c #97896F",
"M. c #9A896C",
"N. c #9D8D72",
"B. c #918A76",
"V. c #9F9177",
"C. c #9B917A",
"Z. c #A68D6F",
"A. c #A59476",
"S. c #AD9A7B",
"D. c #B19D7D",
"F. c #C6804D",
"G. c #CD824E",
"H. c #D48146",
"J. c #D4824C",
"K. c #DC844D",
"L. c #DE894E",
"P. c #D4884E",
"I. c #C58153",
"U. c #CC8252",
"Y. c #CE8159",
"T. c #CF8A5B",
"R. c #C78459",
"E. c #D38352",
"W. c #DB8451",
"Q. c #D68851",
"!. c #DC8952",
"~. c #D28158",
"^. c #DB8E5A",
"/. c #DD8758",
"(. c #E3844E",
"). c #EA864D",
"_. c #E5894E",
"`. c #EB8B4F",
"'. c #F28D4F",
"]. c #ED924E",
"[. c #F1934F",
"{. c #E38550",
"}. c #EB8651",
"|. c #E48B52",
" X c #EB8D52",
".X c #E28B5B",
"XX c #ED8B5A",
"oX c #F18E51",
"OX c #F58F5E",
"+X c #E49154",
"@X c #ED9155",
"#X c #F39454",
"$X c #FB9554",
"%X c #FD9C54",
"&X c #F79959",
"*X c #FF9D5B",
"=X c #F59854",
"-X c #FAA05D",
";X c #C48E60",
":X c #C29265",
">X c #E38D60",
",X c #FFA661",
"<X c #B4A383",
/* pixels */
"|.L.K.J.H.H.K.H.H.H.H.J.K.K.J.K.H.J.J.H.J.K._.H.*.#.u.r.r.=.=.y.u.r.y.y.r.>.>.>.2.2.;.;.2.r.;.2.;.G.",
"^.~.R.R.I.I.F.s.R.R.U.G.U.U.T.Q.E.P.I.z.5.I.4.*.>.u.E.E.j.U.j.g.d.l.l.j.E.l.W.l.W.l.~.~.E.E.E./.s.4.",
"+X/.E.E.G.G.U.I.U.P.E.U.G.Q.!.L.!.+X/.U.d.d.z.=.H.p.).(.).(.(.(.(.).).).(.(.(.(.(.(.(.(.(.(.(.).i.s.",
"+X/.E.E.U.U.U.s.U.U.P.G.U.Q.Q.Q.Q.!.E.U.d.U.s.>.p.p.}.L.W.K.K.(.K.(.K.(.W.(.(.K.K.K.L.(.(.(.(.).p.4.",
".XQ.E.E.E.U.U.s.U.E.G.U.G.Q.Q.Q.Q.!.U.d.s.U.s.>.a.a.}.(.(.{.{.(.(.{.k.k.{.(.(.(.(.{.K.(.(.K.(.(.p.4.",
"+XW.j.E.U.G.U.I.U.U.E.G.U.Q.Q.Q.Q.!.J.s.d.U.I.r.a.a.}.{.{.{.{.(.).a.).(.k.{.(.(.(.(.(.L.{.(.{.).y.4.",
".X!.j.J.U.G.U.I.U.J.E.G.d.L.Q.Q.Q.(.E.I.d.d.h.;.e.i.K.a.a.a.a.(.(.(.(.(.(.(.L.K.K.(.(.(.a.(.k.).p.I.",
".XQ.E.E.U.U.U.I.U.E.E.d.G.!.P.Q.!.W.G.d.d.d.s.=.i.i.{.K.K.K.J.a.P.P.Q.Q./.!./.|.|..X X X X|.|. XE.s.",
".XQ.E.E.U.E.U.I.G.J.U.U.E.W.!.Q.!.J.y.d.d.s.s.=.a.a. X.X|.|.|.|.!.!.!.!./.!.!.!.!.+X+X|. X|..X@X!.4.",
"|.Q.E.E.J.E.U.I.E.E.U.U.P.Q.Q.!.Q.J.G.s.d.d.s.=.K.K._.W.(.|.|.(.|._.!.|.|.|.|.|.|.(.!.L.!.(.(.).J.I.",
".XW.j.E.E.G.P.I.U.J.U.U.L.W.Q.Q.Q.U.y.s.d.d.s.s y ( |.|.|.|.!.|._.!.(.!.L.!.!.|.!.|.|.|.|.|._.+XJ.z.",
".XE.E.J.G.P.R.I.U.E.j.U.W.!.P.Q.Q._ w : f d.s.p $ 1 |.|.!.|.|._.|.`.|.}.|.|._.|.|.|.(.!.P.!.!.|.G.I.",
".XP.E.E.p.E.I.I.E.E.U.d.L.P.Q.W./.r 8 8 j ] [ q i O.L.P.P.J.E.W.Q.!.P.L.!.W.P.Q.P.Q.E.J.Q.Q.E.!.y.I.",
".XW.E.E.E.E.U.U.U.J.U.d.L.E.!.Q.%.r B  .S x A r J @.o.&.%.-.z.4.~ G.Q.E.E.E.E.P.U.E.U.E.E.U.E.~.s.I.",
".XQ.E.j.J.J.I.I.E.E.U.>.E.E.J.%.r Z  .G j 7 F Z r < * < 8 z G G % *.J.P.J.P.L.L.L.!.!.|.L.(.L.L.e.I.",
"|.W.E.J.U.E.I.I.P.E.s.8 ;.P.$.j x r 8.M.B O $ - & < r $ = j Z B u t D  .f L.L.L._.(.L.W.L.L.L.L.e.F.",
".XW.E.E.P.J.U.f w M X.e 8 >.:.3 r * 9 g 3 @ & 8 e e t % $ $ 3 g k A H H x p w =.L.L._.L.!.(.L.+XG.F.",
".XE.J.E.U.E.K e r t u = _ $.f $ 3 - < # @ r 3 h h < = & & O   @ 7 j l k V u 7 1 E Q.!.Q.!./.^._.e.s.",
"+XW.*.:.;X:Xj j B x < < &.( u % & h 9 + = A 4 8 4 - 4 q , # # 3 7 9 * r v. .u 1 Y Q.Q.E.Q.E.Q.E.=.z.",
" X>.y F A.D.v.j j B k q 8 j x 3 & x t = 4 A 3 = & 8 A b < % j H j l - u M...r E e.t.G.t.p.L.K.L.e.z.",
".X$ x  .S Z M.V 8 9 0 $ < < 3 3 & r j e 9 h t 4 , = 8 t < 3 r r 7 = $ = 9 r 3 O . % z < ~ (.(. Xp.4.",
".Xt.w 3 8 j G b Z 7.v O # O $ 8 r r t h h h 4 = = 4 4 e & - 3 e G Z - o r N.v 8 % o + ^ J.L.|.|.y.s.",
".XL y 4 8 Z N.B j v x * O   @ & & = 8 h t 3 8 9 < < g e % $ 4 j F A r $ 8 c.0.8.B =   s r.(.). Xy.>.",
"XXr 9.9.x Z A.A 8 - = 3 < $ @ = 3 $ = e e 4 z h , = y 4 @ @ r A j r k k 0 g <XC.B 8 P f u.(.`.).J.R.",
"J.| M.9.k g S b r - # < x 8 $ 8 D 3 % , 8 k S 9 $ , 4 @ $ * h D 3 9 A H k ; F F 3 2 =.;.r.u.u.r.O.O.",
"J.t.p # ; x G e o O 8 r v 9 & < h z 9 - 8 b H 9 * < 9 , y h j y - x c.7.4 $ 9 e - $ < 8 o.y.u.;.O.O.",
".X.Xj.t.` g x x r y B A B h < $ = 4 e r z V A 8 * * 3 A 7.Z z h 3 - 8 j A 7.A z x m ] ,.6.5.<.S &.:.",
"$X$X[.`.t.b M. .j 8 r x j r 3 % # % 3 9 t x z - @ < v 0.7.Z n v e e 0 v H A h B A c >.f.j.l.h.<.=.i.",
"$X[.`._.s.Z <XD t < $ 3 4 q e 4 * * = g b r r 3 # = b A F k r z l H A x k 3 < y M L J { ` o.d.l.1.J.",
"$X[.`.`.@.7 F z a u 1 8 9 t h t < 9 4 h B r r 8 7 7 8 7 Z v e x x m.F 9 r j n 8 s o.O h 8 s f.l.1.G.",
"'.)._.`.~ O ; b S C } } z z b z 3 z g , 3 r 9 - j F j - l H 9.0.A b.A x 9.M.D.n O + $ z S <.d.~.;.F.",
"#X@X+X@X_.G.Q.+Xx.q...Z.q.n 8 8 h S e < j Z j r 9 t v r 7 Z c. .r B x b b.A.G 8 $ * + 1.4.f.d.~.2.>.",
"-X[.@X[.=X=X@X3.v. .u C } C V S z t 8 z D S B r 8 h H F F H b.8., G 9.x g b g s ` ` ' ~.d.f.d.g.2.I.",
"%X%X].[.].].].a B B e a X.v.v...A y h b B V v r r Z G k Z A S G F  .9.Z 9 8 m #.h.d.Y.E.f.d.d.g.2.U.",
"-X[.].].].].@XK C V y B A.S.c.V ....C u z G x v H H z u r b l g B.v b 9.} h r.d.d.d.U.E.d.f.d.g.2.J.",
"%X[.].].].].].].].^ > B 8.V.v.V  .S.D z  .m.Z N.<X9.c V.n.v.A = l 9 b  .C x ;.y.h.d.U.g.g.d.g.l.2.j.",
"%X%X].[.].[.[.[.[.].L._.u r B  .b.c.b V ..H m.m.M.H e H F n.q.x 0.c.Z / f.2.y.d.y.d.I.j.g.d.d.g.1.J.",
"=X[. X+X|.@X X|.|._._.|.r.=.t.3.u 9 7 e A .. .v.V.v.H V x u y 8 g 6.2.h.j.r.d.d.t.g.Y.l.g.E.g.l.2.E.",
"#X@X(.(.|.|._.|.|._.|.L.L.|.|.L.L L a e < j V v. .B a < f f f J d j.k.k.y.r.d.p.d.d.I.l.g.j.d.g.2.p.",
"#X).(.|._.|.|.).|.`.`.).|.|._._._.`.:.( 2 + c G a 6 1 > :.4.y.k.j.j.k.k.y.r.d.d.r.y.I.d.d.g.g.g.1.W.",
"$X#X`._.|.(._.(.|.(._.`.`._.|.(.(.|.`.[.=.$ r r K -.4.4.4.>.y.j.k.k.k.k.y.t.d.d.d.y.s.f.g.d.g.j.1.a.",
"$X#X`._.|. X+X`. X X X X X X`.|. X`. X`.).).[.H.:.:.I.4.4.t.r.j.j.k.k.k.j.t.y.y.t.y.d.f.g.g.g.U.2.a.",
"oX_._._._._._._.(._._._._._.(._._._._._._.].=XL.:.:.I.2.4.t.h.j.k.j.k.k.y.t.y.d.d.d.d.f.g.d.g.g.;.a.",
"#X|.L.L.L.L.L.L.|.!.(.!.L.!.L.L.!.L.+X+X+X@X=XL.:.:.I.z.I.t.t.k.k.j.{.k.d.r.d.y.s.y.d.d.d.d.g.g.2.p.",
"&X#X#X@X@X@X XXX@X@X@XXX@X@X@X@X@X@X@X@X#X@X=X|.-.:.U.I.I.t.t.k.k.k.k.k.y.r.d.d.s.G.g.Y.d.d.d.E.2.p.",
"&X#X#X@XXX#X@X+X#X@X@X@X+X#XoX@X@X#X@X#X@X@X#XL.:.:.t.I.I.s.h.k.k.j.k.k.y.t.j.d.t.y.g.g.g.d.g.g.;.p.",
"&X#X+XXX X XoX X XXX X@X XoXXX XoX X XoX@X`.@XJ.:.:.I.U.U.>.r.k.k.k.k.k.r.t.U.y.y.d.d.g.d.g.d.g.2.a.",
"&X#X@X`.oX X X X X X XoX X X]. X@X`. X X X#X#XJ.*.:.I.I.U.>.=.W.a.k.a.k.t.t.j.y.y.G.d.d.g.d.g.d.>.p.",
"@X,X%X%X-X%X-X*X-X*X*X*X*X*X%X*X*X*X*X*X*X*X*X XI.I.T.^.^.U.J.OXXXXXXXXXW.l..X/./..X.X>X>X>X>X>XY.|.",
"w ^ ^ ^ ^ ^ ^ ^ ^ ^ ^ ^ ^ ^ ^ ~ ^ ^ ^ ^ ^ ^ ^ ~ I I E I R I U ! Q ! Q Q Q T T T W ! Q Q R R R E Y W "
};
