/* XPM */
static char *result[] = {
/* columns rows colors chars-per-pixel */
"50 50 221 2 ",
"   c #170F06",
".  c #2B1C0A",
"X  c #231509",
"o  c #291A11",
"O  c #3B1215",
"+  c #32220C",
"@  c #3B270A",
"#  c #372316",
"$  c #23211C",
"%  c #32302F",
"&  c #3B3331",
"*  c #52140A",
"=  c #442B0A",
"-  c #55390E",
";  c #563807",
":  c #472D19",
">  c #5F221D",
",  c #4B3214",
"<  c #4D341C",
"1  c #5E3F10",
"2  c #54351D",
"3  c #573817",
"4  c #623F18",
"5  c #473529",
"6  c #5A3823",
"7  c #423F3B",
"8  c #643D27",
"9  c #730910",
"0  c #60410E",
"q  c #6A470E",
"w  c #754E0F",
"e  c #644312",
"r  c #684711",
"t  c #6B4715",
"y  c #734D13",
"u  c #7C5313",
"i  c #795217",
"p  c #7C530F",
"a  c #5A482A",
"s  c #58443B",
"d  c #4D473A",
"f  c #694729",
"g  c #79452C",
"h  c #7B4A2D",
"j  c #734728",
"k  c #794F30",
"l  c #695138",
"z  c #7F612F",
"x  c #414142",
"c  c #5D5545",
"v  c #564942",
"b  c #725449",
"n  c #716B5B",
"m  c #7B766A",
"M  c #865B15",
"N  c #8A5E16",
"B  c #845B1A",
"V  c #956514",
"C  c #9D6A16",
"Z  c #966618",
"A  c #9C6B19",
"S  c #996615",
"D  c #966413",
"F  c #A26E1A",
"G  c #A06B17",
"H  c #AB731A",
"J  c #AF7517",
"K  c #B57A1C",
"L  c #BA7E1C",
"P  c #B27615",
"I  c #82592B",
"U  c #885737",
"Y  c #955C34",
"T  c #9A5C35",
"R  c #945B3A",
"E  c #9A5E38",
"W  c #955B2E",
"Q  c #886229",
"!  c #9D623C",
"~  c #9C6137",
"^  c #926D2F",
"/  c #A77628",
"(  c #B67D24",
")  c #A4623A",
"_  c #A8643B",
"`  c #A56438",
"'  c #B26D3B",
"]  c #BE743E",
"[  c #A07836",
"{  c #C37904",
"}  c #C1753F",
"|  c #9F4043",
" . c #805F5E",
".. c #9D7D4C",
"X. c #957F57",
"o. c #926C46",
"O. c #AA6E47",
"+. c #A56843",
"@. c #B76F43",
"#. c #BA7547",
"$. c #B5764B",
"%. c #BB754C",
"&. c #B6784B",
"*. c #BD794C",
"=. c #B67652",
"-. c #B97651",
";. c #BD7D53",
":. c #BD7F58",
">. c #AE744B",
",. c #966F68",
"<. c #847C6A",
"1. c #AE7769",
"2. c #C06F49",
"3. c #C37647",
"4. c #CB7D47",
"5. c #C3764B",
"6. c #C47B4D",
"7. c #CB7B4D",
"8. c #C87848",
"9. c #D27D46",
"0. c #D27D4B",
"q. c #DA7E4A",
"w. c #C57D52",
"e. c #CB7E53",
"r. c #C57B5A",
"t. c #CD7E58",
"y. c #D47D52",
"u. c #DA7E51",
"i. c #D07F58",
"p. c #BE811E",
"a. c #BC8C3C",
"s. c #C5851E",
"d. c #C9861A",
"f. c #CD881B",
"g. c #D18B1B",
"h. c #D9921F",
"j. c #E89C1F",
"k. c #C88923",
"l. c #D18E21",
"z. c #D59121",
"x. c #DC9522",
"c. c #E19924",
"v. c #EFA226",
"b. c #A98A57",
"n. c #BD805F",
"m. c #A38049",
"M. c #908E7B",
"N. c #B38578",
"B. c #AE8178",
"V. c #BAA57A",
"C. c #CD814E",
"Z. c #C6804D",
"A. c #D48146",
"S. c #D4824C",
"D. c #DC844D",
"F. c #DD894E",
"G. c #C58153",
"H. c #CC8252",
"J. c #C2815C",
"K. c #CE8159",
"L. c #CF8A5B",
"P. c #D38352",
"I. c #DC8551",
"U. c #D68851",
"Y. c #DC8952",
"T. c #D38259",
"R. c #DC8658",
"E. c #DC8C5A",
"W. c #E3844E",
"Q. c #EA864C",
"!. c #E58A4E",
"~. c #EB8B4E",
"^. c #F08E4E",
"/. c #ED934F",
"(. c #F1934F",
"). c #E38551",
"_. c #EB8651",
"`. c #E38A52",
"'. c #EB8D52",
"]. c #E38B59",
"[. c #ED8B5A",
"{. c #F18E51",
"}. c #F58F5E",
"|. c #ED9254",
" X c #E59155",
".X c #F39454",
"XX c #FB9554",
"oX c #F59854",
"OX c #FD9C54",
"+X c #F79959",
"@X c #FF9D5B",
"#X c #FAA05D",
"$X c #E38D60",
"%X c #FFA661",
"&X c #D1AF76",
"*X c #9B9C9C",
"=X c #A39C89",
"-X c #B4A790",
";X c #A6A9AD",
":X c #D39D94",
">X c #CD9A8E",
",X c #DFBE85",
"<X c #E5A99C",
"1X c #C1BCB3",
"2X c #F1AFA1",
"3X c #FCB6A8",
"4X c #F9B7A9",
"5X c #FDBCB0",
"6X c #EBB1A4",
"7X c #CAC09C",
"8X c #E3C288",
"9X c #F7D493",
"0X c #FFE39F",
"qX c #CCC6AB",
"wX c #FFC0B2",
"eX c #FFC6B9",
"rX c #FFCBBD",
"tX c #FFE4A1",
"yX c #BEC3CA",
"uX c #D3D9DE",
"iX c #E6E7E7",
/* pixels */
"`.D.S.S.S.A.A.D.A.A.A.A.D.D.F.D.A.A.S.A.A.A.!.A.@.@.3.3.3.#.#.8.5.3.7.7.6.*.3.*.-.%.$.&.%.5.%.*.%.7.",
"E.L.K.K.G.G.Z.G.G.G.L.C.P.G.H.L.P.H.C.J.n.G.w.&.6.*.T.P.H.T.P.t.t.y.y.t.T.T.P.T.R.T.T.T.P.T.T.U.e.;.",
" XR.S.P.C.C.H.G.P.U.H.H.C.U.Y.F.Y. XU.H.e.H.n.*.A.0._.Q.W.W.Q.W._.W.W.W.W.W.W.W.W.W.W.W.D.W.W.Q.4.;.",
" XR.P.P.H.H.H.w.G.P.U.C.H.U.U.U.U.Y.U.H.6.H.6.*.9.9.).I.W.D.).D.q.D.W.W.D.D.W.D.D.W.D.W.).W.W.Q.9.w.",
" XR.P.S.P.H.H.G.H.P.H.C.C.U.U.U.U.Y.H.e.w.H.w.*.q.q._.W.).).).u.W.W.).Q.W.W.).W.W.W.W.D.W.W.W.Q.0.;.",
"].I.y.P.H.C.H.G.C.H.P.P.C.U.U.U.U.Y.S.e.e.e.w.3.q.q._.W.W.).W.Q.W.W.W.u.I.).W.Q.W.W.W.D.W.D.W.Q.0.;.",
" XU.y.P.C.H.H.G.C.P.P.C.H.Y.U.U.U.W.P.G.e.e.w.%.4.9.D.q.q.q.q.W.D.W.W.W.W.D.D.W.D.W.W.W.W.W.u.Q.9.G.",
"].U.P.P.H.H.H.G.H.y.P.H.H.F.U.U.Y.Y.C.w.e.e.w.#.9.9.`.A.D.D.0.D.D.S.U.U.R.Y.Y.].`.].`.|.`.`.`.'.P.w.",
"].U.P.P.S.H.H.G.P.C.H.C.H.Y.Y.U.Y.S.e.G.e.w.w.#.q.A.].!.`.`.`.`.Y.Y.Y.Y.Y.R.Y.Y. XY.].`.'.`.].|.U.G.",
"].U.y.P.C.C.H.G.U.P.H.H.D.Y.U.U.U.P.S.w.e.e.w.#.D.D.`.F.`.`.Y.!.`.!.`.Y.`.!.`.F.F.!.F.F.).D.!._.S.G.",
"].T.P.P.P.P.L.G.H.S.H.P.Y.U.U.U.Y.H.7.G.e.H.w.3.D.D.!.`.`.`.`.F.`.F.!.F.Y.!.Y.`.`.Y.Y.`.`.`.!.`.C.n.",
"].U.S.y.P.S.C.G.P.P.H.H.F.U.F.U.Y.C.6.w.e.e.w.*.A.D.!.!.!.).`.`.~.`.`.`.`.`.`.`.`.`.F.Y.F.Y.Y.!.A.G.",
"`.I.P.S.P.P.G.G.P.P.H.7.I.U.U.U.U.P.7.w.e.e.7.&.S.S.Y.S.P.U.P.P.S.F.F.F.D.F.F.D.D.S.U.S.S.U.U.R.6.G.",
"].U.P.P.P.0.H.H.H.P.e.C.D.U.F.U.U.S.w.w.H.e.e.R o R 4.U.S.U.U.D.U.P.P.P.P.T.H.P.H.T.H.T.P.T.H.U.G.G.",
" XU.P.y.H.H.H.G.S.P.C.e.P.H.Y.Y.U.I.e.w.7.e.$., M e , ~ F.F.F.F.F.F.F.F.F.F.F.F.F.F.F.F.Y.F.F.F.4.G.",
"].U.y.P.S.P.G.G.P.P.H.H.P.P.Y.U.U.3.*.6.e.e.f F F Z H X ` F.F.F.F.F.F.F.F.F.F.F.F.`.F.F.F.F.F.!.4.Z.",
"].U.P.P.P.P.H.Z.S.y.G.C.H.P.U.Y.j o # U e.e.f 0 - e r M , U.`.Y.Y.`.`.Y.!.F.F.F.F.!.F.F.F.`.F.`.A.Z.",
"].I.P.S.P.P.H.G.H.H.C.G.H.S.Y.) b >Xl + U C.8 q M q w Z 1 # ! R.R.U.U.R.R.R.R.R.Y.Y.Y.Y.U.R.U. X4.n.",
"'.U.S.C.Z.H.H.G.P.P.H.H.S.U.S.5 <XeX<XU ; j 2 p.y 0 D x.( r = ~ F.F.U.Y.U.U.U.U.U.U.U.P.U.U.P.P.#.n.",
"].U.U.L.C.C.G.G.C.P.H.H.U.Y.*.8 4X4XeX:XQ p y l.u B Q d.h.p.B . C.!.Y.`.F.F.D.F.D.Y.D.Y.D.D.F.I.} n.",
"[.I.P.P.C.C.6.H.S.H.e.P.F.Y.3.s 4X4X4XeXB.H x.z.k.b.uXb.{ -X-X@ 3.I.).I.Y.D.!.`.`._._.).).W.W.'.A.;.",
"].U.P.P.Z.C.w.G.S.P.H.H.Y.I.Z.& <X5X2X:X1./ x.z.d.b.uX1XC -XiX5 9.!.8.I.!.`.).I.I.I.D.D.D.I.!._.4.Z.",
"[.U.P.P.C.7.6.G.C.P.H.H.F.Y.P.f N.eX2X,.f s.l.z.p.z & *Xa.5 yXs U > 2 A.`.W.q.P.D.D.P.P.`.D._.'.4.n.",
"'.I.7.S.6.6.w.e.S.P.P.S.S.P.F.` 5 4XwX5XN.F C C H w 7 ;X[ f ;X% : T Q.Q.^.~.~._.Q.).Q.Q.Q.W.~.!.9.G.",
"H.6.;.*.5.*.w.w.6.*.6.6.6.*.Z.w.U b 6XrX>X( z.J J V c =Xd o 7 , 8 I 8 g y.y.0.0.S.4.8.7.6.8.8.%.O.O.",
"S.w.*.3.*.*.6.6.Z.6.Z.6.6.;.4.6.6.U 5 ,. .i j.[ a + n qXM.m <.i o ) _ @.8.y.0.y.0.7.4.4.8.8.8.%.O.O.",
"].].].].R.E.].].].].].].].].R.R.T.T.$.f j : w Q m O = b 8 m o.- +.i.T.u.-.r.-.r.:.=.=.1.n.n.n.J.O.%.",
"XXXX.X~.'.~.!.!.!.~.~.~.~.(.(.^.^.^.{.'.'.0.X 1 7X1.9 * g 7X5 Y q.u.u.q.y.5.7.7.y.w.*.e.t.T.y.T.#.9.",
"XX~.~.~.~.~.~.~.~.~./.~.!.!.~.~.'.~.'.'.'.'.t d.z m | > c v o.u.y.u.u.u.7.6.H.7.w.6.w.r.y.H.r.t.&.S.",
"XX.X~.~.!.~.~.!.~.!.!.!.~.'.~.~.~.~._.!.'._ y v.P a *Xn # o.y.u.y.u.u.y.7.6.7.e.w.7.w.r.e.t.t.y.&.C.",
"^.~.!.!.!.~.~.~.~.!./.!.!.!.!.~.!.~.~.~.!.3 k.p.s./ V.m.6 ;.y.u.y.y.y.u.7.5.6.e.w.e.e.K.r.t.e.T.=.Z.",
".X|. X/.|.|.|..X.X/.|.|. X|. XS.Y.|.'.'.` y x.B s.p.8X9X5 $.y.u.y.u.y.y.7.w.e.e.7.w.H.T.e.r.e.K.*.*.",
"OXoX|./.oX/.oXoXoXoXoXoXoX` 2   . 3 3..XI N x.B l.L &XtXb +.3.0.P.y.y.y.7.7.7.7.7.w.K.T.w.r.t.T.-.H.",
"OXOX(.(./././././././././.} ] ] t . = W ] = z.L C ( ,XtX..- 3 6 y.u.y.y.7.w.w.e.w.w.K.y.e.w.e.t.-.7.",
"OX(./././././././././././././././.4.1 - e - N l.C I b.8X..P L = 2.u.y.y.7.5.7.e.7.e.t.T.e.t.e.t.-.P.",
"OX(./././.|././././././././././././.D.j 4 y L N h.f.Z ..f p t 8 y.y.y.y.7.6.7.e.7.w.t.y.e.r.e.t.-.S.",
"OXOX(.(.(./.(.(.(.(.(.(.(.(.(.(.(.(./.(.W., z.F A C m.b.q + j 2.u.y.y.y.7.7.e.7.6.e.G.y.t.t.r.T.=.P.",
"oX.X].'.'.~._.`.`.!._.`.!.!.!.`.`._.].'.~.E u K Z p f k.i k e.y.q.y.u.u.y.2.7.e.7.t.K.t.y.H.e.T.=.0.",
".X`.`.`.`.`.!.`.`.`.`.D.`.).`.`.`.'.'.'.!.D.3 k.c.F P p.: n.Z.u.u.y.u.u.7.5.e.e.6.e.K.t.y.y.r.i.-.D.",
".X~.!.W.!.`.`.!._.~.~.!.`.!.!.!.!.~.'.~.~.`.h L x.A z.N + 2 ` 0.y.y.u.u.y.5.e.e.e.7.G.r.H.e.t.i.-.P.",
"XX.X~.!.Y.!.!.`.!.Y.!.~./.!.`.`.!.`.~.'.^.' y x.L u Z K d.M X 7.u.u.u.u.0.6.H.7.7.7.e.r.t.t.e.y.-.q.",
"XX(.|.~.'.'.`.!.'.'.'.'.'._.`.!.'.~.'.~.!.h H v.x.x.k.y Z 4 6 7.u.u.u.u.7.6.e.e.w.7.e.r.e.e.t.K.-.A.",
"{.Q.F.!.!.!.!.!.!.!.W.W.W.!.!.W.!.!.!.`.!.9.3 y Z H K , # k 5.u.u.y.).u.e.5.7.e.w.e.e.r.e.e.t.t.%.q.",
".X`.F.F.D.D.F.F.F.`.F.`.F.F.F.F.F.Y.Y.|.|.|.S._ 6   + R G.w.5.u.u.y.u.u.e.5.e.e.w.7.e.t.t.t.e.t.-.q.",
"+X.X.X|.|.|.[.[.|.|.|.|.|.|.|.|..X|.|.|..X|.oXF.&.&.G.n.G.Z.6.u.u.y.u.u.7.5.e.7.e.7.e.T.e.e.t.K.-.0.",
"+X.X|.|.'..X|.|.|.[.|.|.|.|.|.{.|.{.|..X|.|.oX!.&.&.Z.Z.G.*.w.y.u.y.u.u.7.5.e.e.w.7.e.t.e.y.e.t.%.0.",
"+X|.'.'.'.'.'.'.'.{.'.{.'.'.[.'.'.'.'.'.'.'.|.S.&.&.G.G.H.*.3.u.u.u.u.u.6.6.e.7.7.C.e.t.e.t.e.r.-.9.",
"%X.X'.|.[.{.'.{.'.'.|.'.{.~..X~..X'.'.{.'..X|.A.$.&.G.H.H.*.%.I.q.u.u.u.7.6.7.e.C.7.t.t.e.t.t.H.-.9.",
"_.%XOXOX@X@X@X@X@X@X@X@X@X@X@X@X@X@X@X@X@X@X+X|.G.G.L.E.E.G.S.}.[.[._.[.u.i.].].R.].].$X$X$X$X$Xr._.",
"f ' ' ' ' ' ' ' ' ' ' ' ' ' ' ' ' ' ' ' ' ' @._ Y Y ~ Y ~ ~ E ` ` _ ) ` ) E E E ) ) ) ) ! ! ! ! Y ` "
};
