/* XPM */
static char *result[] = {
/* columns rows colors chars-per-pixel */
"50 50 177 2 ",
"   c #020201",
".  c #160D08",
"X  c #160D06",
"o  c #1B1109",
"O  c #261907",
"+  c #26180B",
"@  c #2B1B0D",
"#  c #2B1D06",
"$  c #281A12",
"%  c #33220C",
"&  c #39260D",
"*  c #3C280C",
"=  c #352214",
"-  c #3B2514",
";  c #3E2912",
":  c #3B2618",
">  c #442D0E",
",  c #4B320E",
"<  c #51370E",
"1  c #553A0E",
"2  c #5C3E0F",
"3  c #432C14",
"4  c #482E17",
"5  c #4B2E1C",
"6  c #502E1E",
"7  c #4B3113",
"8  c #4D331A",
"9  c #513614",
"0  c #5D3E12",
"q  c #52331C",
"w  c #58361D",
"e  c #613F18",
"r  c #583A22",
"t  c #653F25",
"y  c #62420F",
"u  c #624112",
"i  c #694611",
"p  c #6D4A13",
"a  c #754F13",
"s  c #755016",
"d  c #7C5414",
"f  c #6C4223",
"g  c #69412D",
"h  c #734624",
"j  c #764825",
"k  c #724528",
"l  c #74492B",
"z  c #7E4E29",
"x  c #754C31",
"c  c #794E31",
"v  c #7E5335",
"b  c #805714",
"n  c #855B16",
"m  c #8A5D16",
"M  c #8F6116",
"N  c #936317",
"B  c #946518",
"V  c #986618",
"C  c #9D6B19",
"Z  c #A26E1A",
"A  c #A6711B",
"S  c #AB741B",
"D  c #B57A1C",
"F  c #B87C1D",
"G  c #8D562F",
"H  c #8F582F",
"J  c #865434",
"K  c #8B5333",
"L  c #8E5834",
"P  c #8D5C3B",
"I  c #955C35",
"U  c #9A5C35",
"Y  c #935B3A",
"T  c #9A5E3A",
"R  c #9D623B",
"E  c #9D6237",
"W  c #A56336",
"Q  c #A3623A",
"!  c #A8643B",
"~  c #AB6B3C",
"^  c #B16C3B",
"/  c #956342",
"(  c #A56841",
")  c #AB6D47",
"_  c #A86542",
"`  c #B36D40",
"'  c #B86F45",
"]  c #B16F48",
"[  c #AA7049",
"{  c #BA7547",
"}  c #B5764B",
"|  c #BB754C",
" . c #B6784C",
".. c #BD794C",
"X. c #BC7945",
"o. c #B67652",
"O. c #B97651",
"+. c #BC7D52",
"@. c #BD7F58",
"#. c #B97761",
"$. c #C67843",
"%. c #CB7D47",
"&. c #C2764C",
"*. c #C47B4D",
"=. c #CB7B4E",
"-. c #C67547",
";. c #D07647",
":. c #D27D45",
">. c #D27D4B",
",. c #DA7E4A",
"<. c #C47D52",
"1. c #CB7E53",
"2. c #C57C5A",
"3. c #CD7E58",
"4. c #D47D52",
"5. c #DA7E51",
"6. c #D07F58",
"7. c #BE801E",
"8. c #C4841F",
"9. c #C8871F",
"0. c #C9891F",
"q. c #C78720",
"w. c #C88720",
"e. c #CC8A20",
"r. c #D28E21",
"t. c #D69122",
"y. c #DB9422",
"u. c #E09723",
"i. c #E39A24",
"p. c #E89D24",
"a. c #ECA025",
"s. c #BD805F",
"d. c #C6804D",
"f. c #CD814E",
"g. c #D38147",
"h. c #D4824D",
"j. c #DC844D",
"k. c #DE894F",
"l. c #C58153",
"z. c #CC8252",
"x. c #C2815C",
"c. c #CE8159",
"v. c #CF8A5B",
"b. c #D38352",
"n. c #DC8551",
"m. c #D68851",
"M. c #DC8952",
"N. c #D38259",
"B. c #DC8658",
"V. c #DC8C5A",
"C. c #E3844E",
"Z. c #EA864C",
"A. c #E58A4E",
"S. c #EB8B4E",
"D. c #F08E4E",
"F. c #ED934F",
"G. c #F1934F",
"H. c #E38550",
"J. c #EB8651",
"K. c #E48A52",
"L. c #EB8D52",
"P. c #E38B59",
"I. c #ED8B5A",
"U. c #F18E52",
"Y. c #F58F5E",
"T. c #E79155",
"R. c #ED9254",
"E. c #F39453",
"W. c #FB9554",
"Q. c #F59854",
"!. c #FD9C54",
"~. c #F79959",
"^. c #FF9D5B",
"/. c #FAA05D",
"(. c #D88762",
"). c #E38D60",
"_. c #FFA661",
/* pixels */
"K.j.h.j.g.g.g.j.h.g.g.g.j.j.j.j.g.g.h.g.h.g.S.g.' ' -.&.&.{ { =.-.&.=.=.....| ....+.| } | | { O.| f.",
"V.v.c.x.l.l.d.l.l.l.v.f.b.z.z.v.m.z.f.s.@.l.@.} ..$.b.b.b.z.4.3.3.6.4.3.b.N.N.5.N.b.N.N.N.5.b.B.=.s.",
"T.B.h.b.f.f.z.l.z.m.b.z.f.m.M.M.M.T.m.z.1.1.@.X.:.g.J.C.Z.C.C.C.C.Z.Z.C.C.C.C.C.C.C.C.C.H.j.H.Z.%.s.",
"T.B.b.b.z.z.z.l.z.f.m.f.f.m.m.m.m.M.m.z.<.z.<...>.>.H.C.n.j.j.C.H.,.j.C.j.C.j.C.h.C.j.C.C.C.C.Z.:.<.",
"K.B.b.h.b.z.z.<.z.z.m.z.f.m.m.m.m.M.h.<.1.z.<...,.,.J.C.C.H.H.C.C.C.C.C.C.C.H.C.C.C.j.C.C.j.j.Z.:.s.",
"T.n.b.b.f.z.z.l.f.b.z.f.z.m.m.k.m.M.z.<.1.z.<.&.,.,.J.C.H.H.H.C.C.C.5.C.H.H.C.C.C.C.H.C.C.H.H.Z.:...",
"P.m.b.4.f.z.z.l.z.b.b.f.z.M.m.m.m.H.z.1.1.1.<.| %.:.j.,.,.,.,.C.j.C.C.C.C.j.j.C.C.H.C.C.j.C.j.Z.,.s.",
"P.B.b.b.z.z.z.l.z.h.b.1.z.k.m.m.M.j.f.z.1.1.<.{ :.:.C.j.j.h.h.,.k.b.j.m.V.m.M.V.K.K.K.T.J.K.H.T.g.d.",
"P.m.b.b.z.b.z.l.f.h.z.z.b.M.m.m.M.z.=.1.1.1.<.{ g.j.T.K.K.P.K.H.M.M.m.M.m.B.M.M.T.K.K.T.L.K.L.R.m.l.",
"K.m.b.b.h.b.z.l.z.m.z.z.j.m.m.m.m.h.z.l.1.1.<.} ,.j.A.M.K.H.M.A.K.M.K.K.K.A.A.K.k.M.k.M.n.H.j.C.g.l.",
"P.b.b.b.m.f.z.l.z.h.b.z.n.m.m.m.m.h.=.<.1.<.<.$.j.A.A.K.K.K.K.k.M.A.k.M.H.M.A.M.M.H.H.M.K.K.T.T.g.s.",
"K.b.b.4.f.m.z.l.z.b.4.z.k.m.m.k.m.z.=.<.1.1.<...g.g.A.H.K.H.K.A.S.K.S.J.K.K.K.K.K.K.A.M.k.m.m.A.d.l.",
"T.b.n.b.b.f.z.l.m.b.z.1.j.m.m.m.m.b.*.<.1.1.1. .h.h.k.h.h.b.h.b.B.n.M.k.j.m.k.k.m.b.h.b.b.n.m.H.d.f.",
"I.b.b.b.h.b.l.z.z.b.z.=.j.J 7 s > I =.<.R J ] x %.f.h.m.m.m.d.l l l ..h.b.b.z.z.z.b.b.b.z.b.z.N.<.l.",
"T.b.b.4.z.z.z.l.h.b.z.1.Q > r.i.e.2 P <.Y X :   Q g.A.k.k.Q q y C p f k.k.k.k.k.k.k.M.M.M.k.k.k.%.l.",
"T.N.b.b.b.h.l.l.b.b.f.z.$ n i.t.u.r.9 P z.@ * > e G $.k.E % S p.p.i.2 ~ k.k.k.k.k.A.k.k.k.k.k.k.%.d.",
"P.b.b.b.z.m.z.d.h.z.l.z.@ S y.r.r.y.9.& 3 s 8.8.8.d 4 K & F u.r.e.p.M - k.k.m.M.A.M.k.k.k.k.k.A.f.d.",
"T.n.b.h.m.f.z.l.b.b.=.l.* F y.r.r.r.u.A m p.y.t.y.p.N # D i.r.r.t.y.C o M.B.M.M.M.M.M.B.V.M.M.T.%.l.",
"P.n.b.z.f.l.l.z.z.b.z.=.+ A y.t.r.r.r.y.t.r.r.r.r.r.e.8.y.r.r.r.t.i.n = m.m.m.m.m.b.m.b.m.b.m.b.X.+.",
"P.n.b.m.f.f.l.z.b.h.l.1.f s i.r.r.r.r.r.t.r.r.r.r.r.r.y.r.r.r.r.t.y.7 Q k.n.H.k.j.M.j.k.n.j.j.M.%.s.",
"T.b.b.b.f.f.*.l.h.b.1.z.` % 8.i.r.r.r.r.r.r.r.r.r.r.r.r.r.r.r.y.p.n q >.k.k.A.K.J.J.H.K.C.C.C.J.>.+.",
"P.n.b.b.f.f.<.l.f.b.z.b.M.E & S u.y.r.r.r.r.r.r.r.r.r.r.t.i.u.r.n w h.J.K.H.H.n.n.m.n.j.j.n.A.K.%.+.",
"I.b.n.b.f.d.*.z.b.h.z.z.m.m.R 8 , B r.r.r.r.r.r.r.r.r.r.8.n u > h g.K.J.A.M.n.h.j.n.h.j.H.A.J.L.=.+.",
"T.n.z.h.*.*.<.<.h.1.b.h.h.h.k.J @ b i.r.r.r.r.r.r.r.r.t.8.% -.;.C.Z.Z.Z.Z.D.S.A.Z.A.J.C.C.C.S.Z.>.z.",
"h.=.......O.<.*.d.*.*...<.....( c , y.y.t.e.t.e.r.r.r.i.C - q _ =.=.;.4.1.>.4.>.=.%.*.=.*.-.*.&.) ) ",
"f.<...*.*...*.<.*.*.*.d.<...=.=.=.= < 0.i.y.t.t.y.y.i.F = &.E _ 4.4.1.;.=.=.>.4.h.%.%.=.=.%.-.| ) ) ",
"P.P.P.P.V.V.P.P.V.P.K.P.P.K.B.B.P g v * A S q.t.D 8.V 3 $ / 2.(.5.(.(.5.O.O.2.O.2.o.o.#.@.@.s.s.)  .",
"W.W.D.S.S.S.A.A.A.S.S.S.S.G.G.D.G.D.L.^ + 0 A t.M 1 o } P 5 1.C.,.5.5.,.=.=.=.4.4.....2.6.6.5.3.{ g.",
"W.G.S.A.S.S.S.S.S.S.S.S.A.K.S.S.S.J.L.I i y.e.e.t.8.7 [ +.} f.j.4.5.5.5.=.*.=.1.1.=.@.@.3.3.1.6. .h.",
"W.E.S.S.S.S.S.S.A.A.S.S.S.S.S.S.S.S.:.> 0.r.t.t.t.y.d v ..s.b.5.4.,.5.4.=.=.<.1.l.=.<.2.1.1.1.3.o.f.",
"D.Z.A.A.S.A.S.S.F.A.F.A.A.S.A.A.S.C.5 Z 7.A t.t.8.A D q +...4.n.4.4.4.4.=.*.=.z.<.=.3.3.1.3.1.N.} f.",
"E.R.T.F.R.R.R.R.E.R.R.R.T.T.T.T.T.h., y.C S y.t.e.B 0.8 } +.4.5.4.4.4.4.=.*.=.1.=.*.N.6.3.1.2.N. ...",
"!.Q.R.R.E.E.R.Q.Q.Q.Q.Q.Q.G.G.Q.G.H d y.n 9.r.r.t.V e.a v o.b.5.4.4.4.4.=.&.1.=.*.2.N.z.1.2.3.6.O.<.",
"!.!.F.G.F.F.G.G.G.G.F.F.F.F.G.F.F.z F D M e.S 7.y.S S A x +.4.5.4.5.4.4.=.*.1.4.&.1.z.N.1.<.1.3.O.z.",
"!.G.F.F.F.F.R.F.F.F.F.F.F.F.F.F.j.< 0.n F t.0.r.y.w.d S 4 } 4.4.5.5.4.4.=.*.1.=.=.1.3.N.1.1.2.6.O.b.",
"!.G.F.F.F.F.F.F.F.F.F.F.F.F.F.F.H d n s t.t.t.9.S V 1 n 0 +.4.4.4.4.4.4.=.&.=.1.=.<.z.6.2.1.3.6.O.>.",
"!.!.G.G.F.G.G.G.G.G.G.G.G.G.G.G.j 2 * n y.r.e.Z B m d i > P 4.4.4.5.4.4.=.&.1.1.<.1.z.3.3.3.1.3.} b.",
"Q.G.K.L.K.L.K.S.K.K.J.A.A.A.S.K.$.Q f C i.y.t.F S 9.y r 8 O 3 - 5 -.5.5.4.&.=.4.*.1.c.3.6.4.1.N.O.b.",
"E.L.H.M.K.K.K.K.K.A.M.n.M.H.K.H.K.J.U S 9.S e.q.8.u.u / ..c @ 6 K -.5.5.4.2.&.1.=.1.c.1.3.4.1.3.O.>.",
"E.L.H.A.K.S.A.K.L.S.F.S.A.K.A.A.S.C.h A e.m , 7 C r.0 t [ +.&.4.4.4.5.5.;.&.1.1.*.=.z.1.1.3.3.3.O.n.",
"W.E.S.A.A.M.A.H.A.M.A.S.D.A.H.H.j.w a Z i.r.p q 0.8.M D ; } *.4.5.4.5.5.>.*.1.=.1.=.1.2.6.3.4.3.O.,.",
"W.E.S.A.J.L.K.S.L.J.L.L.L.K.A.L.g.% F r.p.r.h q 7.y.t.q.- +.&.5.4.4.5.5.=.*.1.1.<.=.1.2.1.1.3.3.O.j.",
"U.C.k.A.A.A.A.A.A.A.C.A.j.A.A.A.A.I 3 n Z d j w M F m & P *.&.5.5.4.5.H.1.&.=.z.*.1.1.2.1.1.1.3.| g.",
"E.K.k.k.k.k.k.M.k.K.M.k.k.k.k.k.M.k.X.l X 5 C.H O @ $ / l.+.&.5.5.4.H.5.=.&.1.1.1.=.1.2.3.3.1.6.O.,.",
"~.E.E.R.L.R.R.R.R.R.R.R.R.R.R.L.R.R.R.R.R.R.!.M. . .l.l.l.d...5.5.4.5.5.=.&.1.=.<.=.3.N.1.1.3.6.+.;.",
"~.Q.E.R.E.L.I.T.R.R.I.E.R.R.R.E.R.E.R.E.R.R.Q.k. . .<.d.l.*.*.5.5.5.5.5.=.&.1.1.=.=.1.c.1.3.1.3.+.;.",
"~.R.L.L.U.I.L.L.L.L.L.L.L.U.I.L.U.L.U.L.S.R.E.h.} } l.l.z...&.5.5.5.5.5.&.=.=.1.f.1.3.1.3.1.3.1.O.;.",
"_.E.L.L.L.L.U.L.U.L.L.U.L.R.S.L.S.R.L.L.U.U.R.g.}  .l.z.z...| n.,.5.5.5.*.*.z.=.f.=.1.3.1.1.1.3.| :.",
"L._./.!.^.^.^.^./.^.^.^.^./.^.^.^.^.^.^.^.^.^.L.l.l.v.V.V.l.h.Y.Y.I.I.I.5.5.P.B.B.P.P.).).).).).3.S.",
"t ^ ^ ^ ^ ^ ^ ^ ^ ^ ^ ^ ^ ^ ^ ^ ~ ^ ^ ^ ^ ^ ^ ! I U E I U E E Q W ! Q W T T T T W Q Q Q R R / R Y W "
};
