/* XPM */
static char *result[] = {
/* columns rows colors chars-per-pixel */
"50 50 228 2 ",
"   c #050506",
".  c #130D0A",
"X  c #14181E",
"o  c #251808",
"O  c #241A15",
"+  c #321E11",
"@  c #35220D",
"#  c #3D2A0B",
"$  c #3F2805",
"%  c #2A2115",
"&  c #37251B",
"*  c #1F262F",
"=  c #372D25",
"-  c #2F3339",
";  c #452E0B",
":  c #4B320E",
">  c #54380D",
",  c #573A0D",
"<  c #432C13",
"1  c #492F10",
"2  c #4D3115",
"3  c #4C311B",
"4  c #54351D",
"5  c #553B1A",
"6  c #613D1E",
"7  c #4A3727",
"8  c #563825",
"9  c #593E34",
"0  c #453E33",
"q  c #643D24",
"w  c #683E28",
"e  c #662427",
"r  c #69440B",
"t  c #7D530D",
"y  c #6E4A12",
"u  c #644215",
"i  c #755015",
"p  c #7A5315",
"a  c #754D0D",
"s  c #574537",
"d  c #684728",
"f  c #734527",
"g  c #72472C",
"h  c #724A2C",
"j  c #774A28",
"k  c #7E5824",
"l  c #794E32",
"z  c #6C5134",
"x  c #58544A",
"c  c #524D44",
"v  c #795744",
"b  c #7C5D55",
"n  c #7C6644",
"m  c #7F796C",
"M  c #980C1B",
"N  c #B41423",
"B  c #87590C",
"V  c #865B17",
"C  c #945F0C",
"Z  c #936415",
"A  c #9E6B19",
"S  c #986517",
"D  c #966515",
"F  c #AE700F",
"G  c #A46E14",
"H  c #AB7214",
"J  c #A7721D",
"K  c #AD751B",
"L  c #B4791C",
"P  c #BB7D1B",
"I  c #B87811",
"U  c #A06705",
"Y  c #834F2D",
"T  c #86532E",
"R  c #8B5636",
"E  c #955C3A",
"W  c #995D36",
"Q  c #986C29",
"!  c #8D6930",
"~  c #9D623C",
"^  c #92603C",
"/  c #967337",
"(  c #8D6127",
")  c #B67E24",
"_  c #A4613A",
"`  c #A8643B",
"'  c #A86538",
"]  c #B16D3B",
"[  c #B46739",
"{  c #A17834",
"}  c #BA723E",
"|  c #A6772A",
" . c #9A6641",
".. c #876258",
"X. c #9B7E50",
"o. c #AB6D46",
"O. c #A66440",
"+. c #B96E45",
"@. c #B56E46",
"#. c #BA7546",
"$. c #B5764B",
"%. c #BB754C",
"&. c #B6784B",
"*. c #BD794D",
"=. c #B57345",
"-. c #AB7B58",
";. c #B67652",
":. c #B97651",
">. c #BE7D53",
",. c #BD7F58",
"<. c #8B7763",
"1. c #8E6B63",
"2. c #BC7468",
"3. c #AF7E63",
"4. c #C8585C",
"5. c #C47546",
"6. c #CC7D47",
"7. c #C3764B",
"8. c #C47B4D",
"9. c #CB7B4E",
"0. c #CB764C",
"q. c #D27D45",
"w. c #D27D4B",
"e. c #D97E49",
"r. c #C57D52",
"t. c #CB7E53",
"y. c #C57B5A",
"u. c #CD7E58",
"i. c #D47D52",
"p. c #DA7E51",
"a. c #D07F58",
"s. c #B48230",
"d. c #C3831C",
"f. c #C88619",
"g. c #DF951E",
"h. c #D08712",
"j. c #CC8B21",
"k. c #D28E21",
"l. c #DE9622",
"z. c #D59022",
"x. c #E49A22",
"c. c #EA9F25",
"v. c #EFA125",
"b. c #A78346",
"n. c #BD805F",
"m. c #B4935B",
"M. c #AD884B",
"N. c #958968",
"B. c #88876B",
"V. c #AF8871",
"C. c #BAA16F",
"Z. c #CD814D",
"A. c #C6804D",
"S. c #D38047",
"D. c #D4824D",
"F. c #DC844D",
"G. c #DD894E",
"H. c #C58153",
"J. c #CC8252",
"K. c #C2815C",
"L. c #CE8159",
"P. c #CF8A5B",
"I. c #D38352",
"U. c #DC8551",
"Y. c #D68851",
"T. c #DC8952",
"R. c #D38259",
"E. c #DC8658",
"W. c #DC8C5A",
"Q. c #C49B5D",
"!. c #E3844E",
"~. c #EA864D",
"^. c #E58A4E",
"/. c #EB8B4E",
"(. c #F18E4E",
"). c #ED934F",
"_. c #F1934F",
"`. c #E48650",
"'. c #E48B52",
"]. c #EB8D52",
"[. c #E38B59",
"{. c #EC8956",
"}. c #F28F56",
"|. c #E79155",
" X c #ED9254",
".X c #F39453",
"XX c #FB9554",
"oX c #F59854",
"OX c #FD9C54",
"+X c #F79959",
"@X c #FF9D5B",
"#X c #FAA05D",
"$X c #C08E7E",
"%X c #CC9679",
"&X c #E38D60",
"*X c #CAA870",
"=X c #FFA661",
"-X c #9B9485",
";X c #A49A85",
":X c #A39F8B",
">X c #A8A498",
",X c #BBB49A",
"<X c #B6AE97",
"1X c #BEBAA2",
"2X c #CC9A91",
"3X c #CC988D",
"4X c #D7A39A",
"5X c #E3A89B",
"6X c #EAADA1",
"7X c #E6ACA3",
"8X c #FDBBAD",
"9X c #F5B3A4",
"0X c #FDBDB3",
"qX c #EAB0A2",
"wX c #DDC08B",
"eX c #F2CF91",
"rX c #FFD594",
"tX c #FEDB9A",
"yX c #F6D597",
"uX c #E8C589",
"iX c #D5CEBC",
"pX c #FFC5BD",
"aX c #FFC9B9",
"sX c #FFC5B6",
"dX c #FEFAD9",
"fX c #D4DDE8",
"gX c #DFE6ED",
"hX c #D8DFE6",
/* pixels */
"'.F.D.F.S.S.S.F.D.S.S.S.!.F.F.S.S.D.D.D.D.S./.S.=.+.7.7.7.#.#.0.7.7.0.0.8.%.%.8.*.:.%.&.%.%.#.*.%.A.",
"W.P.L.K.H.H.A.H.H.J.P.A.I.H.P.Y.Y.I.A.n.,.H.>.$.*.7.I.i.I.I.I.t.u.i.a.a.I.I.R.i.R.I.R.R.p.I.R.E.t.>.",
"|.E.D.I.Z.Z.J.H.Z.Y.Y.J.J.Y.T.T.^.[.Y.J.t.t.>.*.q.D.{.!.~.!.`.~.!.~.!.!.`.^.!.!.!.!.^.!.F.!.!.~.q.r.",
"|.E.I.I.J.J.J.r.J.J.I.A.Z.Y.Y.Y.Y.T.Y.J.r.J.r.*.q.q.~.F.U.F.F.U.`.e.!.!.F.F.F.`.F.F.!.F.!.!.!.~.q.>.",
"[.Y.I.i.I.D.J.H.J.J.I.J.Z.Y.Y.Y.Y.T.D.H.t.J.H.*.e.e.{.`.`.`.`.!.~.!.!.!.!.`.!.!.!.`.!.F.`.!.!.~.q.n.",
"[.U.I.I.J.J.J.H.J.I.I.Z.J.Y.Y.Y.Y.T.J.r.t.t.r.7.e.e.~.`.p.~.`.!.p.!.p.~.`.!.!.^.`.e.!.F.`.e.!.~.6.>.",
"|.E.I.I.J.J.H.H.J.D.I.Z.J.U.Y.Y.T.'.Z.t.t.t.r.%.q.q.S.e.e.e.e.e.!.F.!.F.!.F.F.!.!.^.!.^.e.!.F.~.q.H.",
"[.Y.I.w.I.J.J.H.J.I.I.J.Z.T.Y.Y.G.D.Z.t.t.t.r.=.q.q.`.F.F.e.F.U.Y.Y.U.Y.T.U.U.'.'.[.].'.{.].[.[.I.r.",
"[.Y.I.I.Z.I.J.H.J.I.I.J.I.T.Y.Y.Y.I.J.r.t.r.r.=.e.e.].'.[.'.'.'.T.T.U.Y.W.T.T.W.'.T.[.'.'.'.[.].Y.H.",
"'.Y.I.I.I.Z.J.H.Y.Z.J.J.U.Y.G.Y.Y.D.Z.t.t.t.t.#.F.S.'.T.^.'.T.!.T.^.'.'.`.^.'.T.T.^.G.G.`.^.!.].D.H.",
"[.I.I.i.Y.Z.P.H.J.D.J.t.F.Y.Y.Y.Y.D.9.H.t.J.r.*.F.F.^.^.'.^.'.G.'.G.^.T.T.'.T.'.'.'.T.'.[.'.^.'.Z.>.",
"[.I.I.I.Z.Y.Z.H.I.I.I.Z.U.G.T.Y.Y.J.8.r.t.t.J.#.F.F.'.T.`.'.'.'./.'.'./.'.'.^.'.'.T.G.G.G.G.T.^.Z.H.",
"[.U.I.i.D.J.J.H.J.Y.J.t.F.Y.Y.Y.Y.D.t.r.J.t.t.%.D.D.U.D.I.Y.I.I.Y.G.G.T.F.G.Y.G.G.F.D.I.D.Y.Y.T.J.H.",
"[.Y.I.I.D.I.H.J.J.I.J.9.F.Y.Y.Y.Y.U.8.r.9.t.t.%.Z.Z.D.Y.D.Y.Y.F.Y.Y.D.J.J.I.I.J.J.L.I.J.I.L.L.I.r.H.",
"|.Y.I.D.J.J.J.H.D.I.t.t.I.Y.Y.G.Y.U.t.r.t.t.J.=.S.] @ } G.G.G.G.G.G.G.G.G.G.G.G.G.T.T.T.^.T.G.G.6.A.",
"[.Y.p.i.I.D.H.H.I.I.Z.J.I.Y.Y.A.h j g %.t.t.A.=.Z.f   3 S.G.G.Z.T f T G.G.G.G.G.^.^.G.G.G.G.G.G.6.H.",
"[.U.I.D.Y.Y.J.H.D.I.J.8.J.I.i.8 t H B 5 E t.#.~ d o o l ^.G.#.; r T u q W.!.^.G.F.G.^.G.T.T.T.|.Z.A.",
"[.I.I.I.Z.Z.J.H.I.J.J.J.J.I.q 7 %X%X-.Z : l @ p A J A : d =.1 i 3.7X6Xs U.W.T.W.W.T.W.Y.T.T.T.'.6.r.",
"[.U.Y.I.J.J.H.J.Z.I.t.H.Y.Y.o 3.pX0X0XV.V : > A x.l.x.t # ; p V.0X0X0Xv Y.Y.Y.Y.Y.I.D.Y.Y.Y.Y.I.*.*.",
"].Y.I.J.Z.Z.H.J.D.I.J.H.F.G.7 5XsX9X0XpX-.B 5 b ) g.P d i G -.pX8X8X9X9 G.U.T.F.F.T.!.F.F.U.F.F.6.n.",
"[.E.D.I.Z.Z.r.H.J.i.t.J.G.Y.& 3XsX5X..4X-.U -XgXb.f.m.fXb.Z 4X4X9X0X3X< T.F.'.'.'.].`.`.`.!.`.].q.n.",
"[.Y.I.Y.Z.A.8.J.D.I.J.I.'.Y.O 1.aX8X..5 L P iXiXb.J >XgX&.L v b 9XsX..R ^.'.^.F.U.U.U.F.F.U.!.].6.>.",
"{.Y.I.I.A.A.8.J.D.I.J.J.U.Y.%.7 qXaX6Xk h.G -X- u J * m L f.h 7XaX7X8 5.'.U.F.I.F.U.F.F.`.!.'.].6.n.",
"{.U.J.w.8.8.r.t.Z.J.I.D.D.Y.^.` 9 2X3XJ l.d./ - @ # X d L g.Q 2X2X9 [ ~.(.(./.~.!.~.`.!.^.!.~.~.q.A.",
"Z.r.>.*.*.*.8.r.8.*.A.8.A.*.8.A.g . % , y C B -Xc   x ! d.F C % g +.i.0.t.w.w.I.D.A.6.0.8.6.0.%.o.o.",
"D.8.*.7.8.%.r.8.A.8.8.8.8.>.9.*.l l s c ,Xz O <.1X>X,X= 5 B.3 . O.i.0.i.t.w.w.w.q.8.6.8.6.0.8.%.o.o.",
"[.[.[.[.W.W.[.[.[.[.W.'.W.'.E.E.R.E.~ % N.iX:X. % = O c ,X-X= R + +.a.E.:.:.y.y.y.;.;.2.,.3.K.K.o.&.",
"XXXX.X/././.^.^.^././././._.(.(./._ @ T 7 iXdXb M N e 1X:Xh 7 d 0.e.p.p.0.t.0.9.I.*.>.t.i.a.i.a.=.S.",
"XX/./././././.^././././.^.'./././.F.^./.!.d 0 N.2.4...s d >.%.q w p.p.p.9.8.9.t.r.9.r.,.t.t.u.t.&.D.",
"XX.X/./././././.^.^./././././.]././.].^.].T , ) N.B./ F 5 >.I.p.0.i.p.i.9.8.t.t.t.8.y.y.u.t.u.a.;.Z.",
"(./.^.^././././.).^./.^.^./.^.^.^././.~.S.> k.h.I F f.c.u  .i.p.i.p.i.i.9.0.9.J.8.t.t.t.y.t.t.R.&.A.",
".X X).|.).|. X XoX X X X|.|.|.|.|. X X].] p d.Q b.b./ H ) 3 U.p.w.i.i.i.9.8.9.t.r.r.I.R.t.u.t.R.:.*.",
"@XoX). X.X XoXoXoXoXoXoXoX_._._._._._._.u P B m.yXyX*Xt z.6 ` p.p.p.i.i.t.0.t.t.8.t.I.R.t.t.t.t.:.H.",
"OXOX)._.).).).)._.).).).)._._._.).)._.F., d.k uXtXtXuXk P K w e.p.p.i.i.0.8.9.t.r.9.L.a.y.y.u.u.:.J.",
"OX_.).).).). X).).).).). X).).)._.)./.j L A / tXrXrXeX! H k.3 i.i.i.i.i.0.8.t.w.8.t.I.I.t.t.t.u.:.D.",
"OX_.).).).).).).).).).).).).).).).).G.; d.a m.tXrXrXeX{ B J < 0.p.i.i.i.9.8.t.t.r.r.J.a.y.y.u.a.:.i.",
"OXOX)._.)._._._._..X.X_._._._._.(._.} , p r Q.tXrXrXeX| # # 3 i.i.i.i.i.i.0.9.t.8.t.J.a.t.u.t.a.$.I.",
"oX_.].'.'.].].'.^.^.^.^./.^.^.'.^.j , : 4 B M.yXrXtX*XK < ! 7.i.p.i.p.p.0.7.9.t.r.t.L.a.I.a.u.a.:.I.",
".X].`.'.'.'.'.'.'.'.U.T.'.'.'.'.T o q +.T D s.*XyXwXs.f.3 &.t.i.p.i.p.p.i.7.t.t.9.t.J.y.i.a.t.u.:.w.",
".X].'.!.^.'./.^.]./././.^.^.^.6.. Y (.(.f Z x.Z 7 d K d.< >.9.p.i.i.p.p.0.7.t.t.9.9.H.u.t.t.u.a.:.U.",
"XX.X/.^.^.'.G.^.!.`.^././.'.^.F.] './.} Y Z x.f.@ , v.P 8 R 0.i.p.i.p.p.9.8.9.t.r.9.t.y.t.u.a.a.:.e.",
"XX.X]./.'.'.].].'.].].].].]./.'././.Y y S k.v.K l d g.x.A , 3 +.p.p.p.p.9.8.J.J.r.9.t.y.t.t.t.u.:.e.",
"(.^.F.^.^.^.^.^.^.^.!.!.!.^.^.!.^.D.3 Z j.d.Z ; ^ j p s.f.A ; E p.i.p.U.t.0.t.9.9.9.t.y.t.u.t.a.%.e.",
".X'.G.G.G.G.T.T.^.T.'.G.G.T.G.G.G.G.=.@ 6 o f =.&.$.l o < o w 0.p.i.`.p.9.7.t.9.r.t.t.u.u.t.t.a.:.w.",
"+X.X}. X}. X].{. X X X X X X X X.X X X X X XoXG.&.&.H.H.H.A.>.p.p.i.p.p.9.8.t.t.t.9.t.L.t.t.t.a.%.w.",
"+X.X+X X]..X|. X}. X]. X X X X]. X X X.X.X.XoXG.&.&.H.A.H.A.7.p.p.i.p.p.0.8.9.t.t.t.t.u.t.u.u.u.%.w.",
"+X X].].].].].}.].].].}.].].].}.}.]./.}.].]. XD.&.&.n.Z.J.:.7.p.p.e.p.p.8.0.I.9.9.A.t.u.u.t.t.u.%.w.",
"@X.X].].}.].].].].].].].}.).].].].).].].].}. XD.=.&.H.Z.J.:.7.`.p.p.p.p.8.8.t.9.9.t.t.u.t.u.t.u.%.q.",
"].=X@X@X@X@X@XOX@X@X@X@X@X@X@X@X@X@X@X@X@XOX@X Xn.A.P.W.W.J.S.}.{.{.{.{.E.a.[.[.[.[.[.&X&X&X&X&Xy.].",
"d ] ] ] ] ] ] ] ] ] ] ] ] ] ] ] ] ] ] ] ] ] @.` W W ( W ~ ^ W ' ` ` _ _ ~ W ~ W _ _ ~ ~ ~ ~ O.W E _ "
};
