/* XPM */
static char *result[] = {
/* columns rows colors chars-per-pixel */
"50 50 214 2 ",
"   c #190E06",
".  c #1D130A",
"X  c #2A1B0A",
"o  c #2F1D11",
"O  c #351810",
"+  c #3D290D",
"@  c #3D260C",
"#  c #3A2717",
"$  c #26241F",
"%  c #2C2927",
"&  c #5B0900",
"*  c #4F3509",
"=  c #573A0D",
"-  c #4D2F1B",
";  c #472C15",
":  c #4D3314",
">  c #4D311C",
",  c #523615",
"<  c #5C3D12",
"1  c #57371B",
"2  c #502A14",
"3  c #633D1E",
"4  c #493724",
"5  c #5E3D22",
"6  c #5B3D29",
"7  c #423E36",
"8  c #51362A",
"9  c #663D23",
"0  c #71080D",
"q  c #6A460E",
"w  c #664510",
"e  c #6C4911",
"r  c #6F501E",
"t  c #775114",
"y  c #7D5516",
"u  c #744E11",
"i  c #594127",
"p  c #564539",
"a  c #6C4429",
"s  c #75492B",
"d  c #755323",
"f  c #744A30",
"g  c #655136",
"h  c #775E34",
"j  c #7A653B",
"k  c #353942",
"l  c #53514E",
"z  c #615B4C",
"x  c #71534A",
"c  c #7B766C",
"v  c #9D393D",
"b  c #815713",
"n  c #835915",
"m  c #895D15",
"M  c #805919",
"N  c #85560F",
"B  c #8E6118",
"V  c #946417",
"C  c #966518",
"Z  c #996718",
"A  c #9B6A18",
"S  c #9A6714",
"D  c #9D650B",
"F  c #A16D19",
"G  c #A36C13",
"H  c #AD751B",
"J  c #B57B1C",
"K  c #BB7E1B",
"L  c #B47919",
"P  c #A36A0D",
"I  c #854D2C",
"U  c #855533",
"Y  c #85563A",
"T  c #9A5E36",
"R  c #945C3A",
"E  c #995E3A",
"W  c #965B32",
"Q  c #845129",
"!  c #A05D3B",
"~  c #866226",
"^  c #81683D",
"/  c #9D623C",
"(  c #997130",
")  c #B57D23",
"_  c #A3623A",
"`  c #A9643B",
"'  c #A86439",
"]  c #B26D3B",
"[  c #C37B06",
"{  c #815F58",
"}  c #9B5A56",
"|  c #9A6541",
" . c #976144",
".. c #997641",
"X. c #87635E",
"o. c #827151",
"O. c #AA6D46",
"+. c #A66743",
"@. c #B46E42",
"#. c #B86F45",
"$. c #BA7546",
"%. c #B5764B",
"&. c #BB754C",
"*. c #B6784C",
"=. c #BD794D",
"-. c #B67652",
";. c #B97651",
":. c #BD7D52",
">. c #BD7F58",
",. c #AF734B",
"<. c #827765",
"1. c #9D7569",
"2. c #A57961",
"3. c #B97761",
"4. c #CC7C47",
"5. c #C3774C",
"6. c #C47B4D",
"7. c #CB7B4E",
"8. c #C57748",
"9. c #D27D45",
"0. c #D27D4B",
"q. c #DA7E4A",
"w. c #C47D52",
"e. c #CB7E53",
"r. c #C57B5A",
"t. c #CD7E58",
"y. c #D47D52",
"u. c #DA7E51",
"i. c #D07F58",
"p. c #BF811E",
"a. c #B4802E",
"s. c #CD891A",
"d. c #C7851A",
"f. c #D7911F",
"g. c #D28C1C",
"h. c #E89B1F",
"j. c #CD8C21",
"k. c #D28E21",
"l. c #D69122",
"z. c #DC9523",
"x. c #E79D24",
"c. c #F0A225",
"v. c #9B8056",
"b. c #A9864C",
"n. c #B9855C",
"m. c #878272",
"M. c #AD8F75",
"N. c #CD814E",
"B. c #C6804D",
"V. c #D48146",
"C. c #D4824D",
"Z. c #DC844D",
"A. c #DE894E",
"S. c #C58153",
"D. c #CC8252",
"F. c #C2815C",
"G. c #CE8159",
"H. c #CF8A5B",
"J. c #D38352",
"K. c #DC8551",
"L. c #D68851",
"P. c #DC8952",
"I. c #D38259",
"U. c #DC8658",
"Y. c #DC8C5A",
"T. c #E3844E",
"R. c #EA864C",
"E. c #E58A4E",
"W. c #EB8B4E",
"Q. c #F18E4E",
"!. c #ED934F",
"~. c #F1934F",
"^. c #E38550",
"/. c #E48A52",
"(. c #EB8D52",
"). c #E38B59",
"_. c #EC8956",
"`. c #F28F56",
"'. c #E69154",
"]. c #ED9254",
"[. c #F39453",
"{. c #FB9554",
"}. c #F59854",
"|. c #FD9C54",
" X c #F79959",
".X c #FF9D5B",
"XX c #FAA05D",
"oX c #CD8A6D",
"OX c #E38D60",
"+X c #FFA661",
"@X c #BF8E82",
"#X c #A39988",
"$X c #B3A790",
"%X c #A8A6A2",
"&X c #BEB4A5",
"*X c #A9ADB4",
"=X c #D39D93",
"-X c #D2AD87",
";X c #EAAA9D",
":X c #C4BFA5",
">X c #FDBBAC",
",X c #FAB5A6",
"<X c #FABAB0",
"1X c #ECCA8D",
"2X c #E1C28B",
"3X c #FFDE9B",
"4X c #FFE09E",
"5X c #D2CBAC",
"6X c #FFC1B3",
"7X c #FFC4B9",
"8X c #D9DBDD",
"9X c #C1C5CC",
"0X c #FFCBC0",
"qX c #D5DCE3",
/* pixels */
"/.Z.Z.C.V.V.V.Z.C.V.V.V.Z.Z.Z.Z.V.V.V.V.V.Z.E.V.#.#.5.5.8.$.$.7.5.5.5.7.6.=.5.:.=.*.;.*.=.&.&.=.&.7.",
"Y.H.F.G.S.S.B.S.S.D.H.N.J.S.H.J.L.D.D.n.>.S.:.%.8.=.J.y.D.y.D.t.t.y.y.y.I.I.J.y.u.I.J.I.J.J.I.U.e.:.",
"'.U.J.J.N.N.D.w.D.L.J.D.D.L.P.P.P.'.L.D.w.e.:.=.V.9.W.T.R.T.R.T.R.T.T.T.E.T.T.T.T.^.^.T.Z.T.T.R.9.w.",
"'.U.C.J.J.D.D.S.N.J.D.B.N.L.L.L.P.P.I.D.e.D.w.=.0.0.^.^.Z.K.Z.T.K.q.T.T.Z.Z.T.Z.Z.Z.T.T.T.T.T.R.9.:.",
").J.J.J.D.J.N.S.D.D.J.D.D.L.L.P.L.P.N.D.w.D.w.=.q.q.R.T.^.^.^.q.T.T.T.^.T.^.T.T.T.^.T.P.T.T.T.R.0.:.",
"'.K.J.J.D.D.D.w.N.J.L.N.N.L.L.C.L.P.J.w.e.D.w.5.q.q.R.T.^.^.^.R.T.T.u.R.^.T.^.T.T.u.T.Z.Z.T.T.R.7.:.",
").P.J.y.D.D.S.S.D.J.J.D.D.P.L.L.P.Z.C.w.e.e.w.&.9.9.Z.q.q.Z.q.T.T.Z.T.T.T.Z.Z.T.T.T.T.T.u.q.T.R.9.S.",
").L.J.C.J.D.D.S.D.C.J.D.N.P.L.L.P.Z.D.e.e.e.w.$.9.9./.q.Z.V.C.u.K.J.P.L.L.K.P.)././.'.(.(.(./.).I.S.",
").J.J.J.N.J.D.S.L.J.J.D.J.P.L.L.K.C.D.e.e.e.w.$.q.V.(.)./././.^.P.P.P.P.L.L.P.P././././.(.)./.].P.n.",
").L.J.J.C.N.D.S.D.N.D.D.A.L.L.L.L.C.D.S.e.e.w.$.V.Z./.P.E.P././.E.P././.^.)./.P./.P.P.P.Z.^.^.E.V.S.",
").J.J.C.D.L.D.S.D.J.D.D.K.L.L.L.P.D.7.w.e.e.w.=.Z.Z.(./.E./.P.E.P.E.P.E./.P./.E.P././.E././.E.'.C.S.",
").K.J.J.D.L.D.S.C.J.J.7.A.L.A.L.P.D.6.w.e.e.e.$.Z.V././.P.^././.W./.W././.E./././.E.P.P.A.A.P.E.N.6.",
").K.J.J.C.J.D.S.J.J.e.e.Z.L.L.P.L.J.7.w.e.7.D.*.C.C.P.C.J.J.C.K.C.A.P.P.A.A.Z.A.L.C.L.C.C.J.K.P.7.S.",
").J.J.C.C.D.D.S.D.J.D.N.Z.J.P.L.L.C.6.w.e.e.=.R o U C.J.C.P.J.L.L.L.J.C.D.J.G.D.D.G.J.I.I.D.G.J.w.S.",
"'.J.J.y.J.J.S.S.C.J.D.e.J.L.L.L.L.K.e.w.e.R > < m , @.A.A.A.A.A.A.A.A.A.A.A.A.A.E.A.A.A.A.A.A.A.4.B.",
").K.K.J.D.C.D.S.J.J.N.D.J.J.L.A.L.K.e.w.+.X A F V J w A.A.A.A.$.A.A.A.A.A.A.A.A.A.A.A.A.E.A.A.A.B.N.",
").J.J.J.D.L.D.S.C.J.D.S.N.J.L.A.L.K.e.=.> y e e * e 1 P.P.] > . 6 0././.P.Z./.P.A.E.A.A.A.A.A.'.N.S.",
"'.K.J.D.D.J.N.S.D.N.e.D.L.L.L.P.L.A.R # = A y w y t 1 Y.O.+ 5 @X2.s U.L.P.P.P.P.P.U.P.P.Y.P.P./.4.6.",
"'.K.J.C.D.N.D.S.C.J.D.6.D.L.A.J.L./ ; q H z.G w w p., Q * d =X7X6Xp =.P.L.L.L.J.J.J.J.J.J.L.J.J.=.n.",
").L.C.L.N.D.S.S.N.J.D.S.A.P.L.L.N.o y J f.s.~ r y s.B e B @X6X,X7Xx _ ^.P.^.P.P.A.A.Z./.P.Z.T.Z.4.=.",
").K.y.J.N.N.w.D.J.y.S.D.P.P.L.L.4.@ #X$Xd.a.qXM.d.l.z.K 1.6X>X,X<X{ ` K.P.Z.E././.(.^.^.T.^.T.(.9.:.",
"'.U.J.J.B.N.6.S.C.J.D.J.P.C.$.L.C.# 8X&XD &XqXM.d.l.z.J 2.=X;X,X<Xp @.^././.^.Z.K.K.K.Z.^.Z./.^.4.:.",
").L.J.J.N.N.6.S.C.J.D.D.P.N.> > U p 9X7 a.%X% j L f.j.j.d x ;X6X=X- T.E.E.^.K.J.Z.K.Z.Z.^.T./.(.7.S.",
"_.K.J.0.6.6.6.e.C.e.J.C.C.K.A./ > % *Xg ( %Xl w H G A A n.<X6X6Xx I R.R.Q.W.R.R.T.R.^.T.T.T.Q.R.9.S.",
"C.6.:.5.=.=.w.6.6.6.6.B.6.f a f s : % % 7 #Xz m L H j.p.M.0X<XX.9 y.7.7.7.y.y.0.V.7.6.7.4.5.6.=.O.O.",
"N.w.=.5.=.=.5.w.6.6.w.6.6.| _ / X y m.c m.5X<.O i ~ h.B x 2.6 f y.y.y.7.7.0.0.0.7.7.4.w.5.8.8.=.,.O.",
").).).).).U.).).).).P.).Y.).U.U. .= j <.6 x 2 O c j N # 6 6  .oX).i.i.u.;.5.r.r.r.-.-.3.r.n.n.r.O.*.",
"{.{.~.Q.W.(.E.E.E.W.!.W.W.~.Q.Q.Q.' 4 &X .& 0 } 5Xr   / w.w.i.R.u.u.u.q.7.e.5.e.D.6.5.t.i.i.y.G.$.0.",
"{.W.W.W.W.W.W.E.W.W.W.W.W.E.W.(.W.W.' p z 1 v <.j s.< -.w.:.J.K.y.u.u.u.7.7.w.N.e.B.w.r.t.t.e.y.-.C.",
"{.[.W.W.W.W.W.W.E.E.W.W.W.W.W.W.W.W.E.4.8 z $Xp G c.B f n.=.J.u.y.u.u.y.7.6.7.e.6.7.w.r.t.e.e.t.*.N.",
"Q.W.W.E.E.!.W.W.!.E.W.E.E./.E.E.W.W.(.R.Q j -X( d.p.k.: *.:.y.u.u.u.y.y.7.5.7.e.7.w.t.t.t.e.e.I.-.7.",
"[.(.'.'.].].!.].].}.!.'.].].'.'.'.].(./.4 1X1Xa.s.B k.C a ;.K.u.8.7.5.u.5.w.e.e.B.6.I.G.e.r.e.I.*.=.",
".X}.!.].}.}.].}.}.}.}.}.}.~.~.}.[.!.E.C.g 3X2XL f.B s.H > -.#.a X   O y.7.5.e.e.5.e.I.I.w.r.t.y.;.S.",
"|.|.~.~.!.!.!.!.!.~.!.!.~.~.~.~.E.e = < ..4X1Xa.P H z.* Y U : X , E +.y.e.7.7.e.5.e.D.I.e.w.t.t.;.e.",
"|.~.!.!.!.!.].!.!.!.!.!.!.!.!.!.Z.; K L ( 2Xn.h V j.V = < = ; ` u.u.u.y.7.5.7.7.e.e.y.D.r.w.e.t.;.C.",
"|.~.!.!.!.!.!.!.!.!.!.!.!.!.!.!.!.s w N i v.C j.z.C H B : 9 +.u.u.u.y.y.7.6.e.e.5.e.D.I.t.t.t.t.;.J.",
"|.|.~.~.~.!.~.~.~.~.~.~.~.~.~.~.Q.Z.Q ; < b.v.S F A k., +.-.e.u.y.y.y.y.7.5.7.e.6.e.S.y.t.e.e.t.-.C.",
"}.~./.(./.(./.W.(.E././.E.E.W././././.` q j.d u V L V a :.=.7.y.u.y.u.u.y.5.e.7.7.t.G.t.y.I.w.I.;.0.",
"[./././././.E././././.Z.^.P././.E.(.W.E.1 L K Z z.l.: %.:.*.e.u.u.y.u.u.7.5.e.e.6.e.G.t.t.y.t.i.&.J.",
"[.(.E.T./.(.^././.W.W.W./.E.E.E.E.W.8.a + y z.A k.j.i b.:.=.7.y.y.y.u.u.y.5.e.e.7.e.S.e.e.t.e.i.-.K.",
"{.[.W.E./.E.^.E.T./.E.W.!.E.^./.E.Z.@ b d.J Z b H x.y U :.*.6.y.u.u.u.u.0.6.7.e.7.7.w.r.t.e.y.t.;.q.",
"{.[.Q.E./.(./.(.(.(.(.(.(.(./.E.(.E.a < Z e p.f.z.x.d.4 w.w.6.u.u.u.u.u.e.6.e.D.w.7.e.r.e.t.e.I.;.q.",
"Q.^.A.T.E.E.E.T.T.E.T.T.T.E.E.T.E.A./.W - : H H C t : | w.=.5.y.u.y.^.u.7.6.e.7.w.7.t.r.e.e.t.t.&.q.",
"[./.A.A.A.A.P.P.E.P.E.P.A.A.A.A.A.P.'.].'.$.;   > Y | :.S.w.5.u.u.y.u.u.7.5.e.7.w.7.e.t.t.t.e.t.;.0.",
" X[.`.].[.].(.'.].].].].].].].`.[.].].].[.].}.P.*.*.S.n.S.B.=.u.u.y.u.u.7.5.e.e.e.7.t.t.e.e.t.I.;.0.",
" X}.[.]._.[.].]._.].].[.].].].].].].].[.].[.}.P.*.*.w.B.S.6.w.u.u.y.u.u.7.6.7.e.6.e.D.G.e.t.e.t.;.9.",
" X[._.].(.(.]._._._.].(.(.`._.(._.Q.(.(.(.(.].C.*.*.S.D.D.&.&.K.u.u.u.u.6.5.D.7.7.D.e.t.e.t.e.e.;.9.",
"XX[.(.(.Q.(.(.Q.(.].(.Q.(.W.!.(.W.].Q.(.`.Q.].V.$.*.S.D.D.$.5.K.q.u.u.u.6.6.y.e.7.7.e.e.t.e.t.e.&.9.",
"(.+X|.|.XX.X.X.XXX.X.X.X.X.X.X.X.X.X.X.X.X.X.X].S.S.H.Y.Y.S.V.`.`._._._.U.y.).U.P.).).OXOXOXOXOXt.^.",
"a ] ] ] ] ] ] ] ] ] ] ] ] ] ] ] ] ` ] ] ] ] @.' W W / W / / / _ _ ` _ _ ! E _ E _ _ _ +./ E / / R ' "
};
