/* XPM */
static char *result[] = {
/* columns rows colors chars-per-pixel */
"50 50 55 1 ",
"  c #B6A063",
". c #B0A36D",
"X c #CEBB7A",
"o c #D6BB76",
"O c #D5BB79",
"+ c #D8BA79",
"@ c #E5C575",
"# c #EBC977",
"$ c #E5C779",
"% c #E8C779",
"& c #E6C97C",
"* c #E9CB7C",
"= c #EAD07F",
"- c #E7CB82",
"; c #EBCE84",
": c #EBCF89",
"> c #E7D187",
", c #EBD185",
"< c #E7D28E",
"1 c #ECD48C",
"2 c #EED98E",
"3 c #F0D086",
"4 c #F3D883",
"5 c #F0D58C",
"6 c #F1D98D",
"7 c #F9DE89",
"8 c #E1CD90",
"9 c #EDD591",
"0 c #EEDA93",
"q c #ECD59A",
"w c #EFDC9A",
"e c #F1D792",
"r c #F1DB94",
"t c #F1DE9A",
"y c #F5E384",
"u c #F4E18F",
"i c #F4E196",
"p c #F9E695",
"a c #F4E29C",
"s c #F9E59C",
"d c #F7E89C",
"f c #FAE99D",
"g c #F0DFA1",
"h c #F4E4A3",
"j c #F6E8A5",
"k c #FBEDA4",
"l c #F5E6A8",
"z c #F6E8A9",
"x c #FBECA9",
"c c #FFF6A5",
"v c #FEFCA6",
"b c #FDF2AB",
"n c #FEFDAC",
"m c #FBEFB2",
"M c #FDF5B2",
/* pixels */
"8ncccvnccccvvvvvvvcccccccccccccccnvvvvvcvvvnvcvvMq",
"et66009262900990090006656re665669009<<9009009990<<",
"r5e6229000rr00rre200r562re022r211re500e6rr00eeeria",
"t5562229<:5e<9<2220ee9:>2250210r2e1602<22<2<121e10",
"tetr0wter0qrr0rrr0ert0e0rtrrerr0rtr6rwtrrertrrqt0a",
"kllhlhlhshzzjjjjlhhjjhjjllhhjllhjzllhjzlhjlljhlzlx",
"53::3::::;:::::;::,:,::,::,,:::;,,,;:,:3::;53;:315",
"736,,,65535523116,366,3366,,3633,6511326665315ee66",
"r6ea002202022222022021r2022222<r20200202<222221016",
"trtterr000r0r00rr000tr02rtrrrrr00rre000tr00i0rrard",
"r2111,11111111115,1<2,153e2<6,621,5621,,221111122e",
"6,1,1>,11111>111,11:21>12,:>,>1111,>:121>>11,>:1>6",
"t6tr22r602rr20r6r220r00rrrrt066220022rrrr6rr622r6t",
"6;,,;:,;;;:;=,,:,,;;,;,,,,,0:;;:;:>,,>1:;;*:,;:,,4",
"e,1,::1:::,1>,,:,11>,:1,21,,,,:>,2,,>,,:::11>::0,6",
"serrr600rrte6rrteee0teeeeteeere6errerrrr2r0ree0rri",
"y>,>,,,>,;>1==,,,;;,>=*=,,**==,**,,,=,,,,,,,,=,1;7",
"xir00rr000r00r0rtrtri202rr0200020wrrrr0000000rrark",
"b00900000000000009020009rt00000rww00r000000i000r0c",
"k00909w02100000r0000w21200122000000000tw0000999t0x",
"p*,,:,,,*-1>;;:,1>,,1>1;1,,>>1>,,1:,::,>>>,,,6,,,p",
"p23263e,,11,*,355,,16,3>513*,,1,:2,#,0,;-;,3#&:e,f",
"p:,:,,>,>*,,;::,,,,>3:;;,,:*,3>::,;;;,,1;;>>::,,:p",
"4&%@@@@@&*&@%@@%&@@#&@&@@*@@@&@@@%@@@%&@@$@&@@&&@y",
"bjaaaasar0thssaaaasaarrtasaaaaaadsaaaasairaar0tsix",
"7*--&----:*&-&&-----;&::----*--&-------*>:&-;:;-&p",
"Maaiitatahtttttaarrat00tsat0ittaartrtattrria0rthak",
"6##$@@$#@%-;&%%&&%#&&&*%*&@&&&&@%;*%@%&#*;&=*,&%&u",
"s1:9>1<,:19::9::,111e990999:,211:91:1,:90919:1901s",
"xtgt0waattgtgtgthttggtgtgttttggttgtggggttrttttgttb",
"k9999299e19ee199e999e:919e99999::9199ee:9e9999109h",
"k192120<199599:e9:99q5599ee:e9999e9911999:9911909f",
"f112291:9<1211<11<22<2>>2111><11><11<12<<11<<1,22d",
"a19111211191:11<91<,1111,9<11911122<:101>19911191a",
"ke9eeee0060e6666eee00100ee200e122022eeer006e0e02rk",
"j11921222111122<1100191:9919119012121120221112221f",
"xrttr00t00wattrrw0wrw0000t000r00ttr0rww0000ttttt0b",
"ke900000000r090r00000299ee0900000r00rr0012r0q0rr0b",
"xrt0q0w00w0ww0qww0www0i0wt0wqt00eww000twqwww000t0k",
"MjhhhhhhhhhhhahhhahhhjgdhhhhhhhshhhhhhjhllghhhhhjM",
"f2111,12,222,,2,1141<2,12111111242211222111214121f",
"f662r00222r0222ui2226,222i606r662602220r220r222r2f",
"btwtttr00wtwtwtiwwwtr0tt0atrtrttttwt00rttr0wttirwb",
"y&-&%&;*&&--&$&&*&&-,&$&*---&*&%&-*&&--;&-;&$$&>*7",
"btaaaahaaaaathaaaaaaaasaatgattajaaaaaatatttaaaagsM",
"bitaaittttatattttrttattaattttrttaatwttttttttaitatx",
"f,9<1191q9999999011299<<99<0999<:12110091:09<2<0:s",
"xe6e0r02202222202r0220ur209ie0000r616006r02662202c",
"xewq98qqqqqtqqqqqq8qgq9qqqq<9qqqqqwq<qqqqq<qq<qw0j",
".oOooOO+o+Ooo+++oooo++Xoo+Oo++o+++OOOOO+OOOOXO++X "
};
